<?xml version="1.0" encoding="UTF-8" standalone="no"?>
<svg
   xmlns:dc="http://purl.org/dc/elements/1.1/"
   xmlns:cc="http://creativecommons.org/ns#"
   xmlns:rdf="http://www.w3.org/1999/02/22-rdf-syntax-ns#"
   xmlns:svg="http://www.w3.org/2000/svg"
   xmlns="http://www.w3.org/2000/svg"
   xmlns:xlink="http://www.w3.org/1999/xlink"
   xmlns:sodipodi="http://sodipodi.sourceforge.net/DTD/sodipodi-0.dtd"
   xmlns:inkscape="http://www.inkscape.org/namespaces/inkscape"
   id="svg24966"
   width="1428.4384"
   height="1428.4384"
   preserveAspectRatio="xMidYMid meet"
   version="1.0"
   viewBox="0 0 14284.384 14284.384"
   inkscape:version="0.92.2 (5c3e80d, 2017-08-06)"
   sodipodi:docname="stingrayCircle.svg">
  <sodipodi:namedview
     id="namedview287"
     bordercolor="#666666"
     borderopacity="1"
     gridtolerance="10"
     guidetolerance="10"
     objecttolerance="10"
     pagecolor="#ffffff"
     showgrid="false"
     inkscape:current-layer="layer1"
     inkscape:cx="353.71916"
     inkscape:cy="859.61398"
     inkscape:pageopacity="0"
     inkscape:pageshadow="2"
     inkscape:window-height="1001"
     inkscape:window-maximized="1"
     inkscape:window-width="1920"
     inkscape:window-x="-9"
     inkscape:window-y="-9"
     inkscape:zoom="0.65798048"
     inkscape:measure-start="5.65685,210.718"
     inkscape:measure-end="1120.06,288.5" />
  <metadata
     id="metadata24972">
    <rdf:RDF>
      <cc:Work
         rdf:about="">
        <dc:format>
                    image/svg+xml
                </dc:format>
        <dc:type
           rdf:resource="http://purl.org/dc/dcmitype/StillImage" />
        <dc:title />
      </cc:Work>
    </rdf:RDF>
  </metadata>
  <defs
     id="defs24970" />
  <g
     id="layer1"
     inkscape:groupmode="layer"
     inkscape:label="stingray"
     style="display:inline"
     transform="translate(1284.8042,3694.177)">
    <a
       id="a468">
      <g
         style="fill:#999b9e;stroke:none"
         id="gray">
        <path
           inkscape:connector-curvature="0"
           d="m 10275,5570 c 10,-11 20,-20 23,-20 3,0 -3,9 -13,20 -10,11 -20,20 -23,20 -3,0 3,-9 13,-20 z"
           id="path24845" />
        <path
           inkscape:connector-curvature="0"
           d="m 3062,4370 c 0,-19 2,-27 5,-17 2,9 2,25 0,35 -3,9 -5,1 -5,-18 z"
           id="path24947" />
      </g>
    </a>
    <g
       id="whiteStingray"
       style="fill:#ffffff;stroke:none"
       transform="translate(-50,-180)">
      <path
         id="path24987"
         d="m 779.90948,75.165703 c -2.68055,-2.680549 -2.5828,-3.695819 0.55369,-5.750923 2.08264,-1.364601 3.10208,-1.475616 5.11757,-0.557296 3.113,1.418379 3.43165,5.746616 0.53712,7.295722 -2.81249,1.505199 -3.88651,1.334367 -6.20838,-0.987503 z"
         transform="scale(10)"
         inkscape:connector-curvature="0" />
    </g>
    <g
       id="layer6"
       inkscape:groupmode="layer"
       inkscape:label="black"
       style="display:inline">
      <g
         id="layer101"
         transform="matrix(1.2268049,0,0,1.2176844,244.77803,2.88509)"
         style="display:inline;fill:#0c0afc;stroke:none">
        <path
           id="path337"
           transform="matrix(2.5,0,0,2.5,88.21539,75.335487)"
           style="fill:#000000;stroke-width:0.40000001"
           d="m 1218.6953,0.0078125 c -46.481,0.15697021 -90.4949,2.5070312 -121.9824,7.4570313 -5.6,1.2 -17.2,2.8000002 -26,4.0000002 -8.8,1.2 -20.4,3.20039 -26,4.40039 -5.6,1.2 -15.2,3.200391 -22,4.400391 -50.40001,8.8 -231.61969,69.190369 -231.61969,69.190369 0,0 47.46848,9.626967 68.02007,21.610416 54.82158,31.96597 113.31247,71.72751 139.53766,129.51563 16.86806,37.16935 12.28896,82.5178 3.60156,122.40039 -10.82884,49.71377 -41.93961,92.0828 -67.53961,136.8828 -36.4,63.2 -51.52449,73.13038 -51.52449,73.13038 0,0 -115.4325,-26.4822 -172.57307,-17.62163 -56.91514,8.82562 -158.50421,68.78545 -158.50421,68.78545 0,0 108.23658,-44.12664 165.41356,-45.62163 47.90215,-1.25249 133.98938,24.52704 140.38938,30.92704 4,4 -7.60117,28.40039 -13.20117,28.40039 -4.8,0 -59.59878,-16.19168 -90.10619,-16.04345 -51.65367,0.25098 -104.14596,9.93429 -152.29225,28.64522 -39.47738,15.34196 -75.77278,39.47188 -107.96223,66.99784 -24.37765,20.8459 -62.81653,72.89361 -62.81653,72.89361 0,0 32.32637,-14.38964 46.96481,-8.20334 25.1189,10.61539 46.0708,67.60393 46.0708,67.60393 0,0 -84.75676,-19.35302 -152.65724,-1.49342 -61.97788,16.3018 -167.9646,93.54651 -167.9646,93.54651 0,0 -10.88079,-55.75991 -6.34138,-83.20113 5.3573,-32.38548 20.54701,-63.20592 38.70637,-90.55108 17.50481,-26.3595 65.97798,-68.25015 65.97798,-68.25015 0,0 52.19771,20.12851 78.99784,17.25664 29.66966,-3.17936 81.42262,-37.20118 81.42262,-37.20118 0,0 -49.10918,13.94479 -73.87611,11.27434 -26.76929,-2.88636 -52.9987,-14.01416 -75.41593,-28.92705 -10.88523,-7.24132 -22.3064,-28.34729 -27.1064,-28.34729 -4.8,0 -72.5712,76.58681 -93.20117,124 -17.29102,39.73939 -23.71918,84.67159 -22.79883,128 0.61915,29.14834 18.98014,85.38053 18.98014,85.38053 0,0 89.44864,-46.65772 137.4714,-61.09065 36.55522,-10.98644 74.77671,-18.2846 112.94237,-18.89165 35.44795,-0.56382 105.40492,14.20138 105.40492,14.20138 0,0 3.14893,-36.90185 -0.25448,-54.87395 -4.45019,-23.49974 -10.58323,-48.55628 -25.92488,-66.90501 -10.22855,-12.23343 -40.8405,-24.91131 -40.8405,-24.91131 0,0 55.31483,-56.53325 91.01986,-70.72802 55.69976,-22.1438 120.37241,-29.79924 178.98878,-17.27198 21.72271,4.6425 57.92056,32.95556 57.92056,32.95556 0,0 -18.36873,29.34605 -27.0179,44.33648 -13.98153,24.23227 -40.19017,73.68122 -40.19017,73.68122 0,0 -72.50262,34.19347 -107.70127,53.31858 -120.7148,65.5901 -243.84238,128.84439 -354.40039,210.39839 -43.98478,32.4457 -87.37421,67.3854 -121.59961,110 -49.10411,61.1404 -115.24065,114.0424 -116.455855,204.4071 -2.615035,194.4583 44.499536,259.0081 128.692635,350.7941 57.05287,62.1981 149.26361,80.6213 229.31837,107.3585 86.59187,28.9205 177.68833,43.1907 268.04446,56.2411 41.50481,5.9947 107.99935,10.4247 125.40348,10.0617 1.07088,4.0364 14.88176,45.4558 45.95935,68.3117 37.7235,6.4289 196.47558,-33.5549 196.47558,-33.5549 0,0 106.921,80.7778 169.5952,100.562 49.2758,15.5548 154.5664,11.8187 154.5664,11.8187 0,0 -93.4304,-35.0236 -135.2566,-61.5642 -31.2698,-19.842 -84.708,-62.6895 -84.708,-71.8895 0,-3.2 45.915,-26.4936 67.0773,-42.3473 21.3744,-16.0125 60.0885,-52.9978 60.0885,-52.9978 0,0 -117.543,39.3121 -178.6348,46.9447 -77.3667,9.666 -233.89621,-1.9646 -233.89621,-1.9646 0,0 81.95044,-21.2948 120.49794,-38.3473 32.69447,-14.4632 92.81417,-53.7455 92.81417,-53.7455 0,0 -67.19656,18.3521 -101.18153,25.9115 -66.08626,14.6998 -131.90009,35.4509 -199.56184,37.7676 -113.91967,3.9004 -229.50529,-10.7693 -339.55752,-40.4579 -80.99832,-21.8507 -173.32347,-39.0141 -230.98251,-99.9535 -76.3983,-80.7449 -122.867403,-202.0022 -115.318378,-312.905 4.645592,-68.2485 52.724568,-128.521 96.404708,-181.1658 69.28643,-83.5065 163.35922,-144.0002 254.21476,-203.3231 94.15624,-61.47803 298.8759,-156.45352 298.8759,-156.45352 0,0 -18.12064,68.06927 -18.07512,102.89165 0.0328,25.05595 4.46273,50.51647 13.19922,73.99997 17.30173,46.5067 51.3708,84.923 76,128 24.85064,43.4643 62.88492,82.4452 72.40039,131.5996 8.21937,42.4591 10.27929,94.1509 -15.59961,128.8008 -24.36721,32.6259 -71.54322,45.0761 -112.11936,48.5089 -57.21071,4.8402 -167.32744,-40.8651 -167.32744,-40.8651 0,0 32.14376,37.4206 52.77423,50.2368 19.86225,12.339 42.92636,19.6175 65.87179,24.1194 17.93711,3.5192 36.58317,3.4979 54.80078,2 41.35887,-3.4006 90.4,-7.2008 122,-24.8008 11.6,-6.4 22.00078,-11.5996 22.80078,-11.5996 0.8,0 2.8,4.4 4,10 1.6,5.6 8,16.6372 8,16.6372 0,0 39.19844,-53.036 46.39844,-85.436 4,-17.2 6.00078,-86.4012 2.80078,-101.2012 -0.8,-3.2 -2.80039,-12.4 -4.40039,-20 -4.4,-18.8 -46.00039,-98.7996 -58.40039,-111.5996 -15.6,-16.4 -47.04336,-63.4928 -65.19922,-98.4004 -15.48054,-29.7638 -34.52957,-60.2143 -36.77423,-93.68808 -1.79814,-26.81483 8.68481,-53.56855 19.17462,-78.31189 18.75604,-44.24171 33.19883,-60.4 76.79883,-122 113.60001,-159.2 163.20041,-248.4 180.40041,-322 10,-42 9.5996,-158.39882 -0.4004,-186.79882 -0.8,-2.8 -2.3996,-9.60118 -3.5996,-15.20118 -3.6,-20.8 -19.6,-66.8 -30,-86 -5.6,-10.8 -10.7996,-21.20039 -11.5996,-22.40039 -2,-4 19.5992,-11.2 43.1992,-14 12,-1.6 26.4,-3.2 32,-4 40.4,-6 79.6,-7.59961 174,-7.59961 95.2,0.4 124.8,2.39961 172,11.59961 4.4,0.8 21.6,3.60039 38,6.40039 16.4,2.8 36.4,7.2 44,10 14,5.6 52,16 100,28 14.4,3.6 55.6,16.40079 92,28.80079 36,12 70.8012,23.2 77.2012,24 6.4,0.8 28.8,9.2 50,18 21.6,8.8 46.7988,18.80039 56.7988,22.40039 10,3.2 36,12.79921 58,21.19921 22,8.40001 77.6012,29.6004 87.2012,32.4004 9.2,2.4 54.7988,17.20039 100.7988,32.40039 68,22 119.6,37.19843 164,48.39843 2.4,0.8 11.2,3.20157 20,5.60157 24,6.8 37.2012,8.79961 69.2012,11.59961 27.6,2.4 42.1744,2.51665 42.1744,2.51665 0,0 -53.869,-14.78361 -68.062,-23.8879 5.7105,-0.43371 89.0864,-11.82914 96.6864,-15.02915 7.6,-3.2 29.6012,-8.40078 49.2012,-14.80078 19.2,-6.8 36.7988,-12.79921 38.7988,-13.19922 2.4,-0.4 7.6,-1.9996 12,-3.5996 4.4,-1.2 14.4,-3.20039 22,-4.4004 7.6,-1.2 18.4,-3.20039 24,-4.40039 12.8,-2.8 28.8,-5.20039 54,-8.40039 11.2,-1.2 21.2004,-3.19961 22.4004,-3.59961 1.2,-0.8 47.9996,-2.00039 103.5996,-2.40039 56,0 98.9636,-5.31858 104.1636,-7.31858 4.8,-1.6 28.8929,-16.34691 42.0929,-17.94691 22,-2.4 25.9907,3.71052 31.5907,12.11052 3.2,5.20001 -1.4279,29.42911 -0.2279,43.42911 4.1274,20.58053 11.5807,53.32664 24.3807,92.52664 5.6,16.80001 10.8016,34.39922 11.6016,39.19922 0.8,4.8 2.8,12.80039 4,18.40039 3.6,14 6.3992,37.2 9.1992,72 2.4,31.2 -7.9992,149.20079 -15.1992,172.80079 -2.4,7.2 -5.2,18.79921 -6,25.19921 -3.2,19.6 -25.6,85.19961 -42,123.59961 -8.8,19.6 -15.6016,36.40118 -15.6016,37.20118 0,5.6 10.8,-1.99961 28,-19.59961 54,-56 92.8,-141.60118 104,-229.20118 2,-17.6 6.0004,-44.4 8.4004,-60 4,-26.4 2.8004,-149.20039 -1.5996,-168.40039 -1.2,-4.8 -3.2008,-15.6 -4.8008,-24 -5.9912,-17.77168 -7.1912,-23.90757 -21.3009,-58.32527 -1.6,-8.8 -7.0633,-26 -10.2633,-38 -3.6,-12 -4.9439,-41.67434 -6.1439,-49.27434 -4,-26 -14.6919,-53.99921 -30.2919,-61.19921 -23.6,-11.2 -52.7984,-8.80118 -82.3984,6.79882 -14,7.2 -35.6016,16.00157 -47.6016,19.60157 -31.2,8.8 -74.1482,8.19598 -81.7482,6.55337 -7.6,-1.64262 -49.4502,-22.15455 -94.6502,-49.75455 -62.8,-38.8 -117.6876,-55.00883 -144.8008,-62 0,0 -18.0274,-4.57534 -24.1547,-6.47556 3.9525,-4.54208 18.1102,-12.59363 27.5078,-17.47389 -8.6665,-8.27215 -50.9539,-22.44937 -82.1539,-26.84937 -27.2,-4 -104.4,-4 -126,0 -46,8.4 -93.9996,35.59843 -141.5996,80.39843 -41.6,39.2 -87.6004,59.6 -134.4004,60 -30.4,0.4 -32,-0.4 -118,-46 -20.8,-11.2 -54,-27.99882 -74,-36.79882 -19.6,-9.2 -36.8,-17.99961 -38,-19.59961 -2.8,-4 -122.4,-52.00039 -184,-74.400394 -89.2,-31.6 -175.2686,-52.31869 -196.3984,-56.800782 l -26.4004,-5.599609 C 1405.1641,7.403125 1307.4318,-0.29185791 1218.6953,0.0078125 Z M 2415.4883,182.60742 c 14.5754,0.15802 28.5371,3.25781 45.2246,9.25781 16.4,6 58.4008,20.40039 92.8008,32.40039 62.8,21.20001 96.0481,39.97882 116.8481,54.37882 17.6,12.4 20.1012,12.48972 -18.8051,18.69767 -4.3545,-1.54416 -103.4764,23.48605 -199.5447,46.7817 -43.9738,10.66323 -88.5094,15.63154 -123.2992,16.54218 -8.0249,0.21006 -15.7344,-3.19404 -23.5996,-4.80079 -10.4015,-2.12488 -25.9992,-4.40039 -31.1992,-6.40039 -8,-2.8 -13.9629,-7.9191 -9.5629,-14.71911 10.8,-17.2 48.4742,-25.42426 88.8742,-12.62426 13.6,4.4 46.493,14.98018 59.1947,13.39717 54.6026,-6.80512 126.6843,-24.78041 140.2928,-32.05409 13.2,-6 28.0004,-15.19882 32.4004,-20.79882 6.8,-8.8 7.2004,-11.20039 2.4004,-18.4004 -6,-9.2 -35.8929,-23.65339 -50.4004,-27.19921 -15.6181,-3.81726 -14.2673,-5.4983 -12.4004,4.79882 0.6382,3.52032 -5.5103,12.78065 -10,21.20118 -6.0604,11.36627 -12.7984,17.59921 -32.3984,27.19921 -29.2,14.40001 -51.2004,15.99961 -112.4004,7.59961 -20.4,-2.8 -48.7996,-3.99882 -63.5996,-2.79882 -22.8,1.6 -29.6008,4.39843 -52.8008,20.39843 -14.8,10 -30.4008,18 -34.8008,18 -12.8,-1.2 -58,-16.79843 -58,-20.39843 0,-6.8 67.2,-34.80118 100,-41.20118 33.6529,-6.81591 44.65,-4.81039 19.0722,-17.14108 -5.4048,-2.60555 7.329,-18.05774 10.129,-21.65774 6.8,-8.4 49.5988,-33.20157 68.7988,-39.60157 22.95,-7.4375 40.2566,-11.03651 56.7754,-10.85742 z"
           inkscape:connector-curvature="0"
           sodipodi:nodetypes="scssccaaaccacassaaacacscaacacaacaacaacaacaacacaaasaaacccacacacacacaaaaaaacaaaaaacaaacsccccccaaaccccccccccscscsccscccccccccccccccccccccscccccsccccccccccczcsccccccccccccscccccssacccscccssscscccscscccc" />
        <path
           d="m 3563,5143 c 0,0 -30.0191,-159.4691 -22.0531,-239.115 9.1045,-91.0293 78.8319,-262.885 78.8319,-262.885 0,0 -89.7788,-24 -89.7788,-26 0,-8 46,-47 72,-61 34,-18 130,-43 188,-50 25,-3 52,-7 60,-10 8,-3 82,-7 165,-11 187,-7 511,18 685,52 69,13 229,38 355,55 127,17 302,42 390,56 289,45 446,54 600,34 160,-21 472.6651,-127.3864 608,-284 73.9787,-85.6104 307,-189 432,-211 17,-2 41,-7 55,-10 14,-3 43,-7 65,-10 89,-10 122,-14 165,-19 51,-6 111,-14 155,-21 105,-16 270,-69 396,-129 197,-92 279,-153 439,-325 44,-47 175,-231 190,-267 10,-23 23,-43 28,-45 7,-3 37,-68 93,-208 18,-44 49,-185 49,-223 v -36 l -52,-6 c -163,-20 -324,-56 -426,-94 -47,-18 -112,-58 -159,-98 -12,-11 -34,-28 -49,-39 -111,-80 -196,-176 -240,-270 -29,-61 -25.9115,-96.2743 -25.9115,-96.2743 0,0 84.0123,54.141 140.9115,97.2743 129.101,97.8669 176.1477,124.5559 288,162 121.1494,40.5564 136.9951,43.14 308,49 149.9953,5.14 175.0992,-6.9897 243,-27 129.831,-38.261 159,-63.4602 159,-63.4602 0,0 10.5002,62.9579 7,108.4602 -3.5002,45.5023 -16,179 -19,205 -4,33 -25,169 -31,200 -2,14 -7,41 -10,60 -3,19 -19,74 -35,121 -16,48 -29,94 -29,102 0,58 -211,489 -295,602 -79,107 -140,176 -168,194 -18,11 -42,29 -55,41 -30,29 -161,112 -243,154 -67,35 -162,71 -212,80 -15,3 -192,38 -217,41 -25,3 -55,8 -67,10 -22,5 -33,7 -188,25 -49,6 -322,45 -405,72 -104,33 -149,61 -240,147 -47,44 -121,96 -147,115 -76,53 -165,87 -268,102 -16,3 -41,7 -54,10 -123,27 -459,20 -615,-12 -11,-3 -51,-8 -88,-13 -37,-5 -70,-11 -75,-14 -4,-3 -24,-8 -44,-11 -19,-3 -62,-12 -94,-21 -33,-8 -66,-15 -75,-15 -8,0 -64,-15 -125,-34 -391,-125 -652,-181 -840,-181 -65,0 -227.4141,-4.2366 -335,27 -61.1426,17.7522 -136,57 -169,89 -41,39 -102,152 -131,244 -44,139 -77,188 -77,188 z"
           id="path341"
           inkscape:connector-curvature="0"
           sodipodi:nodetypes="cacsccscccccscsccccccccscccccccssssczccscscccccsccccccccscccscsaccc"
           style="fill:#000000" />
        <path
           d="M 3281.7257,5064.7699 C 3241.2939,5042.1192 3187,4963 3187,4963 c 0,0 34,-15 72,-19 38,-3 74,-10 81,-14 6,-4 30,-45 53,-91 37,-73 47.6593,-74.0442 71,-87 0,0 28.2721,-13.4242 28,-4 -0.5829,20.1875 -5,59 -5,59 -3,32 -11,83 -16,113 -6,30 -13,70 -16,89 -6,38 -23,72 -39,83 -16,11 -94.4314,-4.9093 -134.2743,-27.2301 z"
           id="path343"
           inkscape:connector-curvature="0"
           style="fill:#000000"
           sodipodi:nodetypes="accccccccsca" />
        <path
           d="M 2086.3274,4516.7699 C 1938.8883,4513.9408 1788.4384,4520.2304 1645,4486 c -121.0381,-28.8848 -290,-98 -344,-145 -29,-25 -35,-27 -161,-41 -176,-19 -216,-31 -330,-99 -109,-65 -221,-204 -249,-308 -53,-200 -29,-386 75,-566 53,-92 214,-246.0221 220,-251.0221 85,-68 240.9216,-193.5783 374,-270.9779 124.2151,-72.2447 392.4602,-178.3628 392.4602,-178.3628 0,0 -269.2492,171.6198 -390.7345,274.4513 C 1075.6291,3033.2168 899.81064,3158.9456 801,3338 c -76.91975,139.386 -139.79047,308.8044 -109,465 20.42952,103.636 98.15074,196.4558 184,258 64.79359,46.4496 170,69 229,69 30,0 55,-2 55,-5 0,-2 -11,-29 -25,-59 -28,-62 -10,-113 -10,-113 0,0 64,11 122,32 63,22 127,38 157,39 l 51,1 -4,-148 c -3,-141 15,-145 15,-145 0,0 34,28 51,58 45,75 124,155 211,213 81,53 181,101 233,111 19,4 63,13 99,21 36,8 106,22 155,30 104,19 185,43 185,55 0,5 -363,60 -515,50 -166,-12 -378,-38 -412,-51 -32,-12 -35,1 -10,46 34,61 110,92 357,146 93,20 363.8496,63.3628 406.8496,67.3628 45,4 204.1504,27.6372 204.1504,27.6372 0,0 -229.7468,12.9751 -344.6726,10.7699 z"
           id="path345"
           inkscape:connector-curvature="0"
           sodipodi:nodetypes="aaccccccacaaaassccccccccccscccccccca"
           style="fill:#000000" />
        <path
           d="m 5530,4539 c -96,-4 -211,-11 -255,-17 -78,-11 -126,-17 -230,-28 -27,-3 -63,-9 -80,-14 -16,-5 -75,-14 -130,-20 -55,-6 -78.891,-12.525 -118.4071,-18.3186 -76.0351,-11.1478 -152.1829,-21.5261 -228.3628,-31.6372 C 4398.8863,4398.186 4220,4388 4220,4376 c 0,-18 93,-58 305,-131 105,-36 193.296,-72.6628 291,-106 51.9806,-17.7361 157,-50 157,-50 0,0 -2.8471,40.1491 -6,60 -5.1383,32.3512 -13,77 -21,96 -15,35 -19.8673,50.3186 -19.8673,50.3186 0,0 211.8673,-32.3186 320.8673,-91.3186 46,-24 86,-44 89,-44 7,0 1,77 -12,170 -6,42 -4,47 20,58 24,10 169.812,47.6315 256,66 21.4921,4.5804 43.1747,8.442 65,11 60.0263,7.0351 180.9204,11.9027 180.9204,11.9027 0,0 -177.9204,67.0973 -315.9204,62.0973 z"
           id="path347"
           inkscape:connector-curvature="0"
           style="fill:#000000"
           sodipodi:nodetypes="ccccsaaccacaccccccaacc" />
        <path
           d="m 3898.1327,4353.0885 c 0,0 14.8673,-6.0885 134.8673,-62.0885 256,-122 686,-392 848,-533 14,-13 46,-39 70,-58 24,-19 55,-47 69,-61 14,-15 64.5929,-77.823 64.5929,-77.823 0,0 6.4071,151.823 -24.5929,216.823 -17,36 -30,66 -30,68 0,12 32,-3 157,-72 190,-105 299,-182 358,-251 28,-32 84,-93 126,-137 68,-71 87.6814,-86.2301 87.6814,-86.2301 0,0 19.3186,65.2301 20.3186,157.2301 1,64 -25.8673,125.6372 -23.8673,127.6372 8,8 266.8673,-114.6372 347.8673,-167.6372 108,-70 202,-155 314,-280 98,-111 136.4071,-143.5487 136.4071,-143.5487 0,0 7.5929,101.5487 -0.4071,159.5487 -4,36 -3,47 8,47 20,0 343,-166 419,-215 36,-23 115,-81 175,-129 61,-47 113,-86 118,-86 25,0 -28,116 -81,178 -65,75 -179,184 -217,207 -16,11 -44,31 -62,46 -126,108 -928,463 -1474,654 -74,26 -168,61 -209,77 -41,17 -79,31 -85,32 -29,6 -657.1778,260.6697 -998.7611,347.8584 -81.2317,20.7343 -248.1062,41.2301 -248.1062,41.2301 z"
           id="path349"
           inkscape:connector-curvature="0"
           style="fill:#000000"
           sodipodi:nodetypes="cccscccscccccsccccscccccccccac" />
        <path
           d="m 2020,4070 c -67,-19 -172,-135 -172,-135 0,0 4,-20 172,-26 96,-3 177,-4 180,-2 14,12 -35,62 -84,85 -45,23 -65.3406,34.3152 -56,52 29.8673,56.5487 21.8673,54.9115 -40,26 z"
           id="path351"
           inkscape:connector-curvature="0"
           style="fill:#000000"
           sodipodi:nodetypes="cccccsc" />
        <path
           d="m 6940,4043 c 14,-16 63,-59 110,-94 47,-35 87,-67 90,-70 3,-3 30,-28 61,-55 57,-50 128,-130 213,-241 78.9115,-101.2301 79.3628,-99.6018 79.3628,-99.6018 L 7509,3632.2301 c 0,0 216.5747,-162.9115 303,-265.7699 42.2126,-50.239 102.3628,-168.1505 102.3628,-168.1505 0,0 8.6372,84.6903 10.6372,93.6903 2,10 6,44 9,75 3,31 6.6814,69.2965 12.6814,75.2965 6,6 66.9012,-18.3982 97,-35 80.4061,-44.3501 144.5841,-113.245 217.3186,-169.2965 55.746,-42.9596 167.9115,-128 167.9115,-128 0,0 -86.9115,218 -206.9115,369 -107,134 -168,192 -280,265 -126,83 -414,218 -514,242 -10,2 -28,6 -40,10 -13,3 -34,7 -48,10 -14,3 -33,7 -42,10 -10,3 -28,7 -40,10 -13,2 -34,6 -48,9 -14,3 -40,8 -59,11 -18,3 -43,7 -55,10 -11,2 -57,7 -101,11 l -79,6 z"
           id="path353"
           inkscape:connector-curvature="0"
           style="fill:#000000"
           sodipodi:nodetypes="cssccccaccscaacccccsccsccccc" />
        <path
           d="m 2598.3628,3578.2522 c 0,0 5.6372,-55.2522 12.6372,-87.2522 15,-79 7,-183 -20,-253 -12,-31 -55,-103 -95,-160 -152,-213 -215,-359 -223,-513 -10,-179 18,-252 189,-485 165,-224 172.2949,-224.1493 237,-349 91.9302,-177.3827 206,-561 211,-561 8,0 33.7329,136.5544 41.9779,206.2168 C 2967.768,1509.628 2964,1777 2966,1779 c 2,2 68.5726,-20.3663 102,-33 45.7856,-17.3044 134.6814,-58.5044 134.6814,-58.5044 0,0 -15.6924,210.415 -48.6814,309.5044 -36.6914,110.2102 -165,305 -163,308 6,5 100.4839,-31.6394 148,-54 32.9207,-15.4921 94.1858,-55.1637 94.1858,-55.1637 0,0 9.2049,153.5387 -16.4823,223.7876 -26.8252,73.3613 -137.6017,189.6814 -137.6017,189.6814 0,0 136.7056,-10.6754 198.7655,-36.9425 24.6838,-10.4475 65.584,-46.5265 65.584,-46.5265 0,0 -69.6018,304.06 -149.6194,434.7832 -149.3019,243.9112 -595.4691,617.6327 -595.4691,617.6327 z"
           id="path355"
           inkscape:connector-curvature="0"
           style="fill:#000000"
           sodipodi:nodetypes="ccccccacasacacacacacac" />
        <path
           d="m 6832.6217,2575.5111 c 0,-7 38.3783,-28.5111 51.3783,-50.5111 122,-204 181,-432 152,-584 -28,-141 -137,-237 -326,-286 -63,-17 -203,-17 -270,-1 -27,6 -57,13 -90,21 -60,13 -209,75 -316,131 -67,35 -129,64 -139,64 -16,0 -16,-1 1,-27 9,-16 28,-39 40,-53 12,-14 42,-47 66,-75 107,-124 268,-271 368,-337 104,-70 244,-145 284,-155 27,-6 116,-4 127,3 19,11 8,54 -23,95 -45,57 -76.1733,64.6804 -129.1733,71.6804 -25,3 -69.6932,-1.973 -94.6932,1.027 -60,7 -228.7188,144.7983 -228.7188,144.7983 0,0 44.5853,-14.5057 106.5853,-39.5057 29,-11 77,-23 108,-26 30,-2 80,-8 110,-12 80,-10 304,-5 385,8 139,24 184,74 199,226 15,155 16,208 7,285 -6,47 -14,96 -17,110 -3,14 -24.5929,78.3119 -27.5929,92.3119 C 7248.7345,2093.6504 7312.7412,2012.5044 7304,1881 c 7,-49 23,-78 75,-134 32,-33 84.8178,-52.4088 92.5929,-36.6593 7.7751,15.7495 18.2589,89.7854 18.2589,89.7854 -1,70 -0.8518,75.8739 -46.8518,170.8739 -66,137 -147,244 -318,415 -177.5929,148.896 -187.8429,153.3761 -292.3783,189.5111 z"
           id="path359"
           inkscape:connector-curvature="0"
           style="fill:#000000"
           sodipodi:nodetypes="cccccccscsccccccccccccccsccczcccc" />
        <path
           d="m 4469,2515.2743 c 19,-36 95,-101.2743 141,-110.2743 3,-1 14,-4 25,-8 29,-9 72,-16 147,-23 58,-6 94.5487,-8.9779 100.5487,5.0221 -18.1859,30.7036 -29.5177,48.8584 -58.2124,87.1106 -67.3186,-0.615 -159.3275,4.0443 -223.3275,10.0443 -69,7 -143.0088,59.0973 -132.0088,39.0973 z"
           id="path361"
           inkscape:connector-curvature="0"
           sodipodi:nodetypes="cccccccc"
           style="fill:#000000" />
        <path
           d="M 3636.6372,2422.8673 C 3636.6372,2399.8673 3807,2117 3844,2085 c 7,-5 18,-20 26,-31 71,-103 241,-270 288,-284 58,-18 196,-24 221,-11 47,26 20,58 -139,166 -99,67 -178,124 -215,153 -5,4 -30,23 -55,42 -53,42 -97,79 -121,102 -159,152 -212.3628,200.8673 -212.3628,200.8673 z"
           id="path363"
           inkscape:connector-curvature="0"
           sodipodi:nodetypes="cccccccccc"
           style="fill:#000000" />
        <path
           d="M 3868.3407,2357.5929 C 3883.2059,2337.881 4078,2129 4274,1987 c 66,-49 126.0543,-93.9552 131,-100 13.0545,-15.9555 466,-263 652,-356 149,-74 156.4292,-67.0664 188.6593,-71.2522 -2.2965,26.2964 -1.3186,129.3938 -12.3186,162.3938 C 5189.4956,1628.9115 5172,1637 5090,1655 c -109,24 -442,184 -620,298 -58,37 -114,73 -125,80 -11,7 -22,15 -25,18 -6,6 -232,163 -343,238 -86,58 -108.6593,68.5929 -108.6593,68.5929 z"
           id="path365"
           inkscape:connector-curvature="0"
           sodipodi:nodetypes="ccscccccsscc"
           style="fill:#000000" />
        <path
           d="m 4802.1106,1433 c 0,0 4.774,-79.9431 14.6593,-118.4956 C 4825.1024,1282.0078 4857,1224 4854,1221 c -3,-3 -241.5265,12.8451 -241.5265,12.8451 0,0 5.0809,-68.9215 17.5929,-100.5708 8.6796,-21.9553 38.8009,-59.2522 38.8009,-59.2522 0,0 -123.7659,-17.3541 -185.6815,-13.2522 -69.5536,4.608 -204.8008,42.2743 -204.8008,42.2743 -1.9148,2.1883 -5.9282,-48.852 28.615,-98.0442 14,-29 40.5044,-46.38496 40.5044,-46.38496 0,0 -121.621,-87.63984 -185.5708,-126.59292 -87.9556,-53.57547 -271.8009,-146.9115 -271.8009,-146.9115 0,0 189.1514,16.53561 281.8673,35.88938 114.923,23.98934 220,60 338,99 118,40 368,130 590,211 109,39 189,68 290,104 91,32 166.1195,78.9336 166.1195,78.9336 0,0 -74.3398,2.0913 -111.1195,7.0664 -97.1762,13.1448 -194.4655,30.5501 -288,60 -122.7496,38.6485 -354.8894,152 -354.8894,152 z"
           id="path371"
           inkscape:connector-curvature="0"
           sodipodi:nodetypes="caccacacccacaccccaac"
           style="fill:#000000" />
        <path
           d="m 7186.6814,1402.2301 c 13.2744,-26.9336 40.8894,-66.9115 59.8894,-97.9115 19,-31 72.5708,-115.9336 90.5708,-169.9336 C 7341.208,1078.7257 7339,1037 7351,1024 c 41,-43 113.0448,-22.8511 109,32 -4.9779,67.5044 -103.4867,209.1681 -238,333 -31,15 -17.0664,7.3628 -35.3186,13.2301 z"
           id="path373"
           inkscape:connector-curvature="0"
           style="fill:#000000"
           sodipodi:nodetypes="csccscc" />
      </g>
      <path
         d="m 5254.7778,3544.6334 c 23.3092,-43.8364 116.5464,-123.3202 172.9795,-134.2794 3.6803,-1.2176 17.1752,-4.8707 30.67,-9.7415 35.5774,-10.9592 88.33,-19.4829 180.3403,-28.0066 71.1548,-7.3062 115.9932,-10.9324 123.354,6.1152 -22.3106,37.3871 -36.2128,59.4941 -71.4153,106.0731 -82.5867,-0.7488 -195.4638,4.9249 -273.9793,12.2311 -84.6495,8.5238 -175.4442,71.9619 -161.9492,47.6081 z"
         id="path361-2"
         inkscape:connector-curvature="0"
         sodipodi:nodetypes="cccccccc"
         style="display:inline;fill:#000000;stroke:none;stroke-width:1.22223604" />
      <path
         d="m 6192.9633,2586.5961 c 23.3093,-43.8366 116.5464,-123.3201 172.9795,-134.2792 3.6804,-1.2177 17.1753,-4.8708 30.6701,-9.7414 35.5774,-10.9592 88.33,-19.483 180.3403,-28.0069 71.1548,-7.3059 115.9933,-10.9322 123.3541,6.1154 -22.3107,37.387 -36.2128,59.4942 -71.4154,106.073 -82.5867,-0.7488 -195.4638,4.9248 -273.9793,12.2311 -84.6495,8.5236 -175.4442,71.9617 -161.9493,47.608 z"
         id="path361-9"
         inkscape:connector-curvature="0"
         sodipodi:nodetypes="cccccccc"
         style="display:inline;fill:#000000;stroke:none;stroke-width:1.22223604" />
      <path
         d="m 6642.153,2175.4065 c 23.3093,-43.8366 116.5465,-123.3202 172.9795,-134.2792 3.6805,-1.2177 17.1753,-4.8708 30.6701,-9.7415 35.5774,-10.9593 88.33,-19.4829 180.3404,-28.0069 71.1546,-7.306 115.9926,-10.9321 123.3534,6.1155 -22.3101,37.3872 -36.2123,59.4942 -71.4148,106.0732 -82.5872,-0.7489 -195.4638,4.9248 -273.9793,12.2308 -84.6495,8.5237 -175.4441,71.9617 -161.9493,47.6081 z"
         id="path361-23"
         inkscape:connector-curvature="0"
         sodipodi:nodetypes="cccccccc"
         style="display:inline;fill:#000000;stroke:none;stroke-width:1.22223604" />
      <path
         style="display:inline;fill:#000000;stroke-width:1.26263511"
         d="m 7780.2187,691.19179 c -78.692,-0.10473 -159.6476,11.52418 -229.6458,49.35178 -33.7851,18.83871 -67.1848,46.17094 -77.6273,85.03419 -7.1547,25.78802 0.3036,53.72048 16.4569,74.59971 28.8771,37.47272 76.0172,54.17974 120.7031,63.84962 33.4072,7.09231 67.588,10.61312 101.7403,8.69869 55.9598,-0.3465 112.2277,-9.8804 164.2526,-30.79062 41.0504,-16.88383 81.6121,-44.89858 98.0306,-87.83514 8.6041,-22.92863 8.6389,-48.7144 2.8415,-72.31161 -9.3944,-33.28736 -36.3003,-59.4872 -68.3926,-71.34509 -40.6131,-16.3118 -85.0043,-19.70435 -128.3593,-19.25153 z m 76.6407,72.01573 a 47.35779,37.871875 0 0 1 47.3578,37.87188 47.35779,37.871875 0 0 1 -47.3578,37.87187 47.35779,37.871875 0 0 1 -47.3578,-37.87187 47.35779,37.871875 0 0 1 47.3578,-37.87188 z"
         id="path266"
         inkscape:connector-curvature="0" />
    </g>
    <circle
       style="opacity:1;fill:none;fill-opacity:1;stroke:#000000;stroke-width:170.31869507;stroke-linecap:round;stroke-linejoin:round;stroke-miterlimit:4;stroke-dasharray:none;stroke-opacity:1"
       id="path34"
       cx="5857.3877"
       cy="3448.0151"
       r="5554.8408" />
    <circle
       style="display:inline;opacity:1;fill:none;fill-opacity:1;stroke:#000000;stroke-width:180.00000573;stroke-linecap:round;stroke-linejoin:round;stroke-miterlimit:4;stroke-dasharray:none;stroke-opacity:1"
       id="path34-7"
       cx="5857.3877"
       cy="3448.0149"
       r="7032.1919" />
    <text
       xml:space="preserve"
       style="font-style:normal;font-variant:normal;font-weight:900;font-stretch:normal;font-size:1466.66674805px;line-height:3;font-family:Arial;-inkscape-font-specification:'Arial, Heavy';font-variant-ligatures:normal;font-variant-caps:normal;font-variant-numeric:normal;font-feature-settings:normal;text-align:start;letter-spacing:0px;word-spacing:0px;writing-mode:lr-tb;text-anchor:start;fill:#000000;fill-opacity:1;stroke:none;stroke-width:10"
       id="text4547"
       x="1300"><textPath
         xlink:href="#path4549"
         id="textPath4551"
         style="font-style:normal;font-variant:normal;font-weight:900;font-stretch:normal;font-size:1466.66674805px;line-height:1;font-family:Arial;-inkscape-font-specification:'Arial, Heavy';font-variant-ligatures:normal;font-variant-caps:normal;font-variant-numeric:normal;font-feature-settings:normal;text-align:start;letter-spacing:80px;writing-mode:lr-tb;text-anchor:start;stroke-width:10">LAKOTA YMCA</textPath></text>
    <path
       style="opacity:1;fill:none;fill-opacity:1;stroke:none;stroke-width:11.27079773;stroke-linecap:round;stroke-linejoin:round;stroke-miterlimit:4;stroke-dasharray:none;stroke-opacity:1"
       id="path4549"
       sodipodi:type="arc"
       sodipodi:cx="5857.3955"
       sodipodi:cy="3448.0173"
       sodipodi:rx="5721.4189"
       sodipodi:ry="5721.4189"
       sodipodi:start="3.6041049"
       sodipodi:end="3.3370695"
       d="M 737.10108,895.13274 A 5721.4189,5721.4189 0 0 1 8063.0223,-1831.1725 5721.4189,5721.4189 0 0 1 11271.961,5296.5601 5721.4189,5721.4189 0 0 1 4374.1722,8973.837 5721.4189,5721.4189 0 0 1 244.94006,2336.7214"
       sodipodi:open="true" />
    <path
       style="opacity:1;fill:none;fill-opacity:1;stroke:none;stroke-width:19.23078918;stroke-linecap:round;stroke-linejoin:round;stroke-miterlimit:4;stroke-dasharray:none;stroke-opacity:1"
       id="path4554"
       sodipodi:type="arc"
       sodipodi:cx="5857.3877"
       sodipodi:cy="-3457.769"
       sodipodi:rx="6790.3838"
       sodipodi:ry="6780.6323"
       sodipodi:start="3.4470253"
       sodipodi:end="5.9341195"
       sodipodi:open="true"
       d="M -618.71637,-5496.7447 A 6790.3838,6780.6323 0 0 1 5709.2565,-10236.788 6790.3838,6780.6323 0 0 1 12238.261,-5776.8816"
       transform="scale(1,-1)" />
    <text
       xml:space="preserve"
       style="font-style:normal;font-variant:normal;font-weight:bold;font-stretch:normal;font-size:1333.33337402px;line-height:1.25;font-family:Arial;-inkscape-font-specification:'Arial, Bold';font-variant-ligatures:normal;font-variant-caps:normal;font-variant-numeric:normal;font-feature-settings:normal;text-align:start;letter-spacing:0.2px;word-spacing:0px;writing-mode:lr-tb;text-anchor:start;fill:#000000;fill-opacity:1;stroke:none;stroke-width:10"
       id="text4558"><textPath
         xlink:href="#path4554"
         id="textPath4560"
         style="font-style:normal;font-variant:normal;font-weight:bold;font-stretch:normal;font-size:1400px;font-family:Arial;-inkscape-font-specification:'Arial, Bold';font-variant-ligatures:normal;font-variant-caps:normal;font-variant-numeric:normal;font-feature-settings:normal;text-align:start;letter-spacing:75px;writing-mode:lr-tb;text-anchor:start;stroke-width:10">STINGRAYS SWIMMING</textPath></text>
  </g>
</svg>
