<?xml version="1.0" encoding="UTF-8" standalone="no"?>
<svg
   xmlns:dc="http://purl.org/dc/elements/1.1/"
   xmlns:cc="http://creativecommons.org/ns#"
   xmlns:rdf="http://www.w3.org/1999/02/22-rdf-syntax-ns#"
   xmlns:svg="http://www.w3.org/2000/svg"
   xmlns="http://www.w3.org/2000/svg"
   xmlns:sodipodi="http://sodipodi.sourceforge.net/DTD/sodipodi-0.dtd"
   xmlns:inkscape="http://www.inkscape.org/namespaces/inkscape"
   id="svg24966"
   width="1166.3085"
   height="366.51205"
   preserveAspectRatio="xMidYMid meet"
   version="1.0"
   viewBox="0 0 11663.085 2335.5726"
   inkscape:version="0.92.2 (5c3e80d, 2017-08-06)"
   sodipodi:docname="stingrayText.svg">
  <sodipodi:namedview
     id="namedview287"
     bordercolor="#666666"
     borderopacity="1"
     gridtolerance="10"
     guidetolerance="10"
     objecttolerance="10"
     pagecolor="#ffffff"
     showgrid="false"
     inkscape:current-layer="g265"
     inkscape:cx="1010.5512"
     inkscape:cy="306.96145"
     inkscape:pageopacity="0"
     inkscape:pageshadow="2"
     inkscape:window-height="1001"
     inkscape:window-maximized="1"
     inkscape:window-width="1920"
     inkscape:window-x="-9"
     inkscape:window-y="-9"
     inkscape:zoom="7.8162034"
     inkscape:measure-start="0,281.533"
     inkscape:measure-end="32.9299,169.716" />
  <metadata
     id="metadata24972">
    <rdf:RDF>
      <cc:Work
         rdf:about="">
        <dc:format>
                    image/svg+xml
                </dc:format>
        <dc:type
           rdf:resource="http://purl.org/dc/dcmitype/StillImage" />
        <dc:title />
      </cc:Work>
    </rdf:RDF>
  </metadata>
  <defs
     id="defs24970" />
  <g
     id="layer2"
     style="display:inline"
     inkscape:groupmode="layer"
     inkscape:label="stingrayText">
    <g
       id="whiteStingraysText"
       style="display:inline;fill:#ffffff;stroke:none"
       inkscape:groupmode="layer"
       inkscape:label="white outline">
      <path
         id="path3823"
         d="m 3266.6564,-563.15746 c -237.6472,52.357 -470.942,123.822 -706.546,184.935 -296.9326,83.147 -597.1634,155.755 -890.2634,251.836 -196.5348,85.818002 -364.1453,232.657 -491.4352,403.919 -189.2733,279.904 -371.32295,565.208 -538.37365,858.98296 -64.5341,119.332 -130.5101,250.728 -114.4122,390.11 27.3693,32.389 61.8806,66.564 108.546,55.015 148.8208,-11.85 285.86955,-79.456 426.96835,-123.04 141.2471,-45.059 279.0087,-105.177 424.7341,-134.013 31.3036,-3.262 10.7324,39.844 5.2866,54.153 -51.8251,107.262 -109.6981,214.094 -184.0009,307.092 -61.4549,57.589 -149.1919,73.477 -223.976,107.232 -139.1353,47.826 -277.19875,104.702 -422.16625,130.794 -63.1807,13.448 -91.5082,-57.521 -118.2157,-101.046 -17.8744,-20.975 -26.3075,-69.877 -59.639,-69.469 -41.4887,45.798 -54.0304,112.212 -81.142,167.009 -100.8153,255.901 -202.6121,512.266 -294.7192,771.047 17.2667,23.911 53.247,-7.37 75.5114,-9.697 405.075,-161.132 811.11985,-319.518 1223.45405,-461.203 211.7823,-71.155 408.8074,-195.598 543.3511,-376.432 123.2034,-163.547 203.9077,-353.653 302.635,-531.985 68.6661,-143.555 161.3932,-279.981 194.1944,-437.76496 15.1646,-95.635 -9.3766,-207.938 -97.5487,-261.322 -97.3759,-62.7 -219.6019,-21.508 -322.4828,2.712 -106.0606,23.773 -210.4424,66.122 -317.4284,75.203 -34.5696,1.422 -33.1791,-36.33 -18.9132,-57.235 52.0118,-109.265 107.987,-222.472 196.3695,-306.724 96.6574,-61.932 214.5399,-76.671 322.6217,-110.838 170.1081,-41.204 337.389,-98.44 511.581,-119.584 64.4156,-9.418998 74.9274,69.95 116.1226,100.065 35.5471,11.488 45.1743,-44.336 63.7011,-63.286 128.2966,-218.059998 257.3322,-436.044 376.0805,-659.431 6.4775,-13.134 15.6166,-39.829 -9.8948,-37.035 z m -104.8708,87.909 c -99.5793,192.947 -204.0252,386.313002 -319.5173,570.788 -24.7843,-21.838998 -49.8812,-54.095998 -86.311,-62.661998 -72.8921,-24.8810002 -146.5311,17.893 -218.3167,28.334 -218.9622,57.170998 -439.9423,109.707998 -654.0234,183.315998 -136.7146,89.908 -204.5595,247.085 -268.9266,391.113 -30.0934,57.81 33.8846,117.286 91.2159,109.776 174.7947,-13.403 337.2368,-94.858 512.0133,-106.166 83.9133,-4.055 169.3405,65.075 161.0737,153.378 5.2641,98.749 -33.8807,190.409 -80.9242,275.02496 -117.2743,226.994 -226.5238,458.932 -362.773,675.4 -99.1619,159.021 -248.8818,281.873 -420.8087,355.062 -231.8852,100.205 -475.0728,171.899 -710.06845,264.885 -202.4011,76.108 -403.478,156.491 -605.5762,232.532 93.3711,-235.92 176.9679,-475.917 276.4063,-709.314 4.7929,-13.756 19.3361,-33.592 25.7528,-7.055 26.0994,61.953 86.2254,112.586 156.663,104.008 133.1751,-13.51 256.21665,-73.241 382.80165,-112.98 87.0415,-35.726 182.2286,-56.575 262.3114,-106.868 93.8719,-83.718 151.098,-199.517 213.4589,-306.851 28.7744,-54.622 63.88,-135.784 13.0048,-187.847 -55.5041,-28.778 -120.3953,5.072 -176.3612,16.732 -238.4162,72.716 -470.41011,168.214 -710.46765,234.016 -52.3893,12.561 -72.2714,-49.228 -62.1535,-89.788 31.1107,-163.621 130.403,-303.98 211.7448,-447.18496 144.16995,-231.737 283.27405,-467.596 440.74685,-690.83 151.1195,-198.009 364.0653,-350.676998 606.2813,-414.152 440.2064,-122.079 880.5315,-244.303 1323.7568,-354.929 z"
         inkscape:connector-curvature="0" />
      <path
         id="path3825"
         d="m 3866.3381,33.160542 c -341.2177,51.886 -680.721,115.836998 -1019.2496,183.095998 -50.1158,0.49 -56.5486,62.225 -84.4027,92.29 -99.8874,164.025 -203.1437,327.063 -300.7738,491.772 7.2598,30.565 41.1995,-8.823 53.7712,-17.825 80.741,-73.755 156.7097,-155.682 261.6971,-194.33 41.2623,-17.131 90.7197,-43.516 131.0842,-48.022 C 2753.16,886.52754 2586.5844,1227.9885 2419,1568.6415 c -52.134,100.422 -94.5142,210.601 -183.5659,285.417 -43.8974,47.485 -102.6271,80.018 -144.8458,128.732 4.4501,34.16 49.5355,5.169 69.6412,4.069 212.0133,-55.598 423.9584,-112.574 635.2929,-170.076 12.4054,-52.95 -2.6596,-112.656 23.2788,-164.173 112.0309,-268.595 243.7136,-530.405 365.1004,-795.54996 64.4547,-131.65 121.3986,-268.176 193.0253,-395.696 50.7109,-10.991 108.2628,-12.13 157.6102,6.206 34.1846,12.538 40.1395,66.63 76.8543,69.08 68.0518,-90.66 115.3171,-196.466 171.272,-295.135 31.6513,-66.715 74.9165,-130.319 95.5343,-201.202998 -0.888,-5.571 -6.8577,-7.943 -11.8596,-7.152 z m -96.3047,75.849998 c -53.0076,108.499 -104.9129,219.945 -170.3885,320.592 -32.3196,-18.612 -65.4324,-39.639 -105.1535,-35.607 -50.2407,1.659 -104.4753,-10.121 -152.7899,5.272 -54.594,66.109 -81.3489,151.379 -122.4943,226.075 -155.1645,325.439 -312.5997,650.14196 -454.0487,981.81296 -23.4619,48.333 -24.5112,104.797 -46.2219,152.69 -114.9973,45.996 -238.9156,68.539 -358.2909,102.228 -11.7139,-1.277 -60.9108,22.859 -49.6153,3.392 117.9825,-192.723 210.3871,-399.861 314.0057,-600.435 129.1001,-264.915 264.7675,-527.08596 381.6838,-797.64396 10.1678,-34.089 -38.4371,-16.334 -54.096,-12.354 -112.6875,26.039 -235.919,72.188 -318.5706,144.959 72.522,-110.204 137.2067,-227.496 224.4849,-326.797 135.5487,-35.479 276.7486,-54.43 414.5794,-82.385 166.2856,-29.216 331.8458,-64.19 499.0078,-86.746 z"
         inkscape:connector-curvature="0" />
      <path
         id="path3827"
         d="m 5877.1564,-208.08946 c -121.6992,8.8 -243.9129,19.546 -364.0575,40.76 -22.8353,20.959 -3.7028,57.893 -13.4897,84.755002 -30.4893,118.362 -91.8224,225.676998 -141.8302,336.633998 -88.7302,181.898 -174.7547,365.231 -268.6291,544.544 49.6795,-297.468 112.6742,-593.718 164.2221,-891.307998 5.2289,-19.719002 0.232,-53.401002 -27.327,-48.467002 -214.8333,27.692 -430.961,50.174002 -646.1737,77.074002 -15.8908,20.024 -4.9685,54.053999 -9.857,79.791 2.4243,81.617998 -49.8705,150.436998 -79.9104,223.394998 -185.497,379.334 -365.2206,761.60396 -560.9146,1135.78396 -40.9465,61.626 -96.6711,113.994 -151.0379,162.77 -14.796,17.15 -24.4633,-8.462 -21.7397,-21.2 -1.8961,-73.869 42.6585,-138.289 68.8711,-204.78 172.4896,-365.32596 351.0038,-727.94796 526.8665,-1091.70496 45.4309,-93.519 109.8434,-176.193998 180.4882,-252.053998 14.9605,-10.06 7.2901,-31.574 -11.2185,-26.554 -183.3317,23.958 -367.5883,42.821999 -550.2591,71.006 -16.308,17.049 -8.5945,47.582 -14.2859,69.741 -8.071,102.794998 -67.748,191.243998 -108.5459,283.231998 -189.0486,376.226 -375.4867,753.93696 -573.9054,1125.36096 -46.6283,95.499 -138.8394,155.331 -206.3347,234.165 -3.7031,24.621 31.2509,14.119 44.5688,11.884 349.8151,-79.148 700.0338,-156.833 1051.0382,-229.845 15.2618,-7.555 54.4538,-3.365 49.1203,-28.853 -9.141,-41.493 -38.9535,-86.057 -13.6678,-127.735 131.2494,-294.147 275.1941,-582.54296 417.3607,-871.58696 14.9464,-29.871 29.9011,-59.741 45.2843,-89.391 -45.5778,331.179 -105.217,661.86896 -150.3887,993.69896 -2.4074,17.429 -6.3719,51.956 21.08,48.257 170.4615,-19.548 338.8583,-54.588 508.289,-81.502 37.6445,-58.111 64.0575,-125.656 97.3984,-187.382 195.1866,-387.65296 385.96,-777.59696 586.1076,-1162.70795854 34.1047,-69.33999946 87.1453,-126.29600146 151.4582,-168.37000146 10.1583,-7.247 42.2418,-26.905 19.2409,-38.092 -5.8282,-1.338 -11.8688,-1.486 -17.8215,-1.319 z m -125.2507,64.959 c -101.1685,76.836002 -148.8107,199.586002 -202.2528,310.349 -171.3339,363.761 -348.6485,725.356 -540.0253,1079.06196 -9.5461,20.801 -25.6768,39.06 -50.8059,38.882 -119.419,24.248 -238.5045,53.518 -359.8795,66.269 -14.4336,0.04 -40.1105,5.146 -28.6432,-17.669 66.5083,-409.55796 132.0244,-819.36196 197.5698,-1228.99396 9.5708,-16.129998 -8.4355,-38.362998 -21.3265,-19.496998 -195.9507,389.946998 -387.0842,782.360998 -579.8611,1173.905958 -21.812,50.369 -59.4658,103.259 -40.165,160.811 1.8778,13.373 18.243,37.172 -6.277,35.693 -75.4993,17.043 -154.5452,30.81 -228.6916,46.908 50.6251,-65.99 93.6343,-137.321 131.549,-211.39 191.9579,-362.86996 372.2103,-731.93996 545.0662,-1104.25896 27.4032,-61.907 60.3748,-124.445998 61.1451,-193.8659985 179.0227,-15.0709995 357.1135,-43.1969995 536.5881,-50.0839995 14.9633,2.864 2.0931,31.378 2.4866,44.688999 -60.487,351.097999 -131.0858,700.341999 -198.1172,1050.232959 -6.2403,11.548 -0.712,36.504 15.5435,24.815 115.0329,-138.65196 182.5038,-308.27496 263.6586,-467.38196 94.6558,-198.438 197.1669,-393.371 283.502,-595.64399854 18.9484,-38.18199946 17.3941,-83.55299946 26.0876,-122.28200146 64.5062,-11.392 129.5309,-18.638 194.7177,-22.469 z M 4373.1593,18.093542 c 17.4663,0.192 -5.148,24.21 -6.5843,31.684 -98.3291,170.746998 -176.9912,353.340998 -265.7667,529.598998 -127.7356,265.699 -262.0508,528.28696 -385.7664,795.88196 -24.8805,45.492 -25.8391,97.159 -30.7161,147.251 -6.4752,25.107 -42.6762,18.335 -61.4808,28.317 -125.4363,30.927 -251.9002,56.694 -378.1708,84.11 88.8171,-124.047 151.2153,-264.426 223.5031,-398.235 175.335,-344.86096 354.2198,-688.14696 516.816,-1039.26296 21.4505,-42.226 22.6962,-91.503 39.9011,-134.166998 102.6988,-22.38 208.8755,-28.793 313.3193,-42.03 11.6393,-1.024 23.237,-3.09 34.9456,-3.148 z"
         inkscape:connector-curvature="0" />
      <path
         id="path3829"
         d="m 6995.226,-305.65346 c -278.147,18.716 -556.3197,39.733 -833.5145,69.587 -140.8852,27.403 -245.1573,142.142002 -318.7889,258.248002 -112.7715,190.401998 -200.8934,394.026998 -299.8987,591.661998 -76.4062,162.493 -161.1144,321.438 -228.9306,487.77596 -15.3655,51.538 -21.2251,120.732 30.0957,154.887 51.8877,38.883 121.6866,20.805 181.1094,17.731 130.7515,-19.639 263.226,-29.396 392.5002,-57.663 26.7952,-6.738 51.6214,-20.366 71.4446,-39.651 -6.12,19.659 9.6889,36.725 29.8259,31.165 113.3351,-13.629 227.8506,-22.726 339.6748,-46.124 43.3008,-8.172 36.2922,-60.972 50.2503,-92.35 46.5246,-148.18296 124.7511,-283.54296 193.5583,-422.25996 45.4025,-90.214 102.8635,-176.934 188.0285,-234.534 14.54,-15.339 42.846,-26.03 45.511,-48.751 -15.416,-19.328 -46.493,-2.88 -67.401,-5.035 -205.3998,23.593 -411.6184,44.114 -615.2356,79.839 -55.0553,14.3 -68.0409,78.785 -98.3234,119.184 -33.5967,62.957 -77.231,122.918 -96.5342,192.168 0.237,23.958 28.6807,9.108 38.3518,-0.05 36.2605,-22.44 80.8484,-55.696 124.7608,-43.569 -37.3055,67.983 -70.888,141.651 -129.5261,194.084 -49.3137,36.649 -114.6122,46.253 -174.5597,43.464 122.2749,-246.521 248.1902,-492.282 378.6505,-733.883 33.0209,-60.159 77.5717,-125.344998 150.9184,-136.694998 111.0829,-19.175 227.7311,-35.348 342.2375,-34.364 52.653,2.464 80.438,55.279998 103.331,95.614998 21.229,17.413 34.742,-19.219 43.59,-32.794 69.434,-128.628998 136.822,-258.799 197.396,-391.755 0.934,-20.129 -26.04,-15.347 -38.522,-15.932 z m -84.44,66.638 c 29.148,-6.719 8.075,19.657 2.619,34.624 -36.301,75.082 -70.037,151.972002 -112.606,223.674002 -36.821,-14.9310002 -66.258,-50.95 -109.564,-42.457 -131.014,-2.44 -262.5085,12.684999 -390.6389,39.51 -75.3852,14.559 -118.825,83.736998 -154.6472,145.119998 -129.4096,236.767 -256.4115,475.095 -373.5829,718.179 -14.1143,31.21 -25.7736,72.929 -6.5369,103.881 34.1362,20.26696 77.6519,6.353 115.3698,8.86796 60.7563,0.77 125.055,-16.62196 163.478,-66.98096 66.2484,-84.377 124.505,-176.393 168.1104,-274.469 9.9586,-22.448 -18.4599,-31.541 -35.3733,-24.219 -44.0109,4.844 -93.2121,21.609 -131.7375,29.866 29.177,-57.312 60.9883,-114.768 102.4914,-163.972 162.396,-27.097 327.1187,-45.206 490.4375,-60.672 16.8066,0.836 -13.5584,28.58 -16.6621,40.111 -97.5796,161.46 -177.1867,333.24 -253.5498,505.541 -20.6769,38.84996 -25.4946,86.14696 -51.9554,121.38196 -48.7832,19.814 -104.3407,17.211 -155.997,25.339 -28.4919,2.629 -57.1282,5.602 -85.3586,6.426 22.0197,-72.437 58.8156,-140.497 78.3829,-213.22896 -6.848,-23.375 -30.7251,0.529 -37.2424,11.855 -63.4804,79.78196 -122.1837,170.92596 -215.088,219.42596 -105.356,26.418 -214.6533,34.324 -321.9745,51.301 -57.9284,4.213 -115.5862,23.428 -173.5006,14.257 -26.8384,-4.356 -55.274,-23.328 -49.5066,-54.454 7.9484,-67.997 49.4872,-126.273 74.8358,-188.64296 147.0021,-305.821 293.3937,-612.133 451.3548,-912.474998 65.1935,-112.029 165.1634,-218.329002 299.7433,-239.023002 189.2983,-26.913 381.1667,-37.175 571.9108,-51.673 52.318,-3.158 104.347,-6.578 156.788,-7.093 z"
         style="fill:#ffffff;stroke-width:5.11757421"
         inkscape:connector-curvature="0" />
      <path
         id="path3831"
         d="m 8693.46,-356.16946 c -7.668,75 -16.47,156.8 -67.148,216.088 -221.986,292.903 -452.671,579.104 -681.245,866.852 -74.296,86.959 -139.635,184.773 -232.442,253.536 -11.635,12.43296 -30.647,14.80596 -33.355,-6.656 -25.06,-48.952 -25.069,-104.316 -12.675,-156.312 14.534,-83.159 28.767,-166.481 47.889,-248.726 63.075,-9.185 128.285,-32.408 169.779,-84.21 70.554,-87.535 111.607,-194.268 164.049,-292.775 51.497,-111.456998 116.581,-219.344998 143.236,-340.325 7.343,-55.207 14.124,-126.524 -38.052,-162.963 -42.407,-46.117 -108.849,-36.542 -165.002,-37.488 -278.767,3.476 -557.52,14.901 -835.724,32.74 -17.292,-1.848 -41.511,5.926 -34.464,27.957 15.486,71.103 16.419,146.033 -18.181,211.290002 -127.509,274.750998 -272.985,541.310998 -413.713,809.722998 -69.0024,132.228 -146.5329,260.62096 -240.2806,377.17096 -8.3295,10.62 -31.0096,36.933 -5.3938,41.703 117.1593,1.157 233.8864,-16.854 350.6124,-26.007 59.837,-8.727 122.906,-7.245 180.136,-27.947 25.878,-19.186 9.758,-57.635 23.299,-83.232 28.097,-99.00996 91.789,-182.23396 140.071,-271.81796 31.774,-46.797 52.769,-103.532 95.807,-141.425 11.611,-7.556 41.548,-12.761 35.403,10.315 -20.592,152.987 -55.594,304.082 -75.354,457.18396 9.256,22.547 42.691,8.996 61.247,12.385 254.094,-9.941 507.779,-28.708 761.627,-43.45 30.365,2.379 59.628,-5.643 46.76,-42.559 -6.495,-41.15396 6.267,-79.57896 31.049,-112.16796 57.801,-89.334 123.946,-172.844 190.15,-256.009 118.083,-8.652 236.941,-4.561 355.451,-3.498 -2.288,68.834 -23.523,137.52 -40.61,204.243 -23.8,68.618 -89.122,111.088 -125.151,171.84796 0.963,26.091 38.27,15.033 55.024,18.442 185.84,0.971 372.068,2.191 557.616,-8.496 20.893,-10.324 -3.427,-37.02696 -6.845,-52.65296 -39.552,-82.782 -5.55,-174.863 2.299,-260.598 49.744,-338.513 107.092,-675.861998 157.233,-1014.31 -22.125,-33.185 -71.076,-24.126 -105.89,-30.174 -143.516,-7.688 -287.31,-7.324 -430.965,-10.507 l -4.662,2.111 z m 100.352,53.804 c 122.013,3.216 244.014,8.581 366.117,7.047 -45.566,342.705002 -119.178,682.205 -159.545,1026.114 -5.585,71.927 -9.798,145.207 0.39,216.797 -125.006,9.56 -251.144,2.107 -376.011,-2.249 -18.26,-0.626 -40.069,-1.615 -18.852,-20.33 51.714,-82.655 75.202,-180.062 92.067,-275.13 1.257,-30.494 14.398,-69.062 -6.537,-95.215 -58.117,-10.616 -119.265,-3.372 -178.445,-5.395 -83.358,2.608 -167.729,-1.279 -250.392,9.873 -48.576,25.747 -74.337,79.335 -109.729,119.347 -55.648,77.498 -119.885,151.109 -159.073,238.803 -9.393,21.486 8.087,43.814 6.447,64.15 -65.02,5.394 -132.461,7.087 -198.686,4.058 87.729,-101.956 171.624,-207.31 253.747,-313.924 209.001,-267.89 424.901,-530.45 629.303,-801.881 36.875,-48.692 68.109,-105.398 69.518,-167.577 11.265,-7.255 27.016,-2.887 39.681,-4.488 z m -811.905,10.006 c 47.617,1.179 110.227,-9.766 140.453,37.962 23.996,55.322 -5.693,115.109 -22.834,168.024002 -66.088,161.172 -146.237,317.671998 -230.276,471.042998 -26.559,49.241 -65.674,98.764 -124.96,106.609 -25.423,10.391 -56.584,5.022 -80.082,18.432 -24.26,50.789 -26.333,109.941 -40.871,164.059 -11.701,76.676 -41.143,152.982 -33.474,231.373 4.921,28.689 14.205,56.573 17.062,85.62896 -117.69,12.746 -235.988,21.931 -354.302,22.81 23.099,-156.50796 60.735,-312.02896 81.201,-469.38796 -1.505,-30.443 -42.95,-17.402 -61.894,-17.449 -42.192,4.658 -96.8,2.668 -119.12,47.185 -76.165,129.023 -158.742,255.495 -218.616,393.224 -13.276,28.17096 -10.365,78.14796 -52.355,78.98196 -112.517,15.816 -226.897,28.251 -339.6495,33.804 153.8495,-222.96896 266.1295,-470.56796 394.2555,-708.39196 81.033,-156.443 164.081,-312.125998 243.612,-469.169998 2.004,-54.081002 0.05,-108.519002 6.817,-162.313002 251.489,-17.823 504.113,-27.094 756.411,-32.292 12.874,-0.04 25.748,-0.09 38.622,-0.132 z"
         style="fill:#ffffff;stroke-width:5.11757421"
         inkscape:connector-curvature="0" />
      <path
         id="path3833"
         d="m 7577.079,-65.437458 c -47.838,0.326 -109.064,-1.674 -135.676,46.987999 -61.36,107.406001 -115.622,218.803999 -167.63,331.002999 2.511,22.161 36.261,7.13 52.043,10.04 85.675,-8.17 172.555,-12.384 256.77,-30.43 67.083,-26.173 90.754,-102.343 121.815,-160.57 20.859,-51.754998 57.17,-112.644998 29.484,-168.443998 -24.72,-36.939 -77.39,-24.676 -115.105,-28.586 -13.9,-0.133 -27.801,-0.07 -41.701,-0.001 z m 36.633,61.5309995 c 23.127,2.866 56.361,-5.429 72.005,15.0130005 -17.886,71.12 -56,135.862998 -92.436,198.935998 -27.272,38.16 -82.173,29.337 -122.6,38.094 -33.224,2.832 -65.849,8.71 -99.165,7.864 38.258,-85.697 81.581,-168.894998 122.662,-253.2499982 39.961,-3.12300034 79.551,-6.5770003 119.534,-6.6570003 z"
         style="fill:#ffffff;stroke-width:5.11757421"
         inkscape:connector-curvature="0" />
      <path
         id="path3835"
         d="m 8811.547,-133.77346 c -19.79,7.757 -30.607,29.189 -45.473,43.462002 -123.968,136.928 -235.89,284.471998 -353.419,427.005998 -19.83,26.433 -44.981,50.45 -57.912,81.201 -0.43,16.505 22.25,12.52 33.139,15.053 111.968,3.649 224.102,3.426 336.131,2.703 17.08,-0.267 10.884,-24.321 15.459,-35.341 27.827,-173.692 58.874,-346.940998 82.41,-521.275 1.158,-6.387 -3.125,-13.637 -10.335,-12.809 z m -75.04,185.092002 c -18.581,108.355998 -36.385,217.414998 -54.914,325.440998 -60.667,6.839 -122.327,3.471 -183.024,2.214 -11.477,-0.537 -22.971,-1.043 -34.393,-2.344 77.132,-102.773 160.696,-200.614 244.523,-297.958998 9.289,-10.545 18.617,-21.062 28.268,-31.28 l -0.297,2.542 z"
         style="fill:#ffffff;stroke-width:2.55878711"
         inkscape:connector-curvature="0" />
      <path
         id="path3837"
         d="m 9358.9,-333.93946 c 2.63,27.996 27.821,52.394 38.772,79.322 23.794,42.096 45.556,86.281 39.895,136.176 -1.902,225.602 -19.963,450.591 -34.807,675.68 -48.121,117.276 -90.299,241.119 -171.799,340.088 -35.314,37.492 -87.848,56.546 -119.603,96.86396 2.519,22.47 36.954,10.437 52.567,15.623 170.422,8.434 341.092,12.898 511.725,12.674 17.225,-16.982 6.782,-50.17996 12.284,-74.33496 9.016,-76.764 52.957,-143.554 81.902,-213.787 41.06,-103.802 125.66,-179.282 197.109,-261.968 188.654,-202.711 371.691,-410.952998 570.611,-603.752 52.876,-55.943 124.176,-88.175 182.389,-137.106 16.006,-21.205 -19.115,-29.292 -34.133,-28.553 -135.122,-11.59 -270.911,-11.265 -406.388,-15.226 -18.336,15.867 -3.64,50.276 -8.077,73.745 6.486,62.232 -41.871,110.286 -76.113,156.402002 -94.356,109.21 -195.526,212.053998 -298.539,313.254998 10.649,-142.163998 31.892,-283.814998 51.196,-425.408 31.57,-33.698 71.503,-61.728 96.424,-100.772 -4.797,-29.503 -45.33,-18.555 -66.397,-23.642 -204.017,-12.175 -408.428,-19.253 -612.83,-18.209 l -4.626,2.19 z m 312.352,49.706 c 79.249,1.861 159.594,-1.46 237.508,11.775 -15.793,44.447 -36.108,88.075 -41.28,135.809 -26.282,165.608002 -33.667,334.264 -58.883,499.52 9.516,24.447 36.827,-5.065 47.578,-14.074 133.481,-128.714 259.809,-264.945998 382.171,-404.231998 45.337,-51.608002 85.659,-111.830002 90.924,-182.300002 1.154,-23.207 34.652,-7.951 50.526,-12.95 64.057,0.575 129.267,-4.702 192.419,8.003 -79.778,56.5 -151.989,123.858 -219.626,194.228002 -188.745,210.491998 -384.203,414.874998 -576.982,621.674998 -49.126,52.523 -66.835,125.283 -98.094,188.468 -23.365,64.252 -64.311,127.754 -56.637,198.818 -119.814,1.117 -239.897,-0.358 -359.259,-9.445 71.724,-105.359 134.876,-217.911 176.818,-338.746 45.04,-136.034 38.478,-281.41 46.571,-422.661 2.002,-129.139998 8.057,-258.732998 0.06,-387.698 -1.668,-27.905 -21.133,-53.08 -25.648,-78.523 68.735,-12.641 141.834,-4.745 211.83,-7.667 z"
         style="fill:#ffffff;stroke-width:5.11757421"
         inkscape:connector-curvature="0" />
      <path
         id="path3839"
         d="m 10910.26,-290.84446 c -91.452,-7.451 -184.029,21.043 -245.424,91.677 -179.26,167.598002 -249.315,412.812 -340.598,632.82 -15.221,55.851 -64.394,140.629 -4.738,186.412 116.157,43.822 246.201,24.636 367.82,37.37 65.632,-14.399 14.483,55.365 8.194,88.618 -50.168,116.137 -91.535,240.856 -169.232,342.02996 -72.305,50.726 -169.379,17.584 -251.694,25.816 -893.988,-19.537 -1789.273,-36.325 -2682.334,20.878 -696.456,45.839 -1393.326,101.884 -2083.869,205.396 -638.3953,104.968 -1272.8012,234.635 -1903.2761,379.471 -259.8133,61.074 -516.3618,135.444 -768.9014,221.774 -56.9416,-81.792 -165.9027,-49.752 -243.7045,-23.489 -350.2389,119.653 -663.2404,381.556 -790.1854,735.732 -11.4774,49.002 -53.6025,106.455 -31.8649,155.806 49.3905,-3.474 84.4469,-56.839 130.3982,-75.465 195.2856,-113.686 421.2488,-152.834 644.0102,-167.096 227.6224,-27.288 459.8177,-27.317 684.3401,-76.508 65.0867,-21.493 167.3107,-62.243 152.9674,-148.09 -31.0576,-92.522 -134.4163,-130.91 -212.1994,-175.197 516.4828,-149.875 1042.4623,-268.29 1572.8545,-357.67 613.8391,-109.219 1230.2392,-207.245 1852.5018,-252.86 1104.9045,-88.156 2214.4335,-137.059 3322.9285,-101.901 240.411,-0.669 482.403,23.727 721.974,-2.81 180.611,-28.985 292.315,-194.954 355.305,-352.819 81.634,-217.96696 191.893,-424.60196 266.46,-645.08796 14.788,-65.789 36.13,-151.182 -30.629,-196.775 -42.999,-67.794 -134.572,-32.477 -201.642,-48.29 -59.541,-7.086 -127.196,-1.825 -181.592,-21.188 19.914,-49.096 40.311,-105.783998 80.881,-140.293998 133.839,-9.203 271.233,-1.621 403.269,17.492 41.587,-2.117 65.894,70.530998 106.549,39.640998 54.164,-111.0469985 97.77,-230.098 129.879,-349.914 -6.181,-35.345 -66.372,-13.836 -91.069,-24.877 -188.802,-12.655 -378.131,-20.484 -567.379,-20.602 z m 37.622,57.173 c 178.484,1.357 357.525,3.84 535.047,21.61 -24.479,77.999 -48.694,166.888002 -83.641,235.248002 -85.319,-38.365001 -185.581,-30.1240005 -277.269,-41.552001 -78.213,1.936 -164.356,-20.311999 -238.526,9.9470005 -61.708,59.0340005 -107.696,144.7889985 -110.328,230.9709985 15.366,41.881 77.999,20.393 111.907,31.905 96.597,14.585 203.017,-3.062 293.521,38.222 65.846,54.609 12.357,149.783 -10.347,213.036 -100.234,234.858 -191.711,475.264 -309.521,701.66996 -63.17,116.606 -189.983,192.071 -322.668,187.291 -546.42,9.783 -1092.832,-22.028 -1639.36,-10.942 -1016.357,13.71 -2033.506,63.784 -3043.1998,183.701 -850.8684,112.454 -1698.3419,262.794 -2528.3743,482.811 -103.3829,33.91 -218.4185,50.015 -309.5005,111.887 -11.1334,33.495 47.5701,32.171 68.3477,42.639 77.9694,32.384 172.5026,60.388 220.8552,134.657 17.1499,56.588 -62.9951,74.164 -102.7313,85.899 -367.2634,81.244 -756.7501,41.584 -1120.4782,150.302 -77.4632,21.22 -157.3075,69.648 -228.9821,87.805 98.7466,-250.825 292.5607,-461.45 530.2687,-586.942 111.2987,-54.633 223.3537,-129.787 350.7137,-134.796 40.827,0.17 42.2395,45.36 47.6774,73.525 47.5582,10.962 95.101,-32.084 142.2526,-40.82 705.7658,-240.599 1443.9353,-361.045 2173.3204,-506.73 752.0271,-147.326 1517.9082,-205.285 2281.2275,-262.306 473.463,-36.097 948.109,-52.307 1422.985,-50.067 574.619,-4.536 1150.386,7.988 1724.144,12.665 120.154,-106.665 163.039,-269.03896 225.261,-411.39296 9.377,-43.892 49.011,-102.745 16.784,-143.964 -134.862,-34.246 -280.197,-14.565 -413.784,-48.657 -12.988,-62.963 34.923,-125.626 50.972,-185.664 89.008,-211.363 164.199,-449.798998 359.913,-588.469 56.821,-28.009 121.696,-21.143 183.513,-23.489 z"
         style="fill:#ffffff;stroke-width:10.23514843"
         inkscape:connector-curvature="0" />
    </g>
    <g
       id="g265"
       style="display:inline;fill:#0261aa;stroke:none"
       inkscape:groupmode="layer"
       inkscape:label="blue">
      <path
         id="path24467"
         d="m 10858.418,-243.32046 c -6.821,0.03 -12.035,0.125 -15.41,0.312 -125,9 -271.016,184.008002 -376.016,453.008 -27,69 -56.992,142.996 -66.992,165.996 -59,128 -72.008,185 -48.008,200 7,4 100.012,11.996 207.012,15.996 117,6 201.004,14 209.004,20 27,23 -4.004,121.012 -109.004,352.012 -63,138.99996 -105.004,190.99196 -164.004,201.99196 -22,4 -229,1.008 -460,-6.992 -506,-17 -1576,-17 -1945,0 -990,45 -2067,143.992 -2685,246.992 -373,62 -1411,270.004 -1720,344.004 -305,73 -666.0078,178.996 -823.0078,240.996 -40,16 -74.9922,29.004 -76.9922,29.004 -3,0 -5,-13 -5,-30 0,-41 -35.9922,-64.004 -86.9922,-54.004 -97,18 -301.0078,118 -458.0078,225 -152,103 -308.0039,298.012 -374.0039,467.012 -11,28 -18.9922,51.992 -16.9922,51.992 2,0 45.9883,-20 97.9883,-45 166,-79 329.0078,-114.004 628.0078,-134.004 463,-32 616.0039,-51.988 699.0039,-92.988 63,-31 66.0039,-62.008 14.0039,-108.008 -44,-39 -168,-98.008 -225,-108.008 -135,-22.997 34.9922,-84.992 621.9922,-226.992 371,-90 385,-93 740,-160 980,-185 1454,-252.003 2235,-314.003 1212,-97 2277,-125.993 3395,-91.993 495,15 557.992,11.996 656.992,-34.004 100,-45 180.012,-156.996 252.012,-350.996 16,-43.99996 74.004,-180.99996 129.004,-304.99996 115,-257 139.996,-331.996 125.996,-380.996 -15,-54 -48.996,-64.011 -245.996,-72.011 -193,-8 -205.004,-11.989 -194.004,-67.989 10,-49 76.988,-169.014998 107.988,-191.0149985 25,-18.9999995 36,-18.9999995 250,-10.0000005 163,7.0000005 230.821,19.3360008 248.821,30.336001 14,8 21.37,20.86 24.37,14.86 2,-5 24.821,-76.189 48.821,-137.189002 l 42.988,-110 -35.996,-5.996 c -36.562,-6.562 -500.262,-22.793 -602.578,-22.324 z"
         style="stroke-width:1"
         inkscape:connector-curvature="0"
         sodipodi:nodetypes="ccccccccccccccsscccsccccccccccccccccccccccc" />
      <path
         id="path24469"
         d="m 3175.9961,-486.99246 c -7,-7 -1383.9961,365.985 -1455.9961,393.985002 -208,82.999999 -386.0078,227.999998 -533.0078,434.999998 -42,60 -413.98445,653.00696 -468.98445,748.00696 -14,25 -46.0156,86 -71.0156,135 -106,211 -102,321 10,300 21,-3 198.00784,-62.992 393.00785,-131.992 375,-133 445,-150.008 480,-118.008 25,23 27.0039,93.008 4.0039,138.008 -50,98 -161.0078,277 -193.0078,310 -42,44 -73.9961,62.989 -150.9961,87.989 -30,9 -143,50.003 -250,89.003 -293.00005,108 -361.00785,107 -428.00785,-10 l -28.9844,-50 -146.0156,379.004 c -81,209 -146.9922,382 -146.9922,385 0,2 51.0078,-15.996 113.0078,-40.996 466,-184 727.99225,-283.011 951.99225,-357.011 286,-96 441.9922,-179.989 566.9922,-307.989 95,-97 155.0078,-194.008 318.0078,-508.008 78,-151 157,-302 175,-335 50,-89.99996 78.0078,-193.99596 73.0078,-265.99596 -5,-69 -26.0039,-102.996 -84.0039,-135.996 -62,-36 -118.0039,-30.008 -339.0039,31.992 -227,64 -291,70 -330,30 -14,-13 -25,-33.007 -25,-43.007 0,-26 85.0078,-205.993 123.0078,-261.993 43,-62 79.7241,-112.967 152.9883,-160.996 76.3818,-35.794 772.0117,-219.003998 822.0117,-219.003998 48,0 99.9844,25.004 113.9844,54.004 6,14.999998 15.0039,25.995998 19.0039,25.995998 9,0 341,-590.992 335,-596.992 z"
         style="stroke-width:1"
         inkscape:connector-curvature="0"
         sodipodi:nodetypes="sccccccccccccccscccccccccsccscss" />
      <path
         id="path24471"
         d="m 3786.9922,93.00754 c -4,-3 -909.9883,162.996 -932.9883,170.996 -9,3 -108.9104,142.366 -244.9104,364.366 -4,7 82.8987,-74.373 122.8987,-92.373 80,-37 264.0039,-93.004 274.0039,-84.004 11,11 -615.9922,1289.01496 -666.9922,1361.01496 -27,37 -49.0039,68.996 -49.0039,70.996 0,2 39.0078,-7 88.0078,-20 48,-13 140.9922,-38 206.9922,-55 66,-17 126.9961,-35 135.9961,-40 12,-6 17.9961,-25.996 20.9961,-65.996 3,-51 40.0078,-136.011 293.0078,-677.011 159,-339.99996 295.0078,-620.98896 303.0078,-622.98896 7,-3 55,-6.011 105,-7.011 82,-1 96,2.007 125,23.007 18,13 34.9961,22 35.9961,20 11,-12 184.9883,-342.996 182.9883,-345.996 z"
         style="stroke-width:1"
         inkscape:connector-curvature="0"
         sodipodi:nodetypes="ccccccscscccccccc" />
      <path
         id="path24473"
         d="m 3230,1643.9995 c 0,-2 20,-30 44,-61 27,-35 179,-326 384,-732.99996 288,-572 341,-684 347,-733 4,-30.999998 10,-58.999998 14,-60.999998 11,-7 350,-48.0000002 366,-44 11,2 7,13 -17,48 -17,25 -50,85.999998 -73,134.999998 -36,76 -307,632 -539,1104.99996 -53,109 -61,132 -61,183 0,53 -2,58 -25,64 -88,22 -440,100 -440,97 z"
         inkscape:connector-curvature="0" />
      <path
         id="path24475"
         d="m 3879.2946,1506.3525 c 0,-6 37.4703,-48.353 58.4703,-75.353 20,-28 190.2351,-344 365.2351,-702.99996 280,-577 317,-658.999998 317,-700.999998 0,-46.000001 1,-47 25,-41.000001 185.4919,-20.034999 367.4126,-40.053999 526,-54.999999 11,5 16,15 13,21 -75.1614,383.964998 -132.95,732.857998 -210,1086.999958 -6,21 -4,23 10,18 64.4587,-81.54896 105.7476,-155.43696 135,-208.99996 54,-112 164,-336 243,-498 80,-163 153,-316.999998 163,-342.9999982 21.4437,-60.2349998 19.2028,-60.9329998 23,-100.9999998 l 4,-38.000002 c 63.2709,-7.44 105.3079,-9.908 166.3794,-18.284 44.854,-1.237 82.564,-19.326 -19.3794,60.284002 -42.4269,63.118 -47.2607,61.743 -110,185.999998 -89,199 -132,287 -307,638 -106,214 -199,393.99996 -205,400.99996 -7,6 -28,46 -47,88 -31,67 -34.3813,56.907 -57,70 -45.6616,1.796 -411.7319,88.715 -413,62 72.7719,-427.44596 137.6761,-878.12596 207,-1271.999958 -1.5233,-7 -0.4098,-15.646 -6,-13 -6.333,2.998 -5.1197,8.548 -11,19 -208.2406,425.659998 -465.2533,943.910958 -618.0809,1252.396958 -10.8382,51.75 3.3017,96.977 11.397,107.596 8.572,10 -36.5025,19.141 -60.6688,21.64 -50.0531,10.705 -122.2074,22.655 -151.0175,30.21 -16.3327,5.382 -52.3352,13.51 -52.3352,5.51 z"
         inkscape:connector-curvature="0"
         sodipodi:nodetypes="sccscccccccccccccccccccccccccs" />
      <path
         id="path24477"
         d="m 5392,1217.9995 c -43,-12 -56,-44 -38,-95 26,-72 474,-987.99996 520,-1064.999958 90,-149 183,-223.000002 306,-246.000002 79,-16 748,-67 757,-59 5,5 -114,251.0000018 -133,276.000002 -2,2 -17,-7 -34,-19.0000002 C 6718,-27.000458 6683,-29.000458 6482,-6.0004585 6268,17.999542 6249,25.999542 6181,114.99954 c -38,51 -406,756 -417,800 -3,14 -3,36 0,50 6,24 9,25 87,25 92,0 138,-16 187,-63 33,-32 172,-263 172,-287 0,-8 -12,-10 -37,-6 -94,13 -138.4767,39.617 -138.4767,34.617 0,-17 96.0467,-179.617 109.0467,-183.617 26,-8 509.43,-66 514.43,-61 2,3 -16,33 -41,68 -54,76 -251,484 -270,557.99996 -9,36 -20,56 -33,60 -23,8 -244,33 -249,28 -2,-1 14,-44 35,-94 20,-49 41,-99.99996 44,-111.99996 14,-42 -10,-22 -61,51 -65,92.99996 -140,162.99996 -189,175.99996 -22,6 -124,22 -229,36 -104,14 -201,27 -215,29 -14,2 -40,-1 -58,-6 z"
         inkscape:connector-curvature="0"
         sodipodi:nodetypes="cccccccccccscscssccccccccccsc" />
      <path
         id="path24479"
         d="m 6531,1083.9995 c 2,-5 28,-43 57,-85 30,-40.99996 92,-148.99996 139,-239.99996 46,-90 136,-261 198,-379 62,-118 143,-275 181,-347.999998 l 69,-133.000002 v -85 c 0,-68 3,-84 15,-84 8,0 201,-9 427,-19 285,-14 424,-16 449,-10 115,32 100,117 -85,487 -60,120 -121,233 -136,251 -35,41 -69,58 -132,66 l -49,7 -39,184 c -38,182 -38,184 -22,241 8,32 15,58.99996 13,59.99996 -4,4 -268,23 -322,23 h -51 l 43,-231.99996 c 24,-128 44,-239 44,-247 0,-11 -14,-13 -72,-7 -40,4 -78,12 -84,19 -13,14 -181,301 -212,363 -12,23 -26,62 -33,86.99996 -13,53 -4,50 -189,67 -63,6 -137,13 -164,16 -26,4 -47,2 -45,-2 z m 962,-782.99996 c 120,-10 129,-17 198,-154 52,-105.999998 61,-156.999999 32,-188.999998 -13,-15 -32,-18 -108,-18 -160,0 -143,-13 -246,190.999998 -49,98 -89,181 -89,184 0,3 26,3 58,0 31,-3 101,-9 155,-14 z"
         inkscape:connector-curvature="0" />
      <path
         id="path24481"
         d="m 7790.049,987.23754 c 0,-5 26.951,-34.238 48.951,-56.238 21,-21 72,-83 112,-137 41,-54 218,-279 394,-499 175,-219.999998 331,-419 345,-442 15,-24 37.676,-57.161 41.676,-79.161 17.617,-26.24 12.727,-43.858 15.324,-63.839 -5,-18 0,-20 44,-20 90.73,4.28 146.363,6.486 212,7.603 l 163,-0.603 -3,34 c -3,32 -6,53 -18,132 -53.579,318.71 -102.656,580.747 -139,867 -9.252,74.075 -17.351,159.804 4,221 0,10 -258,12 -361,3 l -67,-7 29,-41 c 16,-22 35,-70 43,-105 30.668,-71.337 40.632,-153.751 43,-223 4,-23 3,-23 -109,-23 -249,0 -320.911,-4.33 -349.051,25.814 -75.827,90.256 -148.028,190.792 -210.949,280.186 -17,24 -28.381,57.333 -33,72.57 19.521,63.85496 28.947,56.333 -28.574,58.19096 -47.095,2.144 -176.377,8.477 -176.377,-4.52296 z M 8773,152.99954 c 25,-152.99999854282 44,-279 42,-281 -2,-3 -17,11 -32,29.000002 -15,19 -40,47 -55,62 -16,16 -28,29.9999995 -28,32.9999995 C 8599.149,113.49854 8499.248,245.09454 8410,350.99954 c -27,33 -50,64 -50,70 0,5 74,9 183,9 h 184 z"
         inkscape:connector-curvature="0"
         sodipodi:nodetypes="sscccccccccccccccccsccccscccsccsscc" />
      <path
         id="path24483"
         d="m 9250,955.99954 c 0,-4 18,-31 40,-59 22,-29 66,-110 99,-180 59.436,-114.236 81.09,-242.062 81,-337 10.223,-165.384 17.269,-339.020998 14,-497 0,-64 -4,-97 -17,-120 -25,-46 -22,-53 23,-53 474.916,-4.102 440.42,7.487 420,35 l -15,29 c -8,15 -29.217,111.838 -32,151.000002 -4,52 -12,129 -17,174.999998 -10,88 -25,235 -30,248 -18,53 31,10 237,-209 219,-231.999998 256,-281 266,-354 l 6,-40 63,-3 c 56.144,-0.01 147.858,-7.584 199.22,15.207 -77.951,40.84 -154.187,126.487 -211.22,179.793002 -108.586,115.803 -212.189,231.612998 -316,341.999998 0,4 -29,36 -65,70 -36,35 -65,66 -65,71 0,4 -29,35 -65,69 -36.599,27.774 -67.605,68.207 -92.452,98.286 -14.643,16.071 -14.883,14.335 -28.548,35.714 -17.416,41.867 -30.483,64.19 -54,127 -27.674,67.905 -56.699,112.995 -65.118,181.5 -5.949,48.414 64.764,43.809 -197.603,30.618 -97,3 -177.279,-2.118 -177.279,-6.118 z"
         inkscape:connector-curvature="0"
         sodipodi:nodetypes="scccccccccccccccccccsccccscs" />
    </g>
    <g
       id="g266"
       style="display:inline;fill:#000000;stroke:none"
       inkscape:groupmode="layer"
       inkscape:label="black outline">
      <path
         id="path24504"
         d="m 3409.8165,-661.90646 c -83.5975,24.226 -1495.1501,401.413 -1556.1523,416.602 -28.4412,6.397 -195.9922,60.996 -261.9922,95.996 -99.2954,50.725002 -129.408,68.852002 -201.9922,125.996002 -32,25.9999998 -71.0156,59.004 -86.0156,74.004 -97.4419,83.058998 -173.7231,192.211998 -232.9883,279.999998 -136.9143,215.615 -196.44491,308.079 -317.01175,502.012 -13,20 -34.9844,54.992 -48.9844,76.992 -94,147.99996 -187.0039,329.99996 -219.0039,429.99996 -51,157 -14,263.996 105,295.996 64,17 128.0003,1.004 485.00005,-125.996 178,-63 328.9961,-115 335.9961,-115 17,0 -113.9922,225.992 -151.9922,261.992 -16,14 -66.0078,40.016 -113.0078,56.016 -47,16 -123,43.992 -170,61.992 -47,17 -98.00001,35.004 -115.00001,39.004 -16,4 -43.00004,14.988 -60.00004,22.988 -48,24 -122,41.004 -150,34.004 -18,-5 -34.0039,-24.004 -59.0039,-74.004 -29,-57 -111.9961,-168 -130.9961,-175 -7,-2 -465.9961257,1185.016 -460.99609572,1191.016 3.00000002,3 14.99609972,-2.016 115.99609572,-46.016 203,-89 888.00005,-351.992 1140.00005,-436.992 241,-82 271,-94.004 360,-139.004 181,-92 317,-211.996 425,-375.996 55,-83 324.8242,-626.192 424.8242,-831.19196 35.1415,-142.277 12.193,-124.272 73.1055,-166.66 97.891,-85.529 119.4309,-141.183 258.9453,-180.215 1.908,-0.09 3.3086,0.262 4.1211,1.075 3,3 -9,31.996 -25,65.996 -142.2399,323.36996 -362.368,778.39396 -506.9922,1025.99596 -43,67 -77.9961,98 -295.9961,265 -104,79 -187,144.996 -185,145.996 1,2 93.9961,-21.992 205.9961,-51.992 112,-30 206,-52.004 210,-49.004 3,4 -3.0039,12.996 -14.0039,20.996 -250,182 -400,398 -480,690 -15,54 -35.9961,128.008 -45.9961,163.008 -11,35 -19.0039,70.004 -19.0039,79.004 0,14 2.0078,14 18.0078,0 176.0094,-156.003 326.9922,-268.008 361.9922,-268.008 9,0 19.9961,-4.004 25.9961,-9.004 17,-17 186.0078,-60.996 293.0078,-75.996 58,-8 170.9961,-19 250.9961,-25 246,-17 502.0039,-39.996 564.0039,-50.996 32,-6 89.9883,-21.996 127.9883,-35.996 169,-63 204.0156,-191.008 81.0156,-303.008 -34,-32 -42.0117,-43.996 -32.0117,-50.996 15,-9 502.0039,-130.008 699.0039,-173.008 411,-91 1412,-263.996 1825,-315.996 1049,-130 2817,-213.004 3850,-179.004 559,18 872,18 945,0 202,-50 311,-168.996 420,-460.996 15,-41 74,-177.99996 130,-304.99996 56,-126 107.992,-257 116.992,-290 31,-120 -2.984,-220.004 -88.984,-264.004 -33,-17 -73.008,-24.988 -173.008,-32.988 -71,-6 -131.008,-12.008 -133.008,-13.008 -2,-2 1.008,-13.004 8.008,-24.004 11,-21 15.008,-21 183.008,-15 95,3 181.988,7 192.988,10 12,2 46,33.004 75,69.004 29,36 56.004,62.008 59.004,58.008 10,-12 220.992,-555.004 216.992,-559.004 -3,-3 -648.984,-28 -1043.984,-40 -123,-3 -600.441,-22.578 -777.012,-22.012 l -240.996,-5.996 c -288.141,-16.029 -534.838,-20.229 -820.801,-25.996 h -71.191 -83.008 v 65.996 c 0.313,85.648 -0.649,112.861 -10,122.012 0,30 -245.91,354.079 -339.626,471.649 -160.922,203.351 -523.028,690.501 -572.796,686.812 -28.43,-90.891 34.513,-281.387 44.513,-320.387 70.321,-7.03 167.817,-58.886 234.736,-182.946 11.379,-24.712 75.186,-126.144 131.186,-241.144 116,-238.999998 131.985,-282.984998 138.985,-373.985 5,-55 2.008,-74.011 -16.992,-112.011 -27,-56 -60,-81 -135,-100 -51,-14 -108.008,-12.996 -593.008,9.004 -296,14 -606.992,32 -691.992,40 -162.025,6.2 -339.2358,22.252 -585.9966,43.75 -208.4051,22.803 -261.8774,25.013 -409.0039,41.25 -11,4 -102.0078,14.996 -203.0078,25.996 l -182.9883,18.007 5.9961,70 c 6,58.000002 2.9961,80.997002 -14.0039,125.997002 -59.2314,151.170998 -106.3176,261.213998 -168.3203,371.561998 -57.5361,125.352 -60.1828,126.878 -32.6758,6.445 6.6322,-34.167 7.7213,-38.852 15,-73.007 3,-14 7,-36.004 10,-49.004 17.5602,-105.854 23.8904,-140.930998 28.0078,-156.992998 16,-61 50,-269.003002 45,-274.003002 -6,-7 -305.0078,24.996 -938.0078,100.996002 -304,36 -493,65.004 -895,139.004 -280,50.999998 -511.0078,91.999998 -513.0078,89.999998 -2,-2 96.0078,-179.999998 218.0078,-395 121,-216 218.9922,-393.997 216.9922,-395.997 -0.479,-0.479 -1.8188,-0.665 -3.8477,-0.605 z m -145.1367,106.602 c 7,0 11.9922,2.992 11.9922,6.992 0,19 -415.9922,743.008 -426.9922,743.008 -8,0 -22.0156,-13.996 -31.0156,-30.996 -42,-75.999998 -48.9961,-81.011998 -115.9961,-77.011998 -33,3 -123.9961,21.011998 -200.9961,42.011998 -77,21 -180,47.996 -230,60.996 -382,99 -374.9922,96 -461.9922,210 -50,66 -143.0078,242 -143.0078,270 0,17 31.0039,35 59.0039,35 11,0 109.9883,-25.992 217.9883,-56.992 162,-46 212.0039,-57.012 274.0039,-57.012 68,0 82,3.004 125,29.004 68,43 99.0078,106 98.0078,200 0,97 -19.0039,147 -154.0039,404.99996 -65,124 -152,292.008 -195,373.008 -87,168 -163.9961,275.992 -260.9961,366.992 -138,129 -278.0039,202 -564.0039,295 -218,71 -881.00785,324.996 -1088.00785,415.996 -46,20 -61.9922,23.012 -61.9922,12.012 1,-5 81.0078,-215.008 178.0078,-468.008 123,-320 181.9922,-460 191.9922,-460 9,0 28.9961,28 45.9961,65 44,90 72.0117,114.008 132.0117,113.008 60,-1 591.99615,-190.016 635.99615,-226.016 39,-31 204.9883,-312.996 212.9883,-360.996 10,-63 -8.9883,-58.996 -412.9883,84.004 -297.99975,106 -383.00005,132.992 -440.00005,136.992 -65,5 -72,3 -100,-20 -27,-24 -29.0078,-29.984 -28.0078,-93.984 1,-80 40.0117,-185.008 132.0117,-348.008 102,-183.99996 479.99615,-778.99596 545.99615,-860.99596 143,-177.999998 321.9883,-315.011998 497.9883,-382.012 58,-21 1533.0156,-421.992 1556.0156,-421.992 z m 5436.9922,206.992 190,2.012 c 261,2 335,8.996 335,30.996 0,9 -40,268.996002 -90,575.996 -49,307 -90,582.004 -90,609.004 0,32 7.996,65.004 20.996,89.004 11,21 19.012,38.99596 17.012,40.99596 -9,7 -608.008,13.992 -608.008,6.992 0,-5 28.008,-39.98796 63.008,-77.98796 61,-69 63,-73 85,-170 34,-155 34,-149.004 -15,-149.004 -24,1 -108.016,2.008 -186.016,3.008 l -143.984,1.992 -78.008,98.008 c -43,54 -94.992,126.992 -116.992,161.992 -34,55 -39,70.992 -35,106.992 l 3.984,42.01196 -50.996,5 c -28,3 -104.996,7.996 -170.996,10.996 -66,3 -233.992,12.992 -371.992,21.992 -139,9 -255.004,14.016 -259.004,11.016 -3,-3 12.996,-106.99996 35.996,-229.99996 22,-122 42.008,-230.008 43.008,-238.008 3,-23 -48.008,-25.008 -68.008,-3.008 -9,10 -47.996,72.008 -85.996,138.008 -38,66 -74.004,127 -79.004,135 -32,47 -70,144.00396 -70,179.00396 0,48 20.996,42.996 -274.004,70.996 -221.9999,21 -265.996,24.004 -265.996,14.004 0,-3 26.9961,-39.996 60.9961,-80.996 77,-95.99996 122,-174.00796 329.9999,-573.00796 329,-630 326,-621.996 305,-740.996 l -7.988,-47.012 48.984,-5.996 c 26,-3 239.008,-12.992 473.008,-21.992 419,-17 426,-17.008 465,1.992 21,10 47.008,30.996 58.008,45.996 26,35 24.988,114.004 -2.012,194.004002 -27,81.9999995 -223,479.007998 -265,538.007998 -43,60 -92.996,94.988 -150.996,102.988 -25,3 -45,7.008 -45,8.008 0,6 -21,108.004 -40,194.004 -11,52 -20,111 -20,130 0,41 28.008,120.99596 43.008,120.99596 16,0 110.988,-81.99196 152.988,-131.99196 172.092,-217.284 355.036,-450.252 509.004,-643.008 162,-202.999998 304,-388.992 315,-411.992 12,-23 24.008,-69.004 28.008,-104.004 z m 1460.449,7.148 c 6,0 63.742,10.41 44.551,154.864 -1.317,9.913 -73.004,94.004002 -164.004,189.0040018 -33,34.0000002 -62.996,61.9920002 -65.996,61.9920002 -9,0 18.516,-214.399002 28.516,-223.399002 116.954,-149.498 148.933,-182.461 156.933,-182.461 z m -766.679,11.27 c 52.171,0.281 171.988,3.098 309.238,7.598 238,8 331.992,13.992 331.992,21.992 0,7 -22.008,31.996 -48.008,55.996 l -48.984,44.004 -16.016,110.000002 c -22,150 -41,334.995998 -35,340.995998 3,3 81.004,-74.988 174.004,-172.987998 194,-204.000002 229.996,-259.008002 220.996,-333.008002 l -5.996,-46.992 187.012,3.984 c 199,4 251.992,9.012 251.992,22.012 0,5 -29.992,25.992 -66.992,46.992 -94,55 -129.012,89.012 -507.012,497.012 -319.997,345 -339.988,368.988 -372.988,442.988 -19,44 -48,108.004 -65,144.004 -20,44 -30,79.992 -30,111.992 v 48.00796 l -72.012,-1.992 c -39,-2 -163.988,-4 -277.988,-5 -115,-2 -208.008,-7.016 -208.008,-11.016 0,-4 24.996,-22.99196 55.996,-41.99196 76,-47 104,-86 180,-245 l 58.887,-149.082 24.121,-341.914 c 10,-195.999998 15,-371.996 10,-390.996 -4,-19 -24.004,-62 -44.004,-95 -20,-32 -35.004,-61.012 -34.004,-62.012 0.5,-0.5 10.383,-0.68 27.774,-0.586 z m -2377.969,32.383 c 5.705,-0.161 8.887,-0.1 9.199,0.215 6,5 -211.996,431.992 -220.996,431.992 -4,0 -12.004,-13.004 -19.004,-29.004 -18,-42.999998 -52.992,-71.987998 -96.992,-77.987998 -21,-2 -114.0119,4.996 -207.0119,15.996 -148,18 -171.9922,23.996 -201.9922,45.996 -60,45.999998 -69.0117,61.999998 -292.0117,494.999998 -173.9998,339.995 -181.9922,355.008 -181.9922,363.008 0,13 84.9961,7.992 130.9961,-8.008 65,-22 92.0039,-50.008 149.0039,-148.008 27,-49 50,-89.988 50,-92.988 0,-2 -17.0078,-4.004 -38.0078,-4.004 -30,0 -53.9844,11 -108.9844,50 -25.1479,14.004 -21.4844,10.762 -21.4844,-4.238 0,-17 156.7032,-290.332 165.7032,-290.332 5,0 131.7695,-23.43 313.7695,-45.43 182,-22 345.0119,-40 362.0119,-40 30,0 29.992,1.008 -28.008,43.008 -95,69 -127,112.992 -225,306.992 -114,227 -156.9961,324.99996 -165.9961,384.99996 -5,35 -12.0078,48.004 -28.0078,54.004 -11,4 -90.9961,16 -175.9961,25 -85,10 -162.9922,19.992 -171.9922,21.992 -12,4 -18.0078,0 -18.0078,-10 0,-45.331 17.0058,-40.8 -41.9922,3.008 -22,14 -76.0078,24.996 -163.0078,35.996 -71,9 -173.9922,22 -226.9922,30 -153,23 -194.0078,19 -233.0078,-25 -15,-16 -20,-36.004 -20,-74.004 1,-45 16.9922,-84.996 136.9922,-330.99596 75,-154 182.0078,-374 238.0078,-490 130,-269.999998 180.0078,-353.991999 258.0078,-436.991998 73,-77.000002 153.9922,-123.008002 236.9922,-133.008002 95.625,-12.188 750.228,-64.798 835.801,-67.207 z m 2277.988,3.789 c 7.598,-0.666 20.203,12.414 38.203,39.414 61.222,99.908 57.439,93.453 29.004,582.012 -4,105 -11.992,209 -16.992,230 -20,75 -112.012,250.984 -157.012,298.984 -87,93 -91.992,68.016 -46.992,-213.984 50.284,-348.184 82.566,-559.773998 145,-910 0,-17.063 2.879,-25.908 8.789,-26.426 z m 1552.93,12.109 c 63.093,-0.375 199.039,2.055 351.289,7.305 287,10 366.992,15 366.992,25 0,8 -22.008,65.996 -48.008,130.996 -27,65.000002 -56.996,142.016002 -65.996,171.016002 -19,56.999998 -32.992,62.995998 -61.992,30.996 -10,-12 -30.004,-25.996 -44.004,-30.996 -36,-14 -399.996,-27.016 -425.996,-16.016 -22,10 -98.004,154.003998 -89.004,169.003998 4,5 54.008,9.004 113.008,9.004 59,1 140.992,5 181.992,10 68,7 77.008,11 108.008,45 34,37 34,38.004 30,114.004 -4,71 -12.012,92.996 -112.012,315.996 -59,132 -116.988,267 -127.988,299.99996 -11,33 -42.012,105 -67.012,160 -80,171 -180.004,256.996 -329.004,285.996 -70,13 -508.992,9.004 -1066.992,-10.996 -862,-31 -2722,61.996 -3710,185.996 -380,48 -1314,207 -1755,300 -234.9998,49 -845,204.004 -925,234.004 l -29.0039,10.996 64.0039,32.012 c 194,96 224.9961,195.996 80.9961,260.996 -89,40 -146.9961,47.996 -560.9961,80.996 -346,27 -422.9922,36 -536.9922,65 -129,33 -281,101 -355,160 -28,22 -55.0039,40 -59.0039,40 -21,0 45.9922,-195 101.9922,-300 76,-141 235.0039,-313.992 369.0039,-401.992 177,-117 390.9922,-208.008 486.9922,-208.008 37,0 50.0078,5 73.0078,30 l 28.0078,30 88.9844,-30.996 c 286,-102 717.0117,-211.004 1317.0117,-334.004 1012,-208 1382.9961,-270 2025.9961,-335 732,-74 1301,-115 1950,-140 333,-13 1381,-13 1680,0 124,5 308.992,10.992 411.992,11.992 224,4 222,5.008 285,-121.992 55,-108.99996 129.008,-285.99196 138.008,-326.99196 l 6.992,-33.008 -93.984,-0.996 c -51,0 -142.012,-4.008 -202.012,-8.008 -98,-7 -111.004,-9.992 -129.004,-31.992 -27,-33 -17.988,-86.012 37.012,-212.012 24,-56 58,-139.992 75,-186.992 66,-174.999998 148.996,-310.008 245.996,-398.008 51,-47 85,-67.992 140,-86.992 2.75,-0.75 15.688,-1.184 36.719,-1.309 z m -3778.711,76.309 c 6,0 6.988,17.996 2.988,45.996 -4,31 -41.988,114.000002 -112.988,250 -105,201 -108.004,204.004 -139.004,204.004 -23.4,-0.796 -39.919,7.656 -61.719,7.656 -161.3624,17.323 -407.9169,44.014 -559.4635,64.152 15.4146,-44.669 74.9246,-167.037 97.1785,-201.808 53.7136,-55.759 304.2525,-53.278 390.996,-65 20,0 32.004,14.992 69.004,86.992 25,49 47.992,88.008 51.992,88.008 3,0 61.008,-108 128.008,-239.999998 68,-132 127.008,-240.000002 133.008,-240.000002 z m -1177.9885,5.527 c 2.8916,0.01 4.6055,0.156 4.9805,0.469 2,3 -2,9.004 -10,14.004 -48,27 -104,75.992 -135,116.992002 -20,27 -188.0039,354.007998 -374.0039,728.007998 l -337.9883,680.99596 -249.0039,42.012 c -137,24 -254.9961,41.992 -260.9961,41.992 -7,0 -13.0078,-9.992 -13.0078,-21.992 0,-13 38.0078,-256 83.0078,-539.99996 46,-285.006 79.9922,-518.008 76.9922,-518.008 -12,0 -500,1009.99996 -500,1034.99996 0,13 6.9961,43 15.9961,65 9,23 15.0078,42.004 13.0078,44.004 -2,2 -56.0039,13 -119.0039,25 -124,24 -728.9922,155.992 -896.9922,196.992 -57,13 -105.0078,24.004 -108.0078,24.004 -18,0 4,-25 60,-70 36,-29 85.0039,-80.004 109.0039,-114.004 24,-33 192.9961,-358.992 375.9961,-721.99196 330,-654 334.0039,-662 339.0039,-735 l 5.9961,-74.003998 280,-35.996001 c 154,-19.999999 282.0078,-35.007999 283.0078,-33.007999 2,1 -20,27.012 -50,57.0119998 -43,43.0000002 -148.0078,198.9959982 -148.0078,220.9959982 0,2 -132.9961,277.992 -295.9961,611.992 -237,487.99996 -295.9961,616.00396 -295.9961,649.00396 -2,89 20,86 115,-15 74,-76 81.9883,-88.992 212.9883,-356.992 75,-152.99996 158.0039,-323.00796 184.0039,-378.00796 26,-55 109.9961,-226 185.9961,-380 134,-272.999998 138.0078,-281.991998 138.0078,-346.991998 l 0.996,-67.012 35,-5 c 19,-3 157,-18.996 305,-35.996 149,-17.000002 282.0078,-32.000002 298.0078,-35.000002 33,-5 33.9883,3.008 12.9883,108.008002 -16.9971,82 -34.996,181.991998 -65.996,346.991998 -12,63 -36,194 -55,290 -52,279 -54.9961,276 54.0039,55 328,-665.9999982 360,-742.007998 345,-803.008 -4,-14 -1.0078,-23.992 6.9922,-26.992 22.5,-7.5 330.6494,-39.608 374.0234,-39.473 z M 3873.6642,38.699542 c 7,6 -251.9844,488.987998 -263.9844,492.987998 -4,2 -15,-9.996 -25,-25.996 -28,-50 -61.0156,-64.988 -141.0156,-62.988 -39,1 -73.9883,6 -77.9883,10 -8,8 -508.0117,1073.99196 -547.0117,1166.99196 -18,42 -25.9961,79.004 -25.9961,124.004 l -0.996,64.004 -345,92.988 c -395,107 -350.0039,96.012 -349.0039,87.012 0,-5 36,-35.008 80,-68.008 74,-57 134.0117,-122 172.0117,-190 57,-99 583.9961,-1201.00796 575.9961,-1203.00796 -15,-6 -109.0039,29.016 -194.0039,71.016 -61,31 -101.0039,60.984 -169.0039,128.984 -87,87 -117.9883,106.016 -77.9883,51.016 18,-25 88.9844,-140 273.9844,-445 32,-54 62.0156,-99.012 66.0156,-102.012 14,-8 1043.9844,-196.991998 1048.9844,-191.991998 z m 38.8281,57.010998 c 8.9559,0.551 2.4558,56.953 -290.7031,621.016 -137.3622,294.12796 -265.4869,592.24696 -445.1172,819.96096 -23,27 -100,95.008 -170,153.008 -71,58 -132.0039,105 -134.0039,105 -11,0 -17.9883,-51.996 -12.9883,-85.996 3,-20 60.9883,-154.008 127.9883,-298.008 60.5735,-152.367 187.6802,-410.934 264.0039,-566.99196 45.0904,-101.394 65.6763,-140.024 124.0039,-265.996 24.278,-49.161 32.6958,-74.95 63.7891,-74.512 4.4419,0.06 10.6919,-1.162 16.1718,-0.02 8.3452,-0.254 16.3438,2.203 27.0313,3.516 26,3 51.9141,11.457 91.9141,93.457 25,51 31.0976,92.554 35.0976,88.554 1.8174,7.761 296.7448,-591.096 297.9688,-590.41 0.996,-0.859 3.1852,-2.68 4.8437,-2.578 z m 6475.1757,8.985 c 8,0 -55,166.004 -100,264.004 -65,144 -73.004,215.996 -29.004,270.996 35,45 80.016,57 236.016,65 78,4 145.984,10.004 148.984,14.004 7,7 -110.984,277.00396 -138.984,319.00396 -19,27 -21.016,27 -121.016,25 -178,-2 -611.984,-18.008 -623.984,-23.008 -6,-2 -15.008,-24.008 -18.008,-48.008 -6,-39.99996 -1.008,-57.99996 56.992,-184.99996 l 63.008,-140 260,-280.996 c 143,-154 262.996,-280.996 265.996,-280.996 z m -7704.8046,30.137 c 39.3676,2.058 58.2273,-3.315 72.3828,24.863 6.1527,34.854 5.8918,52.384 -10.9765,78.437 -2,6 -39.75,65.571 -78.75,129.571 -67.9436,121.068 -105.6044,170.543 -159.8438,252.988 -11,19 -24.0117,34.008 -27.0117,33.008 -123.3881,-142.959 -223.9376,-137.707 -508.9844,-79.004 -104,29 -194,54.992 -200,56.992 -7.0051,2.997 -13.0078,0.01 -13.0078,-6.992 0,-16 66,-139.008 90,-168.008 75.9659,-110.215 96.864,-135.049 212.1875,-165.762 169,-44 457.5918,-130.064 624.0039,-156.093 z m 1780.1367,7.168 c 0.322,0.02 0.539,0.266 0.664,0.703 3,7 -92.9922,214 -211.9922,460 -108.1023,223.167 -196.2228,403.50696 -281.9922,575.99596 -20,42 -148.6562,272.304 -152.6562,272.304 -12,0 93.1212,-201.411 135.6445,-279.316 72.1419,-156.702 141.1217,-301.90796 228.0078,-468.98396 91,-185 189.9922,-389 221.9922,-455 29.0625,-60.938 55.4944,-106.07 60.332,-105.704 z m 4046.6799,532.695 h 66.992 l -5.996,28.008 c -28,122 -34.012,135.996 -82.012,185.996 -27,28 -67.996,75.004 -90.996,104.00396 l -42.988,51.992 h -113.008 c -108,0 -113.004,-0.992 -119.004,-21.992 -17,-64.99996 11.012,-123.00396 122.012,-259.00396 l 62.988,-75.996 67.012,-7.012 c 37,-3 97,-5.996 135,-5.996 z m -3964.4924,75.019 c 2.7929,0.876 -1.4162,18.238 -0.527,44.727 0,0 -8.0094,30.174 -31.4063,173.262 -14.4855,110.99996 -22.0301,155.99596 -37.3828,255.99596 -10.1672,66.224 -24.1953,153 -30.1953,190 l -10.9961,66.992 -57.0117,12.012 c -78,16 -88.9961,12.437 -95.9961,-9.004 -23.6402,-69.824 -23.053,-66.462 -33.0078,-104.004 -1.6737,-31.892 264.9121,-604.42596 281.3086,-612.16796 9.3425,-12.939 13.5391,-18.338 15.2148,-17.813 z m 2640.4734,1.903 c -16.905,76.621 -22.585,168.039 -35.847,234.459 -8,43.99996 -14.286,95.43596 -17.286,108.43596 -2.191,30.57 15.151,30.621 -52.282,34.656 -30.502,1.825 -23.107,1.286 -31.582,-89.473 7,-57.99996 136.997,-288.07796 136.997,-288.07796 z m -1160.1413,30.695 c 10,-1 -41.9493,66.629 -57.9493,79.629 -26,20 -81.0795,41.179 -82.5195,30.273 -8.142,-61.661 124.4688,-109.902 140.4688,-109.902 z m -743.086,226.52296 c 0,0 -31.7537,90.868 -37.7539,113.868 -13,54 2,114.984 40,153.984 14,15 58.2695,43.582 56.2695,46.582 -3,2 -66.3125,11 -110.3125,20 -85,16 -124.8242,26.145 -124.8242,18.145 0,-11 171.4136,-354.788 176.6211,-352.579 z m -2411.0452,885.387 c -8.167,-18.588 -19.2892,-30.366 -40.0966,-40.201 49.5531,-8.138 302.4168,-65.181 357.2324,-75.23 -129.8249,55.734 -206.6492,80.727 -317.1358,115.431 z"
         inkscape:connector-curvature="0"
         sodipodi:nodetypes="cccccccccccscscccccccccccccccccccsccccscsccccccccccccccccccccscsccccccccccccccccccccccccccccccccsccccsssccsccsscscccccccccscscccccccccsccscsccsccccccccccscccccscscscccccccccccscsscccccsccscsccscccsccccsccccscccsccccccsccccscccccsccsscssssccccccsccccccccccccccccccccscccccccccccsccccccccccccsccscccccccccccccsccccscsccccccccscscccccccsscsscsccscccccccssccccscccccccccccccccccscccccccccscccccccccsccccccccccccsccsccccccscsccccccccscccccccscccccscccccsccccscccscccccccccccccccccccccccscc" />
      <path
         id="path24508"
         d="m 7360,259.99954 c 0,-6 29,-68 65,-139 l 65,-128.9999985 93,-4.0000005 c 113,-6 124,0 103,58.000001 -21,59.999998 -74,161.999998 -95,182.999998 -13,13 -40,21 -88,25 -37,4 -85,9 -105,11 -23,3 -38,1 -38,-5 z m 217,-135 c 18,-33 33,-63.999998 33,-67.999998 0,-5 -17,-7 -37,-5 -35,3 -41,8 -70,62.999998 -18,33 -33,64 -33,68 0,5 17,7 38,5 34,-3 40,-8 69,-63 z"
         inkscape:connector-curvature="0" />
      <path
         id="path24506"
         d="m 8450,381.99954 c 0,-11 278,-345.999998 290,-349.999998 7,-3 9,6 6,20 -6,26 -56,321.999998 -56,331.999998 0,3 -54,6 -120,6 -66,0 -120,-4 -120,-8 z m 204.309,-47.294 26.499,-168.086 -138.336,167.454 z"
         inkscape:connector-curvature="0"
         sodipodi:nodetypes="sccssscccc" />
    </g>
  </g>
</svg>
