<?xml version="1.0" encoding="UTF-8" standalone="no"?>
<svg
   xmlns:dc="http://purl.org/dc/elements/1.1/"
   xmlns:cc="http://creativecommons.org/ns#"
   xmlns:rdf="http://www.w3.org/1999/02/22-rdf-syntax-ns#"
   xmlns:svg="http://www.w3.org/2000/svg"
   xmlns="http://www.w3.org/2000/svg"
   xmlns:sodipodi="http://sodipodi.sourceforge.net/DTD/sodipodi-0.dtd"
   xmlns:inkscape="http://www.inkscape.org/namespaces/inkscape"
   id="svg24966"
   width="1070.9625"
   height="633.7804"
   preserveAspectRatio="xMidYMid meet"
   version="1.0"
   viewBox="0 0 10709.625 6337.804"
   inkscape:version="0.92.2 (5c3e80d, 2017-08-06)"
   sodipodi:docname="stingrayFullColor.svg">
  <sodipodi:namedview
     id="namedview287"
     bordercolor="#666666"
     borderopacity="1"
     gridtolerance="10"
     guidetolerance="10"
     objecttolerance="10"
     pagecolor="#ffffff"
     showgrid="false"
     inkscape:current-layer="layer6"
     inkscape:cx="1122.0126"
     inkscape:cy="316.26082"
     inkscape:pageopacity="0"
     inkscape:pageshadow="2"
     inkscape:window-height="1001"
     inkscape:window-maximized="1"
     inkscape:window-width="1920"
     inkscape:window-x="-9"
     inkscape:window-y="-9"
     inkscape:zoom="8"
     inkscape:measure-start="-202,1112"
     inkscape:measure-end="-744,662" />
  <metadata
     id="metadata24972">
    <rdf:RDF>
      <cc:Work
         rdf:about="">
        <dc:format>
                    image/svg+xml
                </dc:format>
        <dc:type
           rdf:resource="http://purl.org/dc/dcmitype/StillImage" />
        <dc:title></dc:title>
      </cc:Work>
    </rdf:RDF>
  </metadata>
  <defs
     id="defs24970" />
  <g
     id="layer1"
     inkscape:groupmode="layer"
     inkscape:label="stingray"
     style="display:inline"
     transform="translate(-471.24688,-94.618017)">
    <a
       id="a468">
      <g
         style="fill:#999b9e;stroke:none"
         id="gray">
        <path
           inkscape:connector-curvature="0"
           d="m 10275,5570 c 10,-11 20,-20 23,-20 3,0 -3,9 -13,20 -10,11 -20,20 -23,20 -3,0 3,-9 13,-20 z"
           id="path24845" />
        <path
           inkscape:connector-curvature="0"
           d="m 3062,4370 c 0,-19 2,-27 5,-17 2,9 2,25 0,35 -3,9 -5,1 -5,-18 z"
           id="path24947" />
      </g>
    </a>
    <g
       id="whiteStingray"
       style="fill:#ffffff;stroke:none"
       transform="translate(-50,-180)">
      <path
         id="path24987"
         d="m 779.90948,75.165703 c -2.68055,-2.680549 -2.5828,-3.695819 0.55369,-5.750923 2.08264,-1.364601 3.10208,-1.475616 5.11757,-0.557296 3.113,1.418379 3.43165,5.746616 0.53712,7.295722 -2.81249,1.505199 -3.88651,1.334367 -6.20838,-0.987503 z"
         transform="scale(10)"
         inkscape:connector-curvature="0" />
    </g>
    <g
       id="layer5"
       inkscape:groupmode="layer"
       inkscape:label="gray"
       style="display:inline">
      <path
         style="display:inline;fill:#999b9e;stroke:none;stroke-width:0.1"
         d="m 425.0293,50.822266 c -28.9526,0 -40.97451,0.485973 -53.36524,2.3125 -1.71752,0.243537 -6.13404,0.731676 -9.81445,1.21875 -7.23815,0.852379 -13.8634,3.044034 -13.25,4.261718 0.24536,0.365306 1.83911,3.530612 3.55664,6.81836 3.18969,5.844885 8.09705,19.849681 9.20117,26.18164 0.36804,1.704759 0.86011,3.774574 1.10547,4.626954 3.06701,8.645562 3.19006,44.079552 0.12305,56.865232 -5.27526,22.40539 -20.48882,49.5596 -55.33008,98.02344 -13.37217,18.75234 -17.80219,23.67251 -23.55469,37.14062 -3.21724,7.5324 -6.43235,15.67685 -5.88086,23.83985 0.68844,10.19012 6.5314,19.4588 11.2793,28.51953 5.56842,10.62661 15.21155,24.96257 19.99609,29.95508 3.8031,3.89659 16.56263,28.24954 17.91211,33.97265 0.49072,2.3136 1.10425,5.1157 1.34961,6.08985 0.98145,4.50543 0.36743,25.5706 -0.85937,30.80664 -2.20825,9.86324 -14.23047,26.00976 -14.23047,26.00976 0,0 -1.9624,-3.35969 -2.45313,-5.06445 -0.36804,-1.70476 -0.9812,-3.04492 -1.22656,-3.04492 -0.24536,0 -3.43641,1.58295 -6.99414,3.53125 -9.69176,5.35781 -24.7312,6.51361 -37.41602,7.54883 -5.58736,0.45599 -11.30726,0.4639 -16.80859,-0.60743 -7.03739,-1.37047 -14.11135,-3.5875 -20.20312,-7.34374 -5.5001,-3.39142 -13.28619,-12.02127 -15.32813,-14.33008 -4.59133,-2.96289 -8.3033,-5.67958 -10.63867,-7.6543 0.81592,3.34099 1.82491,8.60856 2.73828,14.75391 0.004,0.004 0.004,0.002 0.008,0.006 0.0718,0.0633 0.12611,0.11901 0.20899,0.19335 0.35086,0.31313 0.7844,0.72452 1.28711,1.21876 0.28647,0.28195 0.55936,0.55762 0.86914,0.88476 0.12949,0.13655 0.24547,0.25096 0.37695,0.39453 0.31912,0.34847 0.63975,0.71836 0.95703,1.10156 0.0581,0.0701 0.11421,0.1399 0.17188,0.21094 0.25885,0.31937 0.50849,0.64652 0.75195,0.98242 0.07,0.0964 0.14087,0.18976 0.20898,0.28711 0.28806,0.41268 0.56323,0.83145 0.80664,1.25782 3.10535,5.1371 7.52984,10.46705 12.70704,15.40429 0.57521,0.54861 1.15894,1.09275 1.75195,1.63086 0.59338,0.53842 1.19505,1.0694 1.80469,1.59571 0.60924,0.52601 1.22568,1.04629 1.84961,1.55859 0.62432,0.51261 1.25512,1.01639 1.89257,1.51367 1.27413,0.99395 2.57337,1.95583 3.89063,2.87891 0.65863,0.46153 1.3212,0.91406 1.98828,1.35547 1.24214,0.80671 2.52138,1.60297 3.82031,2.38281 2.59786,1.55968 5.2778,3.0502 7.91016,4.4082 1.31618,0.679 2.61984,1.32465 3.89648,1.92969 2.55329,1.21007 4.99672,2.25614 7.19922,3.07617 2.2025,0.82003 4.16492,1.41433 5.75977,1.71875 2.33093,0.48707 7.72803,1.58249 12.14453,2.55664 2.20825,0.48708 5.45973,1.15662 8.91016,1.82617 3.45038,0.66973 7.09979,1.3391 10.10546,1.82617 1.59485,0.28921 3.1459,0.5884 4.63868,0.89258 5.97102,1.21674 11.01425,2.52128 14.24023,3.6543 1.20974,0.42488 2.16269,0.82442 2.81445,1.1875 6.8e-4,3.8e-4 10e-4,0.002 0.002,0.002 0.43306,0.24148 0.73329,0.46587 0.88476,0.66993 4.5e-4,6e-4 0.002,0.001 0.002,0.002 0.0759,0.10223 0.11328,0.19773 0.11328,0.28906 0,0.0761 -0.6951,0.24731 -1.94922,0.48633 -2.50824,0.47804 -7.24876,1.22781 -13.12305,2.0293 -2.93768,0.40091 -6.15857,0.8151 -9.52539,1.21484 -13.46377,1.59811 -29.25875,2.96819 -38.58203,2.35937 -15.27485,-1.09599 -33.72333,-3.15053 -43.75195,-4.77734 -1.67081,-0.27104 -3.10793,-0.53063 -4.25782,-0.77148 -7.1e-4,-1.5e-4 -0.001,1.4e-4 -0.002,0 -0.57507,-0.12047 -1.07736,-0.23715 -1.50195,-0.34766 -0.42459,-0.1105 -0.77056,-0.21552 -1.03125,-0.31445 -0.49073,-0.18266 -0.92491,-0.31844 -1.30469,-0.4043 -0.37978,-0.0859 -0.70529,-0.12169 -0.97461,-0.10742 -0.13466,0.007 -0.25615,0.0278 -0.36328,0.0605 -0.21336,0.0657 -0.37233,0.1833 -0.47656,0.35352 -0.10453,0.1707 -0.15513,0.39468 -0.15039,0.67383 0.0166,0.97703 0.70115,2.62807 2.04296,5.02539 0.78209,1.39273 1.74545,2.65752 2.99414,3.83594 0.41624,0.3928 0.86413,0.77509 1.34766,1.15039 0.48353,0.37527 1.00199,0.7426 1.56055,1.10351 0.55896,0.36125 1.15697,0.71639 1.79883,1.06641 0.64131,0.3497 1.32484,0.69351 2.05664,1.03516 1.46401,0.68361 3.11567,1.35316 4.98828,2.02343 1.65335,0.59176 3.51005,1.18527 5.52734,1.78516 0.26664,0.0793 0.50392,0.15672 0.77735,0.23633 6.2e-4,1.8e-4 0.001,-1.9e-4 0.002,0 0.32664,0.0951 0.69673,0.19345 1.0332,0.28906 1.76373,0.50116 3.66472,1.01018 5.71289,1.53125 0.36212,0.0921 0.6891,0.18246 1.06055,0.27539 6.4e-4,1.6e-4 10e-4,-1.6e-4 0.002,0 0.28028,0.0701 0.59716,0.14424 0.88281,0.21484 4.10762,1.0152 8.74125,2.07789 14.05274,3.23047 4.27848,0.91327 11.62576,2.22644 19.41602,3.53711 2.59675,0.43689 5.24172,0.87356 7.83984,1.29492 10.39328,1.6855 20.01846,3.12755 22.65625,3.3711 0.69008,0.0609 1.59989,0.15984 2.66211,0.28515 3.18678,0.37595 7.75291,0.99476 11.93164,1.58008 5.57124,0.78045 10.45312,1.5 10.45312,1.5 0,0 -7.04671,0.39639 -15.85546,0.75782 -4.40438,0.18071 -9.24993,0.35253 -13.875,0.46289 -4.62514,0.11046 -9.0299,0.15893 -12.55469,0.0918 -12.43543,-0.23684 -25.04659,0.0498 -37.43164,-1.10156 -3.37775,-0.314 -6.73805,-0.73478 -10.07422,-1.30273 -2.22412,-0.37864 -4.43708,-0.82273 -6.63672,-1.34375 -3.71172,-0.87919 -7.79146,-2.06471 -11.92578,-3.4375 -5.8e-4,-2e-4 -0.001,1.9e-4 -0.002,0 -6.2018,-2.05937 -12.52705,-4.54196 -17.92383,-7.04493 -5.5e-4,-2.5e-4 -0.001,2.6e-4 -0.002,0 -2.69856,-1.2516 -5.16355,-2.50831 -7.26562,-3.7207 -2.10208,-1.21239 -3.83989,-2.38004 -5.08203,-3.45312 -0.88944,-0.76106 -1.60322,-1.34666 -2.41406,-1.82422 -0.60769,-0.35791 -1.27064,-0.65581 -2.10352,-0.91993 -5.6e-4,-1.7e-4 -0.001,1.8e-4 -0.002,0 -0.27792,-0.0881 -0.57442,-0.17209 -0.89453,-0.2539 -1.92072,-0.49088 -4.67798,-0.8868 -9.19727,-1.41406 -1.50643,-0.17576 -3.20841,-0.36699 -5.14063,-0.58008 -4.04764,-0.43371 -7.50998,-0.83738 -10.55468,-1.26172 -6.7e-4,-9e-5 -0.001,9e-5 -0.002,0 -5.0744,-0.70728 -8.99134,-1.47166 -12.53711,-2.52734 -6e-4,-1.8e-4 -0.001,1.7e-4 -0.002,0 -3.54571,-1.05581 -6.71958,-2.40503 -10.30859,-4.27735 -4.9e-4,-2.5e-4 -0.001,2.6e-4 -0.002,0 -2.15379,-1.12365 -4.45583,-2.43573 -7.07812,-3.98828 -0.78294,-0.46342 -1.56637,-0.96177 -2.34961,-1.48437 -0.31777,-0.21196 -0.63384,-0.44299 -0.95117,-0.66407 -0.46949,-0.32719 -0.93851,-0.6538 -1.40625,-1 -0.34979,-0.25877 -0.69655,-0.53001 -1.04492,-0.79883 -0.43308,-0.33433 -0.86472,-0.67048 -1.29493,-1.01953 -0.37309,-0.30255 -0.74285,-0.61281 -1.11328,-0.92578 -0.38836,-0.32828 -0.77528,-0.659 -1.16015,-0.99804 -0.38829,-0.34187 -0.77404,-0.68696 -1.15821,-1.03907 -0.37945,-0.34795 -0.75401,-0.7033 -1.1289,-1.06054 -0.36753,-0.35008 -0.73505,-0.69829 -1.09766,-1.05664 -0.3596,-0.35552 -0.71214,-0.71902 -1.06641,-1.08204 -0.38483,-0.39422 -0.77053,-0.78519 -1.14843,-1.1875 -0.29664,-0.31586 -0.58494,-0.63859 -0.87696,-0.95898 -0.40524,-0.44456 -0.81339,-0.8855 -1.20898,-1.33789 -6.6e-4,-6.5e-4 -0.001,-0.001 -0.002,-0.002 -2.88938,-2.82209 -5.31756,-5.96471 -7.150394,-9.45313 -0.002,-0.003 -0.0038,-0.007 -0.0059,-0.01 -0.344172,-0.53267 -0.675981,-1.06345 -1,-1.59571 -0.08747,-0.14349 -0.171833,-0.28629 -0.257813,-0.42968 -0.498596,-0.83296 -0.969332,-1.66187 -1.414062,-2.48829 -0.158457,-0.29347 -0.319385,-0.58674 -0.470703,-0.8789 -0.185873,-0.36024 -0.364439,-0.71834 -0.539063,-1.07617 -0.263064,-0.53684 -0.511399,-1.06949 -0.748047,-1.59961 -0.09209,-0.20721 -0.189415,-0.41509 -0.277343,-0.6211 -0.295999,-0.69047 -0.561603,-1.37208 -0.808594,-2.04687 -0.06367,-0.17459 -0.12525,-0.3481 -0.185547,-0.52149 -0.255685,-0.73288 -0.49138,-1.45934 -0.683594,-2.16797 -0.203026,-0.76044 -0.397436,-1.52019 -0.582031,-2.27734 -1.51e-4,-6.2e-4 1.51e-4,-10e-4 0,-0.002 -0.184728,-0.75776 -0.359146,-1.51307 -0.525391,-2.26758 -0.332488,-1.50903 -0.628301,-3.01138 -0.886718,-4.50781 -0.258418,-1.49644 -0.479896,-2.9864 -0.664063,-4.47071 -8e-5,-6.4e-4 8e-5,-0.001 0,-0.002 -0.368259,-2.96792 -0.587887,-5.9117 -0.658203,-8.83398 -1.6e-5,-6.6e-4 1.6e-5,-0.001 0,-0.002 -0.01757,-0.73073 -0.02651,-1.45947 -0.02539,-2.1875 0.0022,-1.45607 0.04202,-2.90595 0.119141,-4.35156 0.03852,-0.72214 0.08729,-1.44444 0.144531,-2.16406 5.2e-5,-6.5e-4 -5.1e-5,-10e-4 0,-0.002 0.05731,-0.72026 0.123131,-1.43845 0.199219,-2.15624 0.15218,-1.43563 0.342895,-2.86686 0.570313,-4.29297 0.454825,-2.85217 1.059552,-5.68499 1.816406,-8.50196 0.567646,-2.11276 1.220741,-4.21571 1.958984,-6.31054 0.245803,-0.69748 0.500864,-1.39619 0.765625,-2.0918 2.99e-4,-7.9e-4 0.0017,-0.001 0.002,-0.002 1.060112,-2.78482 2.27188,-5.55528 3.636719,-8.3125 0.341306,-0.6895 0.692316,-1.37849 1.052738,-2.06641 0.72084,-1.37585 1.47992,-2.74925 2.27734,-4.11914 0.81276,-1.40034 1.83231,-2.91775 2.9961,-4.50391 1.1638,-1.58615 2.47252,-3.24053 3.86133,-4.91211 1.3888,-1.67158 2.85793,-3.36095 4.3457,-5.01757 7.4387,-8.28319 15.32706,-15.75229 15.78711,-16.13282 7.82088,-6.21019 20.53668,-16.36433 33.29297,-25.02929 2.12604,-1.44416 4.2535,-2.84731 6.35937,-4.1836 2.10588,-1.33628 4.1897,-2.6051 6.23047,-3.7832 1.11979,-0.64644 2.35789,-1.31968 3.64844,-2.00391 0.44607,-0.2366 0.91199,-0.47493 1.375,-0.71484 0.92298,-0.47806 1.86827,-0.96087 2.84961,-1.44922 0.49367,-0.24575 0.98053,-0.48891 1.48633,-0.73633 1.10632,-0.54106 2.2383,-1.08368 3.39062,-1.6289 0.38388,-0.18165 0.75298,-0.36133 1.14062,-0.54297 0.0852,-0.0399 0.17244,-0.0792 0.25782,-0.11914 2.28885,-1.07029 4.62493,-2.12728 6.96289,-3.16992 0.56312,-0.25123 1.10471,-0.49411 1.66601,-0.74219 2.28637,-1.01018 4.52856,-1.98638 6.70704,-2.91797 3.22356,-1.37942 6.13563,-2.59679 8.7871,-3.69141 0.0327,-0.0135 0.0768,-0.0334 0.10938,-0.0469 21.02958,-12.19274 37.11692,-21.09028 39.22656,-22.25586 0.63852,-11.02721 5.4707,-29.05274 5.4707,-29.05274 0,0 -62.78818,28.9137 -91.66601,47.62891 -27.86551,18.05914 -56.71852,36.47534 -77.968754,61.89648 -13.396752,16.02619 -28.141597,34.37412 -29.566406,55.15039 -2.315295,33.76116 11.935735,70.67346 35.367188,95.25391 17.684102,18.55124 46.001472,23.77592 70.843752,30.42774 33.75315,9.03783 69.20328,13.50377 104.14258,12.3164 20.75194,-0.70525 40.93634,-7.02116 61.20508,-11.49609 10.42323,-2.30124 31.0332,-7.88867 31.0332,-7.88867 0,0 -18.43936,11.95842 -28.4668,16.36132 -11.82256,5.19115 -36.95703,11.67383 -36.95703,11.67383 0,0 48.00787,3.54019 71.73633,0.59766 18.73693,-2.32353 54.78711,-14.29102 54.78711,-14.29102 0,0 -11.87217,11.26023 -18.42774,16.13477 -6.49049,4.8262 -20.57421,11.91648 -20.57421,12.89062 0,2.80068 16.38998,15.84445 25.98047,21.88477 9.80711,6.17679 28.64598,13.77514 37.07812,17.05273 7.0457,2.58978 13.24414,4.8711 13.24414,4.8711 0,0 -0.38948,-7.70615 1.5293,-17.00977 -0.0334,0.0516 -0.18555,0.31055 -0.18555,0.31055 0,0 -3.68235,-19.41688 -2.70508,-29.11524 1.11695,-11.08449 9.67188,-32.01171 9.67188,-32.01171 0,0 -11.01563,-2.92248 -11.01563,-3.16602 0,-0.97415 5.64429,-5.72298 8.83399,-7.42773 4.17113,-2.19184 15.94898,-5.23554 23.06445,-6.08789 3.06701,-0.36532 6.37788,-0.85344 7.35938,-1.21876 0.98144,-0.3653 10.0597,-0.85276 20.24218,-1.33984 22.94125,-0.85238 62.69071,2.19191 84.03711,6.33203 8.46496,1.58299 28.09304,4.6272 43.55078,6.69727 15.58043,2.07006 37.04982,5.11555 47.84571,6.82031 33.21696,5.13374 52.22046,6.41946 70.02343,4.55859 8.04325,-1.48803 16.20344,-3.23932 23.70313,-4.97265 19.38046,-5.79759 42.53746,-16.32022 54.47266,-30.0293 9.07573,-10.42464 37.66298,-23.01445 52.99804,-25.69336 2.08557,-0.24354 5.02857,-0.85154 6.7461,-1.21679 1.71752,-0.36531 5.27564,-0.85344 7.9746,-1.21876 10.91857,-1.21768 14.96693,-1.70365 20.24219,-2.3125 6.25671,-0.73061 13.61769,-1.70426 19.01563,-2.55664 12.88145,-1.94829 33.12429,-8.40287 48.58203,-15.70898 24.16802,-11.2027 34.22662,-18.63005 53.85542,-39.57422 5.398,-5.72312 21.4704,-28.12805 23.3106,-32.51172 1.2268,-2.80067 2.8202,-5.23693 3.4336,-5.48047 0.8587,-0.3653 4.54,-8.28054 11.4101,-25.32812 2.2083,-5.35781 6.0118,-22.5271 6.0118,-27.1543 v -4.38281 l -6.379,-0.73047 c -19.9969,-2.43537 -39.7483,-6.82006 -52.2617,-11.44727 -5.766,-2.19183 -13.7418,-7.06285 -19.5078,-11.93359 -1.4722,-1.33945 -4.1695,-3.40859 -6.0097,-4.74805 -13.61782,-9.74147 -24.04546,-21.43072 -29.4434,-32.87695 -2.93315,-6.12386 -3.18167,-9.95804 -3.18164,-11.17187 -3.17229,-7.31266 -5.60154,-15.95474 -7.03125,-22.0586 -5.73042,14.35891 -13.76948,27.33268 -23.40234,37.24805 -5.27526,5.35781 -8.58789,7.67155 -8.58789,5.9668 0,-0.24354 2.08618,-5.35757 4.78515,-11.32422 5.0299,-11.68977 11.89942,-31.6603 12.88086,-37.62696 0.24536,-1.94829 1.10376,-5.48004 1.83984,-7.67187 2.20826,-7.18434 5.3982,-43.10558 4.66211,-52.60352 -0.85876,-10.59385 -1.71618,-17.65607 -2.82031,-21.91796 -0.36804,-1.70476 -0.98315,-4.14035 -1.22851,-5.60157 -0.24536,-1.46122 -1.83912,-6.81931 -3.55664,-11.93359 -3.92578,-11.93331 -6.21264,-21.90087 -7.47852,-28.16602 -0.36804,-4.26189 1.05176,-11.63771 0.0703,-13.2207 -1.71752,-2.55714 -2.94202,-4.41811 -9.68945,-3.6875 -4.04846,0.48707 -11.43799,4.97582 -12.91016,5.46289 -1.59484,0.60884 -14.77199,2.22852 -31.94726,2.22852 -17.05259,0.12176 -31.4054,0.48692 -31.77344,0.73047 -0.36804,0.12175 -3.43604,0.73039 -6.87109,1.0957 -7.72887,0.97415 -12.63477,1.70426 -16.56055,2.55664 -1.71753,0.3653 -5.0304,0.97454 -7.36133,1.33984 -2.33093,0.36531 -5.39856,0.97454 -6.74805,1.33985 -1.34948,0.48707 -2.9436,0.97393 -3.67968,1.0957 -0.61341,0.12177 -6.01173,1.94751 -11.90039,4.01758 -6.01135,1.94829 -12.75892,3.53171 -15.08985,4.50586 -2.33093,0.97415 -27.90288,4.44414 -29.65429,4.57617 4.35301,2.77154 20.875,7.27148 20.875,7.27148 0,0 -4.46864,-0.035 -12.9336,-0.76562 -9.81444,-0.85238 -13.86378,-1.46119 -21.22461,-3.53125 -2.69897,-0.73061 -5.39868,-1.46154 -6.13476,-1.70508 -13.61754,-3.40952 -29.44315,-8.03712 -50.29883,-14.73437 -14.10826,-4.62722 -28.09241,-9.13268 -30.91406,-9.86329 -2.94434,-0.85238 -19.99867,-7.30614 -26.7461,-9.86328 -6.74742,-2.55713 -14.72009,-5.478975 -17.78711,-6.453122 -3.06701,-1.095917 -10.79713,-4.139454 -17.42187,-6.81836 -6.50207,-2.678906 -13.3711,-5.236932 -15.33399,-5.480469 -1.96288,-0.243537 -12.63649,-3.653587 -23.67773,-7.30664 -11.16393,-3.774822 -23.8003,-7.671662 -28.2168,-8.767578 -14.72166,-3.653054 -26.3761,-6.81868 -30.66992,-8.523438 -2.33093,-0.852379 -8.46424,-2.19059 -13.49414,-3.042969 -5.0299,-0.852379 -10.30676,-1.705681 -11.65625,-1.949218 -14.4763,-2.800674 -23.554,-3.409482 -52.75195,-3.53125 z m 12.25195,7.091796 c 23.60386,0.06511 38.98062,2.864354 70.13477,9.773438 43.90341,9.736505 74.03719,22.17258 157.10937,49.5625 33.67813,11.1041 47.63894,16.90467 63.59375,19.7793 5.20713,0.93819 13.9668,2.4832 13.9668,2.97461 0,1.34683 -18.45636,0.51976 -26.63867,-0.97461 -10.73017,-1.95969 -28.59999,-9.60868 -68.0586,-22.09375 C 584.06466,96.899178 552.19772,86.38502 520.22266,78.5 480.72267,68.759351 476.46055,64.60513 427.91992,66.609375 c -29.05381,1.199633 -60.17383,5.128906 -60.17383,5.128906 0,0 7.32916,-4.759507 28.10743,-8.283203 14.58283,-2.473038 27.49526,-5.579449 41.42773,-5.541016 z m 64.43945,25.798829 c 0,0 23.20565,2.014415 34.58008,4.371093 14.09881,2.921145 26.9905,7.305753 41.4668,12.054686 14.4763,4.87074 45.14579,15.83012 72.38086,25.69336 13.37217,4.74897 23.18739,8.2804 35.57812,12.66406 11.16393,3.89659 20.37891,9.61133 20.37891,9.61133 0,0 -9.12066,0.25552 -13.63281,0.86133 -11.92163,1.60062 -23.85716,3.71862 -35.33204,7.30469 -15.05898,4.70617 -43.5371,18.50976 -43.5371,18.50976 0,0 0.58609,-9.73521 1.79882,-14.42968 1.02224,-3.95706 4.93445,-11.01946 4.56641,-11.38477 -0.36804,-0.36531 -29.63086,1.5625 -29.63086,1.5625 0,0 0.62323,-8.39221 2.1582,-12.24609 1.06482,-2.67347 4.75977,-7.21485 4.75977,-7.21485 0,0 -15.18346,-2.11276 -22.7793,-1.61328 -8.53287,0.56111 -25.125,5.14649 -25.125,5.14649 -0.23491,0.26646 -0.72606,-5.94745 3.51172,-11.9375 1.71753,-3.53129 4.96875,-5.64844 4.96875,-5.64844 0,0 -14.92023,-10.67081 -22.76562,-15.41406 C 524.27597,95.079646 501.7207,83.712891 501.7207,83.712891 Z m 390.58789,36.888669 c 10.01269,0.0118 19.3711,0.0703 19.3711,0.0703 0,0 -1.6418,4.0947 -4.17383,5.27539 -1.31393,0.61268 -2.21973,0.81892 -4.46289,1.02148 -4.27368,0.38592 -9.91293,0.73656 -18.80664,1.16797 -13.15636,0.63818 -20.54954,1.19525 -29.16992,2.19922 -8.06526,0.93932 -11.45291,1.46846 -30.83399,4.8164 -8.10011,1.39923 -16.23859,2.19649 -16.5918,1.625 -0.0896,-0.14504 0.1543,-0.51757 0.1543,-0.51757 0,0 21.06898,-7.6023 33.0918,-10.89258 7.60393,-2.08097 18.92718,-3.91761 28.125,-4.56055 2.61702,-0.18293 13.28419,-0.21689 23.29687,-0.20508 z m 40.56641,1.54883 c 3.77379,0.0275 7.10896,2.55211 6.79883,6.72656 -0.61069,8.21991 -12.69511,25.47001 -29.19727,40.54883 -3.80309,1.82653 -2.09479,0.89492 -4.33398,1.60938 1.62851,-3.27967 5.01673,-8.14706 7.34765,-11.92188 2.33093,-3.77482 8.90308,-14.11786 11.11133,-20.69336 0.49887,-6.77754 0.22901,-11.85841 1.70117,-13.4414 1.88622,-1.96352 4.30799,-2.84463 6.57227,-2.82813 z m -551.39648,20.60742 c 0.98144,0 4.13693,16.62865 5.14843,25.11133 1.93714,16.24527 1.47535,48.80139 1.72071,49.04492 0.24536,0.24354 8.41278,-2.47919 12.51367,-4.01758 5.617,-2.10713 16.52344,-7.125 16.52344,-7.125 0,0 -1.92555,25.6235 -5.97266,37.68946 -4.50132,13.42012 -20.24146,37.1386 -19.99609,37.5039 0.73608,0.60885 12.32695,-3.85335 18.15625,-6.57617 4.03872,-1.88645 11.55468,-6.71686 11.55468,-6.71679 0,0 1.12984,18.6959 -2.02148,27.25 -3.29093,8.93308 -16.88281,23.09765 -16.88281,23.09765 0,0 16.77122,-1.29954 24.38476,-4.49805 3.02822,-1.27217 8.04688,-5.66601 8.04688,-5.66601 0,0 -8.53887,37.0254 -18.35547,52.94336 -18.31643,29.70068 -73.05274,75.20703 -73.05274,75.20703 0,0 0.69186,-6.72646 1.55079,-10.62305 1.8402,-9.6197 0.85924,-22.2848 -2.45313,-30.80859 -1.47217,-3.77482 -6.74903,-12.54162 -11.65625,-19.48242 -18.64743,-25.93668 -26.37598,-43.71446 -27.35742,-62.4668 -1.22681,-21.79655 2.20913,-30.68655 23.1875,-59.05859 20.24228,-27.27613 21.13616,-27.29322 29.07422,-42.4961 11.27804,-21.59961 25.27331,-68.3125 25.88672,-68.3125 z m 465.3457,6.02344 c 4.12609,-0.0321 8.70735,0.26218 9.55078,0.79492 2.33093,1.33945 0.98083,6.57586 -2.82227,11.56836 -5.52062,6.9408 -9.34559,7.87614 -15.84765,8.72852 -3.06701,0.3653 -8.55018,-0.24031 -11.61719,0.125 -7.36083,0.85238 -28.05859,17.63281 -28.05859,17.63281 0,0 5.46998,-1.76634 13.07617,-4.81055 3.55773,-1.33945 9.4469,-2.80071 13.25,-3.16601 3.68041,-0.24354 9.81372,-0.97582 13.49414,-1.46289 9.81444,-1.21769 37.2953,-0.60838 47.23242,0.97461 17.05259,2.92244 22.5719,9.01072 24.41211,27.51953 1.84021,18.87411 1.9635,25.32894 0.85938,34.70507 -0.73609,5.72312 -1.7179,11.68978 -2.08594,13.39454 -0.36804,1.70475 -3.01673,9.53547 -3.38477,11.24023 8.87316,-10.79617 16.72472,-20.67832 15.65235,-36.69141 0.85876,-5.96665 2.82178,-9.49737 9.20117,-16.3164 3.92577,-4.01836 10.40552,-6.38068 11.35937,-4.46289 0.95386,1.91779 2.24024,10.93164 2.24024,10.93164 -0.12268,8.52379 -0.10475,9.24059 -5.74805,20.80859 -8.09691,16.68228 -18.03335,29.7108 -39.01172,50.5332 -21.78718,18.13084 -23.04468,18.67607 -35.86914,23.07618 0,-0.85238 4.70789,-3.47149 6.30274,-6.15039 14.96702,-24.84077 22.20617,-52.60448 18.64843,-71.11329 -3.43505,-17.16935 -16.80752,-28.85951 -39.99414,-34.82617 -7.72887,-2.07006 -24.90345,-2.06939 -33.12304,-0.12109 -3.31238,0.73061 -6.99452,1.58249 -11.04297,2.55664 -7.36083,1.58299 -25.63882,9.13409 -38.76563,15.95312 -8.21959,4.2619 -15.82593,7.79297 -17.05273,7.79297 -1.96289,0 -1.96252,-0.12308 0.12304,-3.28906 1.10413,-1.94829 3.43409,-4.74837 4.90625,-6.45312 1.47217,-1.70476 5.15333,-5.7233 8.09766,-9.13282 13.12681,-15.09928 32.87845,-32.99844 45.14648,-41.03515 12.75879,-8.52379 29.93263,-17.65732 34.83985,-18.875 1.24214,-0.27398 3.55559,-0.41043 6.03125,-0.42969 z m -178.80664,29.25781 c -0.28174,3.20207 -0.16224,15.75703 -1.51172,19.77539 -5.37894,0.82436 -7.52422,1.80817 -17.58398,4 -13.37218,2.92245 -54.22538,22.40551 -76.0625,36.28711 -7.11547,4.50543 -13.9845,8.88981 -15.33399,9.74219 -1.34948,0.85238 -2.70032,1.8261 -3.06836,2.19141 -0.73608,0.73061 -28.46059,19.84786 -42.07812,28.98046 -10.55053,7.06257 -13.33204,8.35352 -13.33203,8.35352 1.82366,-2.40029 25.7222,-27.83583 49.76757,-45.12695 8.09692,-5.96666 15.46357,-11.43972 16.07032,-12.17578 1.60153,-1.94288 57.16971,-32.02515 79.98828,-43.34961 18.27939,-9.01087 19.19052,-8.16804 23.14453,-8.67774 z m 43.15625,21.69141 c 2.10239,0.0311 3.40735,0.36637 3.77539,1.21875 -2.23101,3.73872 -3.62038,5.94952 -7.14063,10.60742 -8.25872,-0.0749 -19.54688,0.49206 -27.39843,1.22266 -8.46495,0.85237 -17.5448,7.19708 -16.19532,4.76172 2.33093,-4.38366 11.65553,-12.33184 17.29883,-13.42774 0.36805,-0.12177 1.71693,-0.48754 3.06641,-0.97461 3.55774,-1.09593 8.83411,-1.94838 18.03515,-2.80078 3.55773,-0.3653 6.45621,-0.63854 8.5586,-0.60742 z m 122.0957,3.53515 c 1.66011,0.007 3.21792,0.0971 4.66016,0.2754 9.71001,1.20027 25.46875,9.66406 25.46875,9.66406 0,0 -1.39754,0.63913 -7.70703,-0.97266 -9.77982,-2.49832 -15.68157,-3.2502 -23.52539,-2.99414 -5.59373,0.18261 -9.43599,0.65602 -15.99414,1.97266 -12.03364,2.41592 -24.28258,6.39276 -49.51172,16.37304 l -7.02344,2.77735 c 0,0 17.03122,-11.33339 27.62109,-15.72071 17.71804,-7.34044 34.39095,-11.42402 46.01172,-11.375 z m -279.625,10.36329 c 3.80046,-0.0121 6.90065,0.25598 8.05078,0.84961 5.76599,3.16598 2.45347,7.06385 -17.05273,20.21484 -12.14537,8.15848 -21.83582,15.09957 -26.375,18.63086 -0.6134,0.48707 -3.68104,2.79968 -6.74805,5.11328 -6.50206,5.11427 -11.89942,9.61925 -14.84375,12.41992 -19.5062,18.5088 -26.05273,24.45899 -26.05273,24.45899 0,-2.80068 20.90027,-37.24404 25.43945,-41.14063 0.85876,-0.60884 2.20801,-2.43594 3.18945,-3.77539 8.71032,-12.54215 29.56605,-32.87727 35.33203,-34.58203 4.44717,-1.3699 12.72645,-2.16924 19.06055,-2.18945 z m 112.61133,27.2207 c 2.10241,0.0311 3.40735,0.36637 3.77539,1.21875 -2.23107,3.7387 -3.62232,5.94954 -7.14258,10.60742 -8.25867,-0.0749 -19.54493,0.49203 -27.39648,1.22266 -8.46495,0.85236 -17.54483,7.19709 -16.19531,4.76172 2.33091,-4.38366 11.65356,-12.33183 17.29687,-13.42774 0.36804,-0.12177 1.71888,-0.48755 3.06836,-0.97461 3.55774,-1.09592 8.83217,-1.94839 18.0332,-2.80078 3.55774,-0.36529 6.45814,-0.63853 8.56055,-0.60742 z m 302.24609,43.96094 c 0.42136,0 1.44011,1.92142 2.75391,5.1914 2.47153,6.15155 5.83884,12.47993 10.96875,20.61719 5.99589,9.51093 9.88842,14.47398 16.30664,20.78711 4.95415,4.87325 8.53485,8.08379 12.47465,11.18945 5.1464,4.0567 7.2752,5.4241 12.8535,8.24805 12.1225,6.13687 25.0706,10.68619 37.1035,13.03711 6.8789,1.34396 6.3828,2.49414 6.3828,2.49414 0,0 -5.6054,1.76093 -8.3769,2.16016 -2.7736,0.39925 -17.9103,0.58806 -21.4883,0.26757 -4.0669,-0.3643 -6.8326,-0.81704 -10.5664,-1.72851 -17.0103,-4.15237 -30.45572,-12.71469 -41.92387,-26.69727 -10.89523,-13.28401 -15.57189,-26.78866 -16.76367,-48.40234 -0.26808,-4.86186 -0.18009,-7.16406 0.27539,-7.16406 z m -348.80664,3.94922 c 2.1024,0.0311 3.40735,0.36637 3.77539,1.21875 -2.23105,3.73873 -3.62034,5.94951 -7.14062,10.60742 -8.25868,-0.0749 -19.54689,0.49204 -27.39844,1.22265 -8.46495,0.85238 -17.5448,7.19709 -16.19531,4.76172 2.33093,-4.38366 11.65552,-12.33182 17.29883,-13.42773 0.36804,-0.12177 1.71692,-0.48754 3.0664,-0.97461 3.55774,-1.09592 8.83412,-1.9484 18.03516,-2.80078 3.55773,-0.36531 6.4562,-0.63854 8.55859,-0.60742 z m -47.25781,47.89257 c 2.1024,0.0311 3.40735,0.36833 3.77539,1.22071 -2.23106,3.73871 -3.62233,5.94757 -7.14258,10.60547 -8.25867,-0.0749 -19.54691,0.49399 -27.39843,1.2246 -8.46497,0.8524 -17.54286,7.19515 -16.19336,4.75977 2.33092,-4.38364 11.65356,-12.33181 17.29687,-13.42773 0.36803,-0.12176 1.71693,-0.48753 3.06641,-0.97461 3.55774,-1.09592 8.83412,-1.94841 18.03515,-2.80078 3.55774,-0.36531 6.45815,-0.63854 8.56055,-0.60743 z m 344.29492,0.93555 c 3.06701,0 -3.43543,14.12419 -9.9375,21.67383 -7.97423,9.13263 -21.95923,22.40636 -26.62109,25.20703 -1.96289,1.33945 -5.39722,3.77308 -7.60547,5.59961 -15.45774,13.15099 -113.84848,56.37895 -180.83203,79.63672 -9.07836,3.16598 -20.60877,7.42866 -25.63867,9.37695 -5.0299,2.07006 -9.69361,3.77472 -10.42969,3.89649 -3.55774,0.73061 -80.62169,31.74059 -122.52735,42.35742 -9.96554,2.52478 -30.4375,5.02148 -30.4375,5.02148 0,0 1.82327,-0.74151 16.54493,-7.56054 31.4062,-14.85576 84.15896,-47.733 104.0332,-64.90235 1.71753,-1.58299 5.64356,-4.7489 8.58789,-7.0625 2.94433,-2.3136 6.74732,-5.72297 8.46484,-7.42773 1.71753,-1.82653 7.92383,-9.47657 7.92383,-9.47657 0,0 0.78552,18.4874 -3.01758,26.40235 -2.08556,4.38366 -3.67968,8.03574 -3.67968,8.2793 0,1.46122 3.92665,-0.36556 19.26172,-8.76758 23.30929,-12.78569 36.67982,-22.16048 43.91796,-30.5625 3.43506,-3.89659 10.30641,-11.32579 15.45899,-16.6836 8.34227,-8.64556 10.75586,-10.5 10.75586,-10.5 0,0 2.37146,7.94379 2.49414,19.14649 0.12268,7.79318 -3.17505,15.29943 -2.92969,15.54297 0.98145,0.97414 32.74062,-13.96034 42.67774,-20.41407 13.24949,-8.52379 24.78127,-18.87464 38.52148,-34.0957 12.02269,-13.5163 16.73441,-17.47857 16.73437,-17.47851 0,0 0.93067,12.36516 -0.0508,19.42773 -0.49072,4.38366 -0.36706,5.72266 0.98243,5.72266 2.45361,0 42.07862,-20.21304 51.40234,-26.17969 4.4165,-2.80068 14.10792,-9.8641 21.46875,-15.70899 7.48351,-5.72311 13.86316,-10.4707 14.47656,-10.4707 z m -814.20898,34.23047 c 0,0 -1.91268,4.31018 -5.056643,8.77148 -7.298681,10.35686 -15.556067,20.94831 -19.984375,33.03125 -4.803253,13.106 -7.412166,27.41633 -6.607422,41.35157 0.879963,15.23775 5.323352,30.54855 12.380859,44.08203 6.344597,12.1664 18.367791,25.5526 26.125001,31.8125 3.22179,2.59991 28.2832,21.25 28.2832,21.25 0,0 -32.52489,-14.77867 -38.460935,-21.5 -6.955745,-7.87593 -20.976468,-24.65479 -28.060547,-39.02539 -3.048851,-6.18483 -8.355989,-23.8131 -8.263672,-36.75196 0.176569,-24.74733 4.047842,-37.33231 17.822266,-57.93945 7.946655,-11.88854 21.822268,-25.08203 21.822268,-25.08203 z m 956.01756,7.16992 c 0,0 -10.6631,26.54649 -25.3848,44.9336 -13.1261,16.31697 -20.6093,23.37848 -34.34956,32.26757 -15.45774,10.10678 -50.79054,26.54631 -63.05859,29.46875 -1.22681,0.24354 -3.43409,0.72973 -4.90625,1.2168 -1.59485,0.36531 -4.17115,0.85344 -5.88868,1.21875 -1.71752,0.36531 -4.04821,0.85149 -5.15234,1.2168 -1.2268,0.3653 -3.43604,0.85149 -4.9082,1.21679 -1.59485,0.24354 -4.17115,0.73235 -5.88867,1.09766 -1.71753,0.36531 -4.90735,0.97259 -7.23829,1.33789 -2.20824,0.36531 -5.27392,0.85345 -6.74609,1.21875 -1.34948,0.24354 -6.99464,0.85277 -12.39258,1.33984 l -9.6914,0.73047 2.94531,-3.65429 c 1.71753,-1.9483 7.72816,-7.18342 13.49414,-11.44532 5.76598,-4.26189 10.67297,-8.15813 11.04102,-8.52343 0.36804,-0.36531 3.68128,-3.40952 7.48437,-6.69727 6.99279,-6.08842 15.70302,-15.83136 26.13086,-29.34766 9.6809,-12.32663 9.73633,-12.12695 9.73633,-12.12695 l 1.91797,18.12305 c 0,0 26.56917,-19.83838 37.17187,-32.36328 5.17866,-6.11753 12.5586,-20.47461 12.5586,-20.47461 0,0 1.05932,10.31228 1.30468,11.4082 0.24536,1.21769 0.73548,5.35799 1.10352,9.13281 0.36804,3.77482 0.82056,8.43736 1.55664,9.16797 0.73604,0.73061 8.20784,-2.24014 11.90034,-4.26172 9.8643,-5.40044 17.7371,-13.78993 26.6602,-20.61523 6.839,-5.23112 20.5996,-15.58594 20.5996,-15.58594 z m -769.49608,96.92969 c 1.36154,-0.01 2.50533,-0.009 3.38086,0.004 1.16738,0.0171 1.85721,0.0543 1.94922,0.11523 1.71753,1.46122 -4.29334,7.55089 -10.30469,10.35156 -5.52062,2.80068 -8.017,4.17858 -6.87109,6.33203 3.66413,6.88585 2.68366,6.68653 -4.90625,3.16602 -8.21959,-2.3136 -21.10156,-16.43945 -21.10156,-16.43945 0,0 0.49124,-2.43541 21.10156,-3.16602 6.62474,-0.20549 12.66734,-0.33365 16.75195,-0.36328 z m 345.52344,22.28125 c 0,0 -0.34953,4.88943 -0.73633,7.30664 -0.63037,3.93935 -1.59473,9.37585 -2.57617,11.68945 -1.84021,4.2619 -2.4375,6.12696 -2.4375,6.12696 0,0 25.99111,-3.9348 39.36328,-11.11915 5.6433,-2.92243 10.55188,-5.35742 10.91992,-5.35742 0.85877,0 0.12219,9.37476 -1.47265,20.69922 -0.73609,5.11428 -0.49121,5.72499 2.45312,7.06446 2.94433,1.21766 20.83267,5.79845 31.40625,8.03515 2.63666,0.55775 5.29707,1.02832 7.97461,1.33985 7.36406,0.85665 22.19531,1.44921 22.19531,1.44921 0,0 -21.8279,8.17135 -38.75781,7.5625 -11.77733,-0.48707 -25.88526,-1.3397 -31.2832,-2.07031 -9.56908,-1.33945 -15.45803,-2.07069 -28.2168,-3.41016 -3.31237,-0.3653 -7.72888,-1.09623 -9.81445,-1.70507 -1.96289,-0.60885 -9.19984,-1.70494 -15.94727,-2.43555 -6.74743,-0.73061 -9.67949,-1.52499 -14.52734,-2.23047 -9.32803,-1.35745 -18.66984,-2.62035 -28.01563,-3.85156 -10.96074,-1.44396 -32.90625,-2.68526 -32.90625,-4.14649 0,-2.19183 11.40971,-7.06207 37.41797,-15.95117 12.88145,-4.38366 23.71285,-8.84878 35.69922,-12.9082 6.37701,-2.1597 19.26172,-6.08789 19.26172,-6.08789 z m -182.21289,79.83789 c 0.32047,0.008 0.53178,0.12131 0.52344,0.4082 -0.0715,2.4582 -0.61326,7.1836 -0.61329,7.1836 -0.36804,3.89659 -1.34948,10.10671 -1.96289,13.75976 -0.73608,3.65306 -1.59484,8.52429 -1.96289,10.83789 -0.73608,4.6272 -2.82226,8.76797 -4.78515,10.10742 -1.96289,1.33946 -11.58471,-0.59843 -16.47266,-3.3164 -4.96019,-2.75814 -11.62109,-12.39258 -11.62109,-12.39258 0,0 4.17017,-1.82543 8.83203,-2.3125 4.66186,-0.36531 9.07874,-1.218 9.9375,-1.70508 0.73608,-0.48707 3.6803,-5.48068 6.50195,-11.08203 4.53918,-8.8891 5.84749,-9.01614 8.71094,-10.59375 0,0 1.95069,-0.91892 2.91211,-0.89453 z"
         transform="scale(10)"
         id="path24841"
         inkscape:connector-curvature="0" />
      <path
         style="display:inline;fill:#999b9e;stroke:none;stroke-width:0.10143812"
         d="m 776.13281,65.050781 c -5.06633,-0.05452 -10.37331,1.042509 -17.41211,3.306641 -5.11945,1.693799 -15.69449,7.614479 -19.74414,10.814453 -0.52515,0.485484 -1.03045,0.964183 -1.51367,1.441406 -1.02992,1.299148 -4.54666,5.628206 -2.94922,6.392578 7.84474,3.753723 4.47178,3.14189 -5.84961,5.216797 -10.0598,1.948295 -30.66992,10.472904 -30.66992,12.542964 0,1.09593 13.86133,5.84564 17.78711,6.21094 1.34949,0 6.13465,-2.43626 10.67383,-5.48047 7.11547,-4.87073 9.20252,-5.721907 16.19531,-6.208981 4.53918,-0.365305 13.24916,-8.14e-4 19.50586,0.851561 18.77011,2.55714 25.51698,2.06922 34.47266,-2.314451 6.01134,-2.922443 8.07876,-4.819165 9.9375,-8.279297 1.37699,-2.563387 3.26214,-5.383419 3.0664,-6.455078 -0.57258,-3.134661 -0.98735,-2.621039 3.80274,-1.458985 2.89178,0.701536 7.75123,2.804865 11.32226,4.960938 1.65691,0.876992 2.87068,1.744778 3.55664,2.626953 0.22965,0.237761 0.43529,0.471049 0.58008,0.691406 1.47217,2.191835 1.34924,2.922657 -0.73633,5.601563 -1.34948,1.704758 -5.88904,4.505501 -9.9375,6.332031 -4.17374,2.21426 -26.28261,7.68619 -43.02929,9.75781 -3.89563,0.4819 -13.98316,-2.73867 -18.1543,-4.07812 -12.39073,-3.89659 -23.94544,-1.39425 -27.25781,3.84179 -1.34949,2.07007 0.47998,3.62809 2.93359,4.48047 1.59485,0.60885 6.37821,1.30236 9.56836,1.94922 2.41227,0.48913 4.77703,1.52489 7.23828,1.46094 10.67008,-0.27722 24.32959,-1.78904 37.81641,-5.03516 29.31031,-7.05463 59.52049,-14.625937 61.15039,-14.242184 3.21065,-0.559389 5.60246,-0.984564 7.39844,-1.310547 3.72032,-0.909462 2.24945,-1.70147 -1.58204,-4.38086 -6.37938,-4.383663 -16.5751,-10.100957 -35.83593,-16.554687 -10.55053,-3.653053 -23.43299,-8.036755 -28.46289,-9.863281 -5.11808,-1.826527 -9.4008,-2.770255 -13.8711,-2.81836 z m 2.47071,4.789063 c 12.56278,0.02664 18.76171,3.875463 18.76171,11.546875 0,8.76733 -10.67336,14.611257 -26.86718,14.976562 -15.79864,-0.362611 -22.00152,-6.218627 -22.20508,-11.568359 -0.28244,-7.422581 10.4269,-13.636506 24.53515,-14.732422 2.0549,-0.152211 3.98073,-0.226462 5.7754,-0.222656 z"
         transform="scale(10)"
         id="path24959"
         inkscape:connector-curvature="0" />
      <path
         style="display:inline;fill:#999b9e;stroke:none;stroke-width:0.1"
         d="m 255.36523,185.58203 c -12.96429,0.33645 -34.41816,7.74463 -44.75976,11.5957 -3.03525,1.33807 -6.34816,2.78879 -8.67383,3.81641 -8.5,3.9 -21.7168,12.13359 -24.7168,15.43359 0,0 -15.87293,10.35636 -24.97265,11.32422 -8.21964,0.87426 -24.22852,-5.2539 -24.22852,-5.2539 0,0 -14.86758,12.75295 -20.23633,20.77734 -5.56949,8.32444 -10.228,17.70758 -11.87109,27.56641 -1.392243,8.35368 1.945312,25.32812 1.945312,25.32812 10e-7,0 32.506938,-23.5159 51.515628,-28.47851 20.82516,-5.43684 46.82031,0.45507 46.82031,0.45507 0,0 -6.42686,-17.34853 -14.13086,-20.58007 -4.48963,-1.88324 -14.4043,2.49804 -14.4043,2.49804 0,0 11.78897,-15.84547 19.26563,-22.1914 9.87254,-8.37949 21.00552,-15.72412 33.11328,-20.39453 14.76653,-5.69601 30.86479,-8.6443 46.70703,-8.72071 9.35666,-0.0451 26.16455,4.88477 27.63672,4.88477 1.71753,0 5.27563,-7.4288 4.04883,-8.64649 -1.96289,-1.94829 -28.36695,-9.79534 -43.0586,-9.41406 z m -78.15039,30.8457 c -0.80391,0.15133 -1.61697,0.38005 -2.43554,0.64063 1.49026,-0.37591 2.43554,-0.64063 2.43554,-0.64063 z m -48.0625,16.25977 c 3.14038,0 11.84645,2.05932 12.97657,3.07031 0.45906,0.41068 -2.30397,2.97339 -6.14063,5.69336 -13.65527,9.68077 -23.82598,20.96251 -32.00586,35.50195 -3.29783,5.86177 -4.847654,8.35938 -4.847654,8.35938 0,0 5.169664,-23.55107 11.044924,-32.36523 6.80822,-10.21382 15.31568,-20.25977 18.97265,-20.25977 z"
         transform="scale(10)"
         id="path24953"
         inkscape:connector-curvature="0" />
    </g>
    <g
       id="layer6"
       inkscape:groupmode="layer"
       inkscape:label="black"
       style="display:inline">
      <g
         id="layer101"
         transform="matrix(1.2268049,0,0,1.2176844,244.77803,2.88509)"
         style="display:inline;fill:#0c0afc;stroke:none">
        <path
           id="path337"
           transform="matrix(2.5,0,0,2.5,88.21539,75.335487)"
           style="fill:#000000;stroke-width:0.40000001"
           d="m 1218.6953,0.0078125 c -46.481,0.15697021 -90.4949,2.5070312 -121.9824,7.4570313 -5.6,1.2 -17.2,2.8000002 -26,4.0000002 -8.8,1.2 -20.4,3.20039 -26,4.40039 -5.6,1.2 -15.2,3.200391 -22,4.400391 -50.40001,8.8 -231.61969,69.190369 -231.61969,69.190369 0,0 47.46848,9.626967 68.02007,21.610416 54.82158,31.96597 113.31247,71.72751 139.53766,129.51563 16.86806,37.16935 12.28896,82.5178 3.60156,122.40039 -10.82884,49.71377 -41.93961,92.0828 -67.53961,136.8828 -36.4,63.2 -51.52449,73.13038 -51.52449,73.13038 0,0 -115.4325,-26.4822 -172.57307,-17.62163 -56.91514,8.82562 -158.50421,68.78545 -158.50421,68.78545 0,0 108.23658,-44.12664 165.41356,-45.62163 47.90215,-1.25249 133.98938,24.52704 140.38938,30.92704 4,4 -7.60117,28.40039 -13.20117,28.40039 -4.8,0 -59.59878,-16.19168 -90.10619,-16.04345 -51.65367,0.25098 -104.14596,9.93429 -152.29225,28.64522 -39.47738,15.34196 -75.77278,39.47188 -107.96223,66.99784 -24.37765,20.8459 -62.81653,72.89361 -62.81653,72.89361 0,0 32.32637,-14.38964 46.96481,-8.20334 25.1189,10.61539 46.0708,67.60393 46.0708,67.60393 0,0 -84.75676,-19.35302 -152.65724,-1.49342 -61.97788,16.3018 -167.9646,93.54651 -167.9646,93.54651 0,0 -10.88079,-55.75991 -6.34138,-83.20113 5.3573,-32.38548 20.54701,-63.20592 38.70637,-90.55108 17.50481,-26.3595 65.97798,-68.25015 65.97798,-68.25015 0,0 52.19771,20.12851 78.99784,17.25664 29.66966,-3.17936 81.42262,-37.20118 81.42262,-37.20118 0,0 -49.10918,13.94479 -73.87611,11.27434 -26.76929,-2.88636 -52.9987,-14.01416 -75.41593,-28.92705 -10.88523,-7.24132 -22.3064,-28.34729 -27.1064,-28.34729 -4.8,0 -72.5712,76.58681 -93.20117,124 -17.29102,39.73939 -23.71918,84.67159 -22.79883,128 0.61915,29.14834 18.98014,85.38053 18.98014,85.38053 0,0 89.44864,-46.65772 137.4714,-61.09065 36.55522,-10.98644 74.77671,-18.2846 112.94237,-18.89165 35.44795,-0.56382 105.40492,14.20138 105.40492,14.20138 0,0 3.14893,-36.90185 -0.25448,-54.87395 -4.45019,-23.49974 -10.58323,-48.55628 -25.92488,-66.90501 -10.22855,-12.23343 -40.8405,-24.91131 -40.8405,-24.91131 0,0 55.31483,-56.53325 91.01986,-70.72802 55.69976,-22.1438 120.37241,-29.79924 178.98878,-17.27198 21.72271,4.6425 57.92056,32.95556 57.92056,32.95556 0,0 -18.36873,29.34605 -27.0179,44.33648 -13.98153,24.23227 -40.19017,73.68122 -40.19017,73.68122 0,0 -72.50262,34.19347 -107.70127,53.31858 -120.7148,65.5901 -243.84238,128.84439 -354.40039,210.39839 -43.98478,32.4457 -87.37421,67.3854 -121.59961,110 -49.10411,61.1404 -115.24065,114.0424 -116.455855,204.4071 -2.615035,194.4583 44.499536,259.0081 128.692635,350.7941 57.05287,62.1981 149.26361,80.6213 229.31837,107.3585 86.59187,28.9205 177.68833,43.1907 268.04446,56.2411 41.50481,5.9947 107.99935,10.4247 125.40348,10.0617 1.07088,4.0364 14.88176,45.4558 45.95935,68.3117 37.7235,6.4289 196.47558,-33.5549 196.47558,-33.5549 0,0 106.921,80.7778 169.5952,100.562 49.2758,15.5548 154.5664,11.8187 154.5664,11.8187 0,0 -93.4304,-35.0236 -135.2566,-61.5642 -31.2698,-19.842 -84.708,-62.6895 -84.708,-71.8895 0,-3.2 45.915,-26.4936 67.0773,-42.3473 21.3744,-16.0125 60.0885,-52.9978 60.0885,-52.9978 0,0 -117.543,39.3121 -178.6348,46.9447 -77.3667,9.666 -233.89621,-1.9646 -233.89621,-1.9646 0,0 81.95044,-21.2948 120.49794,-38.3473 32.69447,-14.4632 92.81417,-53.7455 92.81417,-53.7455 0,0 -67.19656,18.3521 -101.18153,25.9115 -66.08626,14.6998 -131.90009,35.4509 -199.56184,37.7676 -113.91967,3.9004 -229.50529,-10.7693 -339.55752,-40.4579 -80.99832,-21.8507 -173.32347,-39.0141 -230.98251,-99.9535 -76.3983,-80.7449 -122.867403,-202.0022 -115.318378,-312.905 4.645592,-68.2485 52.724568,-128.521 96.404708,-181.1658 69.28643,-83.5065 163.35922,-144.0002 254.21476,-203.3231 94.15624,-61.47803 298.8759,-156.45352 298.8759,-156.45352 0,0 -18.12064,68.06927 -18.07512,102.89165 0.0328,25.05595 4.46273,50.51647 13.19922,73.99997 17.30173,46.5067 51.3708,84.923 76,128 24.85064,43.4643 62.88492,82.4452 72.40039,131.5996 8.21937,42.4591 10.27929,94.1509 -15.59961,128.8008 -24.36721,32.6259 -71.54322,45.0761 -112.11936,48.5089 -57.21071,4.8402 -167.32744,-40.8651 -167.32744,-40.8651 0,0 32.14376,37.4206 52.77423,50.2368 19.86225,12.339 42.92636,19.6175 65.87179,24.1194 17.93711,3.5192 36.58317,3.4979 54.80078,2 41.35887,-3.4006 90.4,-7.2008 122,-24.8008 11.6,-6.4 22.00078,-11.5996 22.80078,-11.5996 0.8,0 2.8,4.4 4,10 1.6,5.6 8,16.6372 8,16.6372 0,0 39.19844,-53.036 46.39844,-85.436 4,-17.2 6.00078,-86.4012 2.80078,-101.2012 -0.8,-3.2 -2.80039,-12.4 -4.40039,-20 -4.4,-18.8 -46.00039,-98.7996 -58.40039,-111.5996 -15.6,-16.4 -47.04336,-63.4928 -65.19922,-98.4004 -15.48054,-29.7638 -34.52957,-60.2143 -36.77423,-93.68808 -1.79814,-26.81483 8.68481,-53.56855 19.17462,-78.31189 18.75604,-44.24171 33.19883,-60.4 76.79883,-122 113.60001,-159.2 163.20041,-248.4 180.40041,-322 10,-42 9.5996,-158.39882 -0.4004,-186.79882 -0.8,-2.8 -2.3996,-9.60118 -3.5996,-15.20118 -3.6,-20.8 -19.6,-66.8 -30,-86 -5.6,-10.8 -10.7996,-21.20039 -11.5996,-22.40039 -2,-4 19.5992,-11.2 43.1992,-14 12,-1.6 26.4,-3.2 32,-4 40.4,-6 79.6,-7.59961 174,-7.59961 95.2,0.4 124.8,2.39961 172,11.59961 4.4,0.8 21.6,3.60039 38,6.40039 16.4,2.8 36.4,7.2 44,10 14,5.6 52,16 100,28 14.4,3.6 55.6,16.40079 92,28.80079 36,12 70.8012,23.2 77.2012,24 6.4,0.8 28.8,9.2 50,18 21.6,8.8 46.7988,18.80039 56.7988,22.40039 10,3.2 36,12.79921 58,21.19921 22,8.40001 77.6012,29.6004 87.2012,32.4004 9.2,2.4 54.7988,17.20039 100.7988,32.40039 68,22 119.6,37.19843 164,48.39843 2.4,0.8 11.2,3.20157 20,5.60157 24,6.8 37.2012,8.79961 69.2012,11.59961 27.6,2.4 42.1744,2.51665 42.1744,2.51665 0,0 -53.869,-14.78361 -68.062,-23.8879 5.7105,-0.43371 89.0864,-11.82914 96.6864,-15.02915 7.6,-3.2 29.6012,-8.40078 49.2012,-14.80078 19.2,-6.8 36.7988,-12.79921 38.7988,-13.19922 2.4,-0.4 7.6,-1.9996 12,-3.5996 4.4,-1.2 14.4,-3.20039 22,-4.4004 7.6,-1.2 18.4,-3.20039 24,-4.40039 12.8,-2.8 28.8,-5.20039 54,-8.40039 11.2,-1.2 21.2004,-3.19961 22.4004,-3.59961 1.2,-0.8 47.9996,-2.00039 103.5996,-2.40039 56,0 98.9636,-5.31858 104.1636,-7.31858 4.8,-1.6 28.8929,-16.34691 42.0929,-17.94691 22,-2.4 25.9907,3.71052 31.5907,12.11052 3.2,5.20001 -1.4279,29.42911 -0.2279,43.42911 4.1274,20.58053 11.5807,53.32664 24.3807,92.52664 5.6,16.80001 10.8016,34.39922 11.6016,39.19922 0.8,4.8 2.8,12.80039 4,18.40039 3.6,14 6.3992,37.2 9.1992,72 2.4,31.2 -7.9992,149.20079 -15.1992,172.80079 -2.4,7.2 -5.2,18.79921 -6,25.19921 -3.2,19.6 -25.6,85.19961 -42,123.59961 -8.8,19.6 -15.6016,36.40118 -15.6016,37.20118 0,5.6 10.8,-1.99961 28,-19.59961 54,-56 92.8,-141.60118 104,-229.20118 2,-17.6 6.0004,-44.4 8.4004,-60 4,-26.4 2.8004,-149.20039 -1.5996,-168.40039 -1.2,-4.8 -3.2008,-15.6 -4.8008,-24 -5.9912,-17.77168 -7.1912,-23.90757 -21.3009,-58.32527 -1.6,-8.8 -7.0633,-26 -10.2633,-38 -3.6,-12 -4.9439,-41.67434 -6.1439,-49.27434 -4,-26 -14.6919,-53.99921 -30.2919,-61.19921 -23.6,-11.2 -52.7984,-8.80118 -82.3984,6.79882 -14,7.2 -35.6016,16.00157 -47.6016,19.60157 -31.2,8.8 -74.1482,8.19598 -81.7482,6.55337 -7.6,-1.64262 -49.4502,-22.15455 -94.6502,-49.75455 -62.8,-38.8 -117.6876,-55.00883 -144.8008,-62 0,0 -18.0274,-4.57534 -24.1547,-6.47556 3.9525,-4.54208 18.1102,-12.59363 27.5078,-17.47389 -8.6665,-8.27215 -50.9539,-22.44937 -82.1539,-26.84937 -27.2,-4 -104.4,-4 -126,0 -46,8.4 -93.9996,35.59843 -141.5996,80.39843 -41.6,39.2 -87.6004,59.6 -134.4004,60 -30.4,0.4 -32,-0.4 -118,-46 -20.8,-11.2 -54,-27.99882 -74,-36.79882 -19.6,-9.2 -36.8,-17.99961 -38,-19.59961 -2.8,-4 -122.4,-52.00039 -184,-74.400394 -89.2,-31.6 -175.2686,-52.31869 -196.3984,-56.800782 l -26.4004,-5.599609 C 1405.1641,7.403125 1307.4318,-0.29185791 1218.6953,0.0078125 Z M 2415.4883,182.60742 c 14.5754,0.15802 28.5371,3.25781 45.2246,9.25781 16.4,6 58.4008,20.40039 92.8008,32.40039 62.8,21.20001 96.0481,39.97882 116.8481,54.37882 17.6,12.4 20.1012,12.48972 -18.8051,18.69767 -4.3545,-1.54416 -103.4764,23.48605 -199.5447,46.7817 -43.9738,10.66323 -88.5094,15.63154 -123.2992,16.54218 -8.0249,0.21006 -15.7344,-3.19404 -23.5996,-4.80079 -10.4015,-2.12488 -25.9992,-4.40039 -31.1992,-6.40039 -8,-2.8 -13.9629,-7.9191 -9.5629,-14.71911 10.8,-17.2 48.4742,-25.42426 88.8742,-12.62426 13.6,4.4 46.493,14.98018 59.1947,13.39717 54.6026,-6.80512 126.6843,-24.78041 140.2928,-32.05409 13.2,-6 28.0004,-15.19882 32.4004,-20.79882 6.8,-8.8 7.2004,-11.20039 2.4004,-18.4004 -6,-9.2 -35.8929,-23.65339 -50.4004,-27.19921 -15.6181,-3.81726 -14.2673,-5.4983 -12.4004,4.79882 0.6382,3.52032 -5.5103,12.78065 -10,21.20118 -6.0604,11.36627 -12.7984,17.59921 -32.3984,27.19921 -29.2,14.40001 -51.2004,15.99961 -112.4004,7.59961 -20.4,-2.8 -48.7996,-3.99882 -63.5996,-2.79882 -22.8,1.6 -29.6008,4.39843 -52.8008,20.39843 -14.8,10 -30.4008,18 -34.8008,18 -12.8,-1.2 -58,-16.79843 -58,-20.39843 0,-6.8 67.2,-34.80118 100,-41.20118 33.6529,-6.81591 44.65,-4.81039 19.0722,-17.14108 -5.4048,-2.60555 7.329,-18.05774 10.129,-21.65774 6.8,-8.4 49.5988,-33.20157 68.7988,-39.60157 22.95,-7.4375 40.2566,-11.03651 56.7754,-10.85742 z"
           inkscape:connector-curvature="0"
           sodipodi:nodetypes="scssccaaaccacassaaacacscaacacaacaacaacaacaacacaaasaaacccacacacacacaaaaaaacaaaaaacaaacsccccccaaaccccccccccscscsccscccccccccccccccccccccscccccsccccccccccczcsccccccccccccscccccssacccscccssscscccscscccc" />
        <path
           d="m 3563,5143 c 0,0 -30.0191,-159.4691 -22.0531,-239.115 9.1045,-91.0293 78.8319,-262.885 78.8319,-262.885 0,0 -89.7788,-24 -89.7788,-26 0,-8 46,-47 72,-61 34,-18 130,-43 188,-50 25,-3 52,-7 60,-10 8,-3 82,-7 165,-11 187,-7 511,18 685,52 69,13 229,38 355,55 127,17 302,42 390,56 289,45 446,54 600,34 160,-21 472.6651,-127.3864 608,-284 73.9787,-85.6104 307,-189 432,-211 17,-2 41,-7 55,-10 14,-3 43,-7 65,-10 89,-10 122,-14 165,-19 51,-6 111,-14 155,-21 105,-16 270,-69 396,-129 197,-92 279,-153 439,-325 44,-47 175,-231 190,-267 10,-23 23,-43 28,-45 7,-3 37,-68 93,-208 18,-44 49,-185 49,-223 v -36 l -52,-6 c -163,-20 -324,-56 -426,-94 -47,-18 -112,-58 -159,-98 -12,-11 -34,-28 -49,-39 -111,-80 -196,-176 -240,-270 -29,-61 -25.9115,-96.2743 -25.9115,-96.2743 0,0 84.0123,54.141 140.9115,97.2743 129.101,97.8669 176.1477,124.5559 288,162 121.1494,40.5564 136.9951,43.14 308,49 149.9953,5.14 175.0992,-6.9897 243,-27 129.831,-38.261 159,-63.4602 159,-63.4602 0,0 10.5002,62.9579 7,108.4602 -3.5002,45.5023 -16,179 -19,205 -4,33 -25,169 -31,200 -2,14 -7,41 -10,60 -3,19 -19,74 -35,121 -16,48 -29,94 -29,102 0,58 -211,489 -295,602 -79,107 -140,176 -168,194 -18,11 -42,29 -55,41 -30,29 -161,112 -243,154 -67,35 -162,71 -212,80 -15,3 -192,38 -217,41 -25,3 -55,8 -67,10 -22,5 -33,7 -188,25 -49,6 -322,45 -405,72 -104,33 -149,61 -240,147 -47,44 -121,96 -147,115 -76,53 -165,87 -268,102 -16,3 -41,7 -54,10 -123,27 -459,20 -615,-12 -11,-3 -51,-8 -88,-13 -37,-5 -70,-11 -75,-14 -4,-3 -24,-8 -44,-11 -19,-3 -62,-12 -94,-21 -33,-8 -66,-15 -75,-15 -8,0 -64,-15 -125,-34 -391,-125 -652,-181 -840,-181 -65,0 -227.4141,-4.2366 -335,27 -61.1426,17.7522 -136,57 -169,89 -41,39 -102,152 -131,244 -44,139 -77,188 -77,188 z"
           id="path341"
           inkscape:connector-curvature="0"
           sodipodi:nodetypes="cacsccscccccscsccccccccscccccccssssczccscscccccsccccccccscccscsaccc"
           style="fill:#000000" />
        <path
           d="M 3281.7257,5064.7699 C 3241.2939,5042.1192 3187,4963 3187,4963 c 0,0 34,-15 72,-19 38,-3 74,-10 81,-14 6,-4 30,-45 53,-91 37,-73 47.6593,-74.0442 71,-87 0,0 28.2721,-13.4242 28,-4 -0.5829,20.1875 -5,59 -5,59 -3,32 -11,83 -16,113 -6,30 -13,70 -16,89 -6,38 -23,72 -39,83 -16,11 -94.4314,-4.9093 -134.2743,-27.2301 z"
           id="path343"
           inkscape:connector-curvature="0"
           style="fill:#000000"
           sodipodi:nodetypes="accccccccsca" />
        <path
           d="M 2086.3274,4516.7699 C 1938.8883,4513.9408 1788.4384,4520.2304 1645,4486 c -121.0381,-28.8848 -290,-98 -344,-145 -29,-25 -35,-27 -161,-41 -176,-19 -216,-31 -330,-99 -109,-65 -221,-204 -249,-308 -53,-200 -29,-386 75,-566 53,-92 214,-246.0221 220,-251.0221 85,-68 240.9216,-193.5783 374,-270.9779 124.2151,-72.2447 392.4602,-178.3628 392.4602,-178.3628 0,0 -269.2492,171.6198 -390.7345,274.4513 C 1075.6291,3033.2168 899.81064,3158.9456 801,3338 c -76.91975,139.386 -139.79047,308.8044 -109,465 20.42952,103.636 98.15074,196.4558 184,258 64.79359,46.4496 170,69 229,69 30,0 55,-2 55,-5 0,-2 -11,-29 -25,-59 -28,-62 -10,-113 -10,-113 0,0 64,11 122,32 63,22 127,38 157,39 l 51,1 -4,-148 c -3,-141 15,-145 15,-145 0,0 34,28 51,58 45,75 124,155 211,213 81,53 181,101 233,111 19,4 63,13 99,21 36,8 106,22 155,30 104,19 185,43 185,55 0,5 -363,60 -515,50 -166,-12 -378,-38 -412,-51 -32,-12 -35,1 -10,46 34,61 110,92 357,146 93,20 363.8496,63.3628 406.8496,67.3628 45,4 204.1504,27.6372 204.1504,27.6372 0,0 -229.7468,12.9751 -344.6726,10.7699 z"
           id="path345"
           inkscape:connector-curvature="0"
           sodipodi:nodetypes="aaccccccacaaaassccccccccccscccccccca"
           style="fill:#000000" />
        <path
           d="m 5530,4539 c -96,-4 -211,-11 -255,-17 -78,-11 -126,-17 -230,-28 -27,-3 -63,-9 -80,-14 -16,-5 -75,-14 -130,-20 -55,-6 -78.891,-12.525 -118.4071,-18.3186 -76.0351,-11.1478 -152.1829,-21.5261 -228.3628,-31.6372 C 4398.8863,4398.186 4220,4388 4220,4376 c 0,-18 93,-58 305,-131 105,-36 193.296,-72.6628 291,-106 51.9806,-17.7361 157,-50 157,-50 0,0 -2.8471,40.1491 -6,60 -5.1383,32.3512 -13,77 -21,96 -15,35 -19.8673,50.3186 -19.8673,50.3186 0,0 211.8673,-32.3186 320.8673,-91.3186 46,-24 86,-44 89,-44 7,0 1,77 -12,170 -6,42 -4,47 20,58 24,10 169.812,47.6315 256,66 21.4921,4.5804 43.1747,8.442 65,11 60.0263,7.0351 180.9204,11.9027 180.9204,11.9027 0,0 -177.9204,67.0973 -315.9204,62.0973 z"
           id="path347"
           inkscape:connector-curvature="0"
           style="fill:#000000"
           sodipodi:nodetypes="ccccsaaccacaccccccaacc" />
        <path
           d="m 3898.1327,4353.0885 c 0,0 14.8673,-6.0885 134.8673,-62.0885 256,-122 686,-392 848,-533 14,-13 46,-39 70,-58 24,-19 55,-47 69,-61 14,-15 64.5929,-77.823 64.5929,-77.823 0,0 6.4071,151.823 -24.5929,216.823 -17,36 -30,66 -30,68 0,12 32,-3 157,-72 190,-105 299,-182 358,-251 28,-32 84,-93 126,-137 68,-71 87.6814,-86.2301 87.6814,-86.2301 0,0 19.3186,65.2301 20.3186,157.2301 1,64 -25.8673,125.6372 -23.8673,127.6372 8,8 266.8673,-114.6372 347.8673,-167.6372 108,-70 202,-155 314,-280 98,-111 136.4071,-143.5487 136.4071,-143.5487 0,0 7.5929,101.5487 -0.4071,159.5487 -4,36 -3,47 8,47 20,0 343,-166 419,-215 36,-23 115,-81 175,-129 61,-47 113,-86 118,-86 25,0 -28,116 -81,178 -65,75 -179,184 -217,207 -16,11 -44,31 -62,46 -126,108 -928,463 -1474,654 -74,26 -168,61 -209,77 -41,17 -79,31 -85,32 -29,6 -657.1778,260.6697 -998.7611,347.8584 -81.2317,20.7343 -248.1062,41.2301 -248.1062,41.2301 z"
           id="path349"
           inkscape:connector-curvature="0"
           style="fill:#000000"
           sodipodi:nodetypes="cccscccscccccsccccscccccccccac" />
        <path
           d="m 2020,4070 c -67,-19 -172,-135 -172,-135 0,0 4,-20 172,-26 96,-3 177,-4 180,-2 14,12 -35,62 -84,85 -45,23 -65.3406,34.3152 -56,52 29.8673,56.5487 21.8673,54.9115 -40,26 z"
           id="path351"
           inkscape:connector-curvature="0"
           style="fill:#000000"
           sodipodi:nodetypes="cccccsc" />
        <path
           d="m 6940,4043 c 14,-16 63,-59 110,-94 47,-35 87,-67 90,-70 3,-3 30,-28 61,-55 57,-50 128,-130 213,-241 78.9115,-101.2301 79.3628,-99.6018 79.3628,-99.6018 L 7509,3632.2301 c 0,0 216.5747,-162.9115 303,-265.7699 42.2126,-50.239 102.3628,-168.1505 102.3628,-168.1505 0,0 8.6372,84.6903 10.6372,93.6903 2,10 6,44 9,75 3,31 6.6814,69.2965 12.6814,75.2965 6,6 66.9012,-18.3982 97,-35 80.4061,-44.3501 144.5841,-113.245 217.3186,-169.2965 55.746,-42.9596 167.9115,-128 167.9115,-128 0,0 -86.9115,218 -206.9115,369 -107,134 -168,192 -280,265 -126,83 -414,218 -514,242 -10,2 -28,6 -40,10 -13,3 -34,7 -48,10 -14,3 -33,7 -42,10 -10,3 -28,7 -40,10 -13,2 -34,6 -48,9 -14,3 -40,8 -59,11 -18,3 -43,7 -55,10 -11,2 -57,7 -101,11 l -79,6 z"
           id="path353"
           inkscape:connector-curvature="0"
           style="fill:#000000"
           sodipodi:nodetypes="cssccccaccscaacccccsccsccccc" />
        <path
           d="m 2598.3628,3578.2522 c 0,0 5.6372,-55.2522 12.6372,-87.2522 15,-79 7,-183 -20,-253 -12,-31 -55,-103 -95,-160 -152,-213 -215,-359 -223,-513 -10,-179 18,-252 189,-485 165,-224 172.2949,-224.1493 237,-349 91.9302,-177.3827 206,-561 211,-561 8,0 33.7329,136.5544 41.9779,206.2168 C 2967.768,1509.628 2964,1777 2966,1779 c 2,2 68.5726,-20.3663 102,-33 45.7856,-17.3044 134.6814,-58.5044 134.6814,-58.5044 0,0 -15.6924,210.415 -48.6814,309.5044 -36.6914,110.2102 -165,305 -163,308 6,5 100.4839,-31.6394 148,-54 32.9207,-15.4921 94.1858,-55.1637 94.1858,-55.1637 0,0 9.2049,153.5387 -16.4823,223.7876 -26.8252,73.3613 -137.6017,189.6814 -137.6017,189.6814 0,0 136.7056,-10.6754 198.7655,-36.9425 24.6838,-10.4475 65.584,-46.5265 65.584,-46.5265 0,0 -69.6018,304.06 -149.6194,434.7832 -149.3019,243.9112 -595.4691,617.6327 -595.4691,617.6327 z"
           id="path355"
           inkscape:connector-curvature="0"
           style="fill:#000000"
           sodipodi:nodetypes="ccccccacasacacacacacac" />
        <path
           d="m 6832.6217,2575.5111 c 0,-7 38.3783,-28.5111 51.3783,-50.5111 122,-204 181,-432 152,-584 -28,-141 -137,-237 -326,-286 -63,-17 -203,-17 -270,-1 -27,6 -57,13 -90,21 -60,13 -209,75 -316,131 -67,35 -129,64 -139,64 -16,0 -16,-1 1,-27 9,-16 28,-39 40,-53 12,-14 42,-47 66,-75 107,-124 268,-271 368,-337 104,-70 244,-145 284,-155 27,-6 116,-4 127,3 19,11 8,54 -23,95 -45,57 -76.1733,64.6804 -129.1733,71.6804 -25,3 -69.6932,-1.973 -94.6932,1.027 -60,7 -228.7188,144.7983 -228.7188,144.7983 0,0 44.5853,-14.5057 106.5853,-39.5057 29,-11 77,-23 108,-26 30,-2 80,-8 110,-12 80,-10 304,-5 385,8 139,24 184,74 199,226 15,155 16,208 7,285 -6,47 -14,96 -17,110 -3,14 -24.5929,78.3119 -27.5929,92.3119 C 7248.7345,2093.6504 7312.7412,2012.5044 7304,1881 c 7,-49 23,-78 75,-134 32,-33 84.8178,-52.4088 92.5929,-36.6593 7.7751,15.7495 18.2589,89.7854 18.2589,89.7854 -1,70 -0.8518,75.8739 -46.8518,170.8739 -66,137 -147,244 -318,415 -177.5929,148.896 -187.8429,153.3761 -292.3783,189.5111 z"
           id="path359"
           inkscape:connector-curvature="0"
           style="fill:#000000"
           sodipodi:nodetypes="cccccccscsccccccccccccccsccczcccc" />
        <path
           d="m 4469,2515.2743 c 19,-36 95,-101.2743 141,-110.2743 3,-1 14,-4 25,-8 29,-9 72,-16 147,-23 58,-6 94.5487,-8.9779 100.5487,5.0221 -18.1859,30.7036 -29.5177,48.8584 -58.2124,87.1106 -67.3186,-0.615 -159.3275,4.0443 -223.3275,10.0443 -69,7 -143.0088,59.0973 -132.0088,39.0973 z"
           id="path361"
           inkscape:connector-curvature="0"
           sodipodi:nodetypes="cccccccc"
           style="fill:#000000" />
        <path
           d="M 3636.6372,2422.8673 C 3636.6372,2399.8673 3807,2117 3844,2085 c 7,-5 18,-20 26,-31 71,-103 241,-270 288,-284 58,-18 196,-24 221,-11 47,26 20,58 -139,166 -99,67 -178,124 -215,153 -5,4 -30,23 -55,42 -53,42 -97,79 -121,102 -159,152 -212.3628,200.8673 -212.3628,200.8673 z"
           id="path363"
           inkscape:connector-curvature="0"
           sodipodi:nodetypes="cccccccccc"
           style="fill:#000000" />
        <path
           d="M 3868.3407,2357.5929 C 3883.2059,2337.881 4078,2129 4274,1987 c 66,-49 126.0543,-93.9552 131,-100 13.0545,-15.9555 466,-263 652,-356 149,-74 156.4292,-67.0664 188.6593,-71.2522 -2.2965,26.2964 -1.3186,129.3938 -12.3186,162.3938 C 5189.4956,1628.9115 5172,1637 5090,1655 c -109,24 -442,184 -620,298 -58,37 -114,73 -125,80 -11,7 -22,15 -25,18 -6,6 -232,163 -343,238 -86,58 -108.6593,68.5929 -108.6593,68.5929 z"
           id="path365"
           inkscape:connector-curvature="0"
           sodipodi:nodetypes="ccscccccsscc"
           style="fill:#000000" />
        <path
           d="m 4802.1106,1433 c 0,0 4.774,-79.9431 14.6593,-118.4956 C 4825.1024,1282.0078 4857,1224 4854,1221 c -3,-3 -241.5265,12.8451 -241.5265,12.8451 0,0 5.0809,-68.9215 17.5929,-100.5708 8.6796,-21.9553 38.8009,-59.2522 38.8009,-59.2522 0,0 -123.7659,-17.3541 -185.6815,-13.2522 -69.5536,4.608 -204.8008,42.2743 -204.8008,42.2743 -1.9148,2.1883 -5.9282,-48.852 28.615,-98.0442 14,-29 40.5044,-46.38496 40.5044,-46.38496 0,0 -121.621,-87.63984 -185.5708,-126.59292 -87.9556,-53.57547 -271.8009,-146.9115 -271.8009,-146.9115 0,0 189.1514,16.53561 281.8673,35.88938 114.923,23.98934 220,60 338,99 118,40 368,130 590,211 109,39 189,68 290,104 91,32 166.1195,78.9336 166.1195,78.9336 0,0 -74.3398,2.0913 -111.1195,7.0664 -97.1762,13.1448 -194.4655,30.5501 -288,60 -122.7496,38.6485 -354.8894,152 -354.8894,152 z"
           id="path371"
           inkscape:connector-curvature="0"
           sodipodi:nodetypes="caccacacccacaccccaac"
           style="fill:#000000" />
        <path
           d="m 7186.6814,1402.2301 c 13.2744,-26.9336 40.8894,-66.9115 59.8894,-97.9115 19,-31 72.5708,-115.9336 90.5708,-169.9336 C 7341.208,1078.7257 7339,1037 7351,1024 c 41,-43 113.0448,-22.8511 109,32 -4.9779,67.5044 -103.4867,209.1681 -238,333 -31,15 -17.0664,7.3628 -35.3186,13.2301 z"
           id="path373"
           inkscape:connector-curvature="0"
           style="fill:#000000"
           sodipodi:nodetypes="csccscc" />
      </g>
      <path
         d="m 5254.7778,3544.6334 c 23.3092,-43.8364 116.5464,-123.3202 172.9795,-134.2794 3.6803,-1.2176 17.1752,-4.8707 30.67,-9.7415 35.5774,-10.9592 88.33,-19.4829 180.3403,-28.0066 71.1548,-7.3062 115.9932,-10.9324 123.354,6.1152 -22.3106,37.3871 -36.2128,59.4941 -71.4153,106.0731 -82.5867,-0.7488 -195.4638,4.9249 -273.9793,12.2311 -84.6495,8.5238 -175.4442,71.9619 -161.9492,47.6081 z"
         id="path361-2"
         inkscape:connector-curvature="0"
         sodipodi:nodetypes="cccccccc"
         style="display:inline;fill:#000000;stroke:none;stroke-width:1.22223604" />
      <path
         d="m 6192.9633,2586.5961 c 23.3093,-43.8366 116.5464,-123.3201 172.9795,-134.2792 3.6804,-1.2177 17.1753,-4.8708 30.6701,-9.7414 35.5774,-10.9592 88.33,-19.483 180.3403,-28.0069 71.1548,-7.3059 115.9933,-10.9322 123.3541,6.1154 -22.3107,37.387 -36.2128,59.4942 -71.4154,106.073 -82.5867,-0.7488 -195.4638,4.9248 -273.9793,12.2311 -84.6495,8.5236 -175.4442,71.9617 -161.9493,47.608 z"
         id="path361-9"
         inkscape:connector-curvature="0"
         sodipodi:nodetypes="cccccccc"
         style="display:inline;fill:#000000;stroke:none;stroke-width:1.22223604" />
      <path
         d="m 6642.153,2175.4065 c 23.3093,-43.8366 116.5465,-123.3202 172.9795,-134.2792 3.6805,-1.2177 17.1753,-4.8708 30.6701,-9.7415 35.5774,-10.9593 88.33,-19.4829 180.3404,-28.0069 71.1546,-7.306 115.9926,-10.9321 123.3534,6.1155 -22.3101,37.3872 -36.2123,59.4942 -71.4148,106.0732 -82.5872,-0.7489 -195.4638,4.9248 -273.9793,12.2308 -84.6495,8.5237 -175.4441,71.9617 -161.9493,47.6081 z"
         id="path361-23"
         inkscape:connector-curvature="0"
         sodipodi:nodetypes="cccccccc"
         style="display:inline;fill:#000000;stroke:none;stroke-width:1.22223604" />
      <path
         style="display:inline;fill:#000000;stroke-width:1.26263511"
         d="m 7780.2187,691.19179 c -78.692,-0.10473 -159.6476,11.52418 -229.6458,49.35178 -33.7851,18.83871 -67.1848,46.17094 -77.6273,85.03419 -7.1547,25.78802 0.3036,53.72048 16.4569,74.59971 28.8771,37.47272 76.0172,54.17974 120.7031,63.84962 33.4072,7.09231 67.588,10.61312 101.7403,8.69869 55.9598,-0.3465 112.2277,-9.8804 164.2526,-30.79062 41.0504,-16.88383 81.6121,-44.89858 98.0306,-87.83514 8.6041,-22.92863 8.6389,-48.7144 2.8415,-72.31161 -9.3944,-33.28736 -36.3003,-59.4872 -68.3926,-71.34509 -40.6131,-16.3118 -85.0043,-19.70435 -128.3593,-19.25153 z m 76.6407,72.01573 a 47.35779,37.871875 0 0 1 47.3578,37.87188 47.35779,37.871875 0 0 1 -47.3578,37.87187 47.35779,37.871875 0 0 1 -47.3578,-37.87187 47.35779,37.871875 0 0 1 47.3578,-37.87188 z"
         id="path266"
         inkscape:connector-curvature="0" />
    </g>
    <g
       id="layer4"
       inkscape:groupmode="layer"
       inkscape:label="white"
       style="display:inline">
      <path
         transform="translate(-50,-180)"
         id="path24983"
         d="M 7204.4723,1570.2889 C 7097.1706,1550.692 6918.4643,1474.198 6523.8782,1349.3473 5890.6381,1148.9843 5571.9704,1043.8515 5252.2198,965.0013 4857.2199,867.59481 4814.6,826.05534 4329.1937,846.09779 c -290.5381,11.99633 -601.7335,51.28616 -601.7335,51.28616 0,0 73.2888,-47.60111 281.0715,-82.83807 145.8283,-24.73038 274.9637,-55.7821 414.2884,-55.39777 236.0386,0.65112 389.8013,28.6327 701.3428,97.72354 439.0341,97.36505 740.3735,221.72365 1571.0953,495.62285 336.7813,111.041 476.3832,169.0532 635.9313,197.7995 52.0713,9.3819 139.6751,24.8286 139.6751,29.7427 0,13.4683 -184.5692,5.1959 -266.3923,-9.7478 z"
         inkscape:connector-curvature="0"
         style="display:inline;fill:#ffffff;stroke:none;stroke-width:10"
         sodipodi:nodetypes="sssscsasssss" />
      <path
         transform="translate(-50,-180)"
         id="path24981"
         d="m 1041.3554,3033.124 c 0,0 51.6912,-235.5075 110.4438,-323.6491 68.0822,-102.1382 153.1632,-202.6075 189.7329,-202.6075 31.4038,0 118.4634,20.6104 129.7646,30.7203 4.5906,4.1068 -23.0443,29.7211 -61.4109,56.9208 -136.5527,96.8077 -238.2692,209.6347 -320.068,355.0291 -32.9783,58.6176 -48.4624,83.5864 -48.4624,83.5864 z"
         inkscape:connector-curvature="0"
         style="display:inline;fill:#ffffff;stroke:none;stroke-width:10"
         sodipodi:nodetypes="cssccsc" />
      <path
         transform="translate(-50,-180)"
         id="path24979"
         d="m 1042.0326,5486.167 c -69.55745,-78.7593 -209.76325,-246.5374 -280.60404,-390.2434 -30.48851,-61.8483 -83.56749,-238.1453 -82.64432,-367.5339 1.76569,-247.4733 40.47357,-373.312 178.21781,-579.3834 79.46655,-118.8854 218.22545,-250.8289 218.22545,-250.8289 0,0 -19.1111,43.1138 -50.5507,87.7268 -72.98681,103.5686 -155.57577,209.478 -199.85885,330.3074 -48.03253,131.06 -74.11933,274.1559 -66.07189,413.5083 8.79963,152.3775 53.24194,305.5013 123.81701,440.8361 63.44597,121.664 183.67713,255.515 261.24923,318.114 32.2179,25.9991 282.8358,212.5027 282.8358,212.5027 0,0 -325.2551,-147.7924 -384.6155,-215.0057 z"
         inkscape:connector-curvature="0"
         sodipodi:nodetypes="sasscsaaascs"
         style="display:inline;fill:#ffffff;stroke:none;stroke-width:10" />
      <path
         transform="translate(-50,-180)"
         id="path24991"
         d="m 7646.3676,2483.6139 c 0,0 170.3171,-113.3334 276.2158,-157.2065 202.4919,-83.8908 391.3282,-125.2549 506.707,-110.9927 97.1001,12.0027 254.6991,96.6437 254.6991,96.6437 0,0 -13.9826,6.3783 -77.0775,-9.7396 -97.7982,-24.9832 -156.8233,-32.493 -235.2615,-29.9324 -55.9373,1.8261 -94.3425,6.5644 -159.9242,19.7308 -120.3364,24.1592 -242.8339,63.9106 -495.1253,163.7134 -70.2334,27.7833 -70.2334,27.7833 -70.2334,27.7833 z"
         inkscape:connector-curvature="0"
         style="display:inline;fill:#ffffff;stroke:none;stroke-width:10"
         sodipodi:nodetypes="cssccsssc" />
      <path
         transform="translate(-50,-180)"
         id="path24989"
         d="m 8126.4138,1547.7754 c -0.896,-1.4504 1.5404,-5.1691 1.5404,-5.1691 0,0 210.6854,-76.0404 330.9136,-108.9432 76.0393,-20.8097 189.2699,-39.1667 281.2481,-45.5961 52.3405,-3.6587 426.6777,-1.3569 426.6777,-1.3569 0,0 -16.4052,40.9487 -41.7255,52.7556 -13.1393,6.1268 -22.2019,8.2039 -44.6335,10.2295 -42.7368,3.8592 -99.1338,7.3598 -188.0709,11.6739 -131.5636,6.3818 -205.4979,11.9571 -291.7017,21.9968 -80.6526,9.3932 -114.5231,14.6839 -308.3339,48.1633 -81.0011,13.9923 -162.3823,21.9611 -165.9143,16.2462 z"
         inkscape:connector-curvature="0"
         style="display:inline;fill:#ffffff;stroke:none;stroke-width:10"
         sodipodi:nodetypes="ccssccssssc" />
      <path
         transform="translate(-50,-180)"
         id="path24993"
         d="m 10424.799,3868.0235 c -40.669,-3.643 -68.323,-8.1655 -105.661,-17.2802 -170.103,-41.5237 -304.549,-127.1386 -419.2305,-266.9644 -108.9523,-132.8401 -155.732,-267.9031 -167.6498,-484.0399 -2.6808,-48.6186 -1.7937,-71.6332 2.7611,-71.6332 4.2136,0 14.409,19.214 27.547,51.9138 24.7153,61.5155 58.3802,124.7969 109.6793,206.1695 59.9589,95.1093 98.8907,144.735 163.0729,207.8663 49.542,48.7325 85.336,80.8426 124.734,111.8992 51.464,40.567 72.766,54.2339 128.549,82.4734 121.225,61.3687 250.695,106.862 371.024,130.3712 68.789,13.4396 63.834,24.9482 63.834,24.9482 0,0 -56.06,17.6184 -83.776,21.6107 -27.717,3.9925 -179.104,5.8703 -214.884,2.6654 z"
         inkscape:connector-curvature="0"
         style="display:inline;fill:#ffffff;stroke:none;stroke-width:10.09325027"
         sodipodi:nodetypes="cccsccsccssccc" />
      <path
         style="display:inline;fill:#ffffff;stroke-width:0.125"
         d="m 785.68594,76.320752 c -2.09406,-0.0364 -4.58788,1.519126 -4.45288,3.828125 0.0897,2.318136 2.62883,3.657075 4.73217,3.481689 2.0611,0.07401 4.27054,-1.356168 4.47852,-3.515625 0.0319,-2.078111 -1.99825,-3.578715 -3.9292,-3.747558 -0.27462,-0.03526 -0.55176,-0.05125 -0.82861,-0.04663 z"
         id="path274"
         inkscape:connector-curvature="0"
         transform="scale(10)" />
    </g>
  </g>
</svg>
